<svg width="19" height="24" viewBox="0 0 19 24" fill="none" xmlns="http://www.w3.org/2000/svg">
<path d="M17.9273 8.48193C17.799 8.58144 15.5346 9.85736 15.5346 12.6945C15.5346 15.976 18.416 17.137 18.5022 17.1657C18.4889 17.2365 18.0445 18.7556 16.983 20.3036C16.0366 21.6657 15.0482 23.0257 13.5445 23.0257C12.0408 23.0257 11.6538 22.1522 9.91794 22.1522C8.22629 22.1522 7.62482 23.0544 6.24939 23.0544C4.87396 23.0544 3.91425 21.794 2.81081 20.2461C1.53268 18.4284 0.5 15.6045 0.5 12.9244C0.5 8.62567 3.29509 6.34581 6.04595 6.34581C7.50762 6.34581 8.72604 7.30552 9.64373 7.30552C10.5172 7.30552 11.8794 6.28832 13.5423 6.28832C14.1725 6.28832 16.4369 6.34581 17.9273 8.48193ZM12.7528 4.46842C13.4405 3.65245 13.927 2.52026 13.927 1.38808C13.927 1.23107 13.9138 1.07186 13.885 0.943604C12.7661 0.985618 11.4349 1.68881 10.6322 2.61977C10.002 3.33623 9.41376 4.46842 9.41376 5.61609C9.41376 5.78857 9.44251 5.96105 9.45577 6.01633C9.52654 6.0296 9.64152 6.04508 9.75651 6.04508C10.7604 6.04508 12.0231 5.37284 12.7528 4.46842Z" fill="#3A3A3A"/>
</svg>
