<svg width="175" height="202" viewBox="0 0 175 202" fill="none" xmlns="http://www.w3.org/2000/svg">
<path d="M169.298 96.7742L141.646 101.055C140.589 101.219 139.866 102.207 140.029 103.264L142.636 120.106C142.8 121.163 143.789 121.886 144.845 121.723L172.498 117.442C173.554 117.278 174.278 116.29 174.114 115.233L171.507 98.3907C171.343 97.3344 170.354 96.6106 169.298 96.7742Z" stroke="#263238" stroke-linecap="round" stroke-linejoin="round"/>
<path d="M140.452 105.983L171.929 101.11" stroke="#263238" stroke-linecap="round" stroke-linejoin="round"/>
<path d="M169.469 106.636L164.384 107.423L165.518 114.744L170.602 113.957L169.469 106.636Z" stroke="#263238" stroke-linecap="round" stroke-linejoin="round"/>
<path d="M166.447 108.621C167.521 107.342 169.286 108.195 168.872 112.164L170.445 112.944L170.599 113.941L165.517 114.73L165.309 113.396L167.227 112.65C167.227 112.65 165.436 109.828 166.447 108.621Z" stroke="#263238" stroke-linecap="round" stroke-linejoin="round"/>
<path d="M155.421 117.574C155.421 117.574 159.095 117.603 158.042 116.87C156.989 116.137 156.832 115.395 157.727 115.382C158.622 115.37 160.123 117.088 160.003 116.039C159.884 114.99 160.532 115.672 160.655 115.74C160.779 115.809 161.841 115.382 161.892 115.506C161.943 115.63 161.87 115.975 165.328 115.442" stroke="#263238" stroke-linecap="round" stroke-linejoin="round"/>
<path d="M143.121 109.252L158.536 106.865" stroke="#263238" stroke-linecap="round" stroke-linejoin="round"/>
<path d="M143.395 111L152.475 109.593" stroke="#263238" stroke-linecap="round" stroke-linejoin="round"/>
<path d="M143.871 114.082L156.536 112.121" stroke="#263238" stroke-linecap="round" stroke-linejoin="round"/>
<path d="M147.801 102.555L163.258 100.16" stroke="#263238" stroke-linecap="round" stroke-linejoin="round"/>
<path d="M0.589722 91.7572L35.1493 84.8555L47.2177 142.797L10.484 150.675L0.589722 91.7572Z" stroke="#263238" stroke-linecap="round" stroke-linejoin="round"/>
<path d="M9.09491 142.41L45.7562 135.772" stroke="#263238" stroke-linecap="round" stroke-linejoin="round"/>
<path d="M41.4127 130.843L23.9048 134.075" stroke="#263238" stroke-linecap="round" stroke-linejoin="round"/>
<path d="M38.8172 127.937L33.7017 128.692" stroke="#263238" stroke-linecap="round" stroke-linejoin="round"/>
<path d="M39.5965 122.02L13.4647 126.923" stroke="#263238" stroke-linecap="round" stroke-linejoin="round"/>
<path d="M5.10797 118.674L40.8783 112.36" stroke="#263238" stroke-linecap="round" stroke-linejoin="round" stroke-dasharray="1 2"/>
<path d="M43.1174 140.921L21.3892 145.474" stroke="#263238" stroke-linecap="round" stroke-linejoin="round"/>
<path d="M42.4678 139.089L32.2538 140.922" stroke="#263238" stroke-linecap="round" stroke-linejoin="round"/>
<path d="M36.9443 108.541L19.0272 112.092" stroke="#263238" stroke-linecap="round" stroke-linejoin="round"/>
<path d="M35.5296 104.563L29.8215 105.684" stroke="#263238" stroke-linecap="round" stroke-linejoin="round"/>
<path d="M35.1926 101.801L9.09491 106.831" stroke="#263238" stroke-linecap="round" stroke-linejoin="round"/>
<path d="M32.8213 88.3556L25.7747 89.8135" stroke="#263238" stroke-linecap="round" stroke-linejoin="round"/>
<path d="M9.09317 93.3641L3.01422 94.5449" stroke="#263238" stroke-linecap="round" stroke-linejoin="round"/>
<path d="M5.22772 97.8954C5.35449 97.4632 5.57223 97.0631 5.86633 96.722C6.16043 96.3808 6.52408 96.1065 6.9329 95.9174" stroke="#263238" stroke-linecap="round" stroke-linejoin="round"/>
<path d="M7.92953 101.8C7.17468 101.711 6.47693 101.354 5.96301 100.794C5.44909 100.234 5.1531 99.5079 5.12878 98.7482" stroke="#263238" stroke-linecap="round" stroke-linejoin="round"/>
<path d="M10.3012 101.076C9.86849 101.466 9.32995 101.718 8.75378 101.801" stroke="#263238" stroke-linecap="round" stroke-linejoin="round"/>
<path d="M8.22772 95.6277C8.77659 95.6457 9.31146 95.8055 9.78024 96.0916C10.249 96.3776 10.6357 96.7802 10.9027 97.2601C11.1697 97.74 11.3079 98.2808 11.3038 98.83C11.2997 99.3791 11.1534 99.9179 10.8793 100.394" stroke="#263238" stroke-linecap="round" stroke-linejoin="round"/>
<path d="M14.4433 96.429C13.8764 96.2499 13.3137 96.0453 12.7382 95.9174" stroke="#263238" stroke-linecap="round" stroke-linejoin="round"/>
<path d="M19.2792 96.8384C18.7975 97.9851 16.1033 96.9407 15.3189 96.702" stroke="#263238" stroke-linecap="round" stroke-linejoin="round"/>
<path d="M14.6653 93.7944L19.7041 94.9795C19.6231 95.3162 19.5591 95.6573 19.4952 95.994" stroke="#263238" stroke-linecap="round" stroke-linejoin="round"/>
<path d="M12.173 94.9791C12.7102 93.7003 12.497 93.274 13.8356 93.5852" stroke="#263238" stroke-linecap="round" stroke-linejoin="round"/>
<path d="M73.6549 185.469L80.3264 187.516L75.3686 181.675C78.0864 178.654 79.6425 174.765 79.7594 170.703" stroke="#263238" stroke-linecap="round" stroke-linejoin="round"/>
<path d="M65.5611 188.045C67.7973 187.332 69.9075 186.271 71.8148 184.903" stroke="#263238" stroke-linecap="round" stroke-linejoin="round"/>
<path d="M39.8163 175.64C41.7815 185.108 52.2427 190.939 63.1857 188.671" stroke="#263238" stroke-linecap="round" stroke-linejoin="round"/>
<path d="M41.4107 164.966C40.9907 165.763 40.6344 166.593 40.345 167.447" stroke="#263238" stroke-linecap="round" stroke-linejoin="round"/>
<path d="M79.4394 167.421C77.4785 157.953 67.013 152.121 56.0743 154.393C51.1071 155.369 46.6306 158.033 43.4048 161.935" stroke="#263238" stroke-linecap="round" stroke-linejoin="round"/>
<path d="M67.8317 163.951C64.6814 160.52 60.3886 162.898 58.6024 166.381C55.6525 163.823 50.7799 163.197 49.1344 167.558C46.355 174.903 55.8613 179.383 60.2607 181.003C60.7595 181.19 61.1687 181.348 61.5097 181.463C61.7868 181.229 62.1108 180.93 62.503 180.572C65.9815 177.431 73.1433 169.74 67.8317 163.951Z" stroke="#263238" stroke-linecap="round" stroke-linejoin="round"/>
<path d="M94.0279 24.2159L87.5866 21.5345L91.9561 27.8266C88.9696 30.5721 87.0542 34.2881 86.5507 38.3135" stroke="#263238" stroke-linecap="round" stroke-linejoin="round"/>
<path d="M102.325 22.4204C100.031 22.9176 97.8294 23.769 95.7982 24.9441" stroke="#263238" stroke-linecap="round" stroke-linejoin="round"/>
<path d="M126.764 37.2478C125.72 27.6264 115.868 20.8057 104.759 22.0292" stroke="#263238" stroke-linecap="round" stroke-linejoin="round"/>
<path d="M124.15 47.7174C124.637 46.9632 125.065 46.1722 125.429 45.3514" stroke="#263238" stroke-linecap="round" stroke-linejoin="round"/>
<path d="M86.5508 41.6132C87.5952 51.2261 97.4468 58.0382 108.556 56.8318C113.593 56.3369 118.304 54.1155 121.891 50.544" stroke="#263238" stroke-linecap="round" stroke-linejoin="round"/>
<path d="M111.327 47.4959C116.253 44.8593 118.108 38.7289 115.472 33.8033C112.835 28.8777 106.705 27.0221 101.779 29.6588C96.8536 32.2954 94.9981 38.4258 97.6347 43.3514C100.271 48.277 106.402 50.1325 111.327 47.4959Z" stroke="#263238" stroke-linecap="round" stroke-linejoin="round"/>
<path d="M102.712 39.8567L105.739 42.7129L110.786 34.0208" stroke="#263238" stroke-linecap="round" stroke-linejoin="round"/>
<path opacity="0.2" d="M119.203 134.928C119.203 134.928 117.686 153.293 119.881 157.748C122.076 162.203 123.176 192.64 122.191 196.468C122.191 196.468 129.259 198.25 132.056 195.718C134.852 193.186 139.154 195.624 146.239 193.16C153.324 190.696 148.212 136.007 148.212 136.007L148.43 116.112L136.745 105.702L119.203 134.928Z" fill="black" fill-opacity="0.7"/>
<path d="M128.623 143.761C128.579 143.893 128.508 144.013 128.415 144.115C126.905 145.543 120.464 147.129 114.931 148.272C110.348 149.222 106.405 149.866 106.405 149.866C106.405 149.866 103.37 124.642 103.37 121.991C103.37 119.339 98.476 76.4112 98.476 76.4112L110.208 75.904L125.772 75.2304C125.772 75.2304 125.865 76.3771 126.023 78.3807C127.05 91.1439 130.58 138.727 128.623 143.761Z" fill="#2E5CFF"/>
<path opacity="0.2" d="M128.624 143.761L114.932 146.562L109.761 147.623C108.358 146.246 107.288 146.221 107.288 146.221L106.862 142.363L106.193 136.05L100.302 80.5035C101.58 79.6211 102.211 77.69 102.211 77.69L110.098 77.4043L123.76 76.9056L126.016 78.3635C127.051 91.1438 130.581 138.727 128.624 143.761Z" fill="black" fill-opacity="0.7"/>
<path d="M128.624 143.761L114.932 146.562L109.761 147.623C108.358 146.246 107.288 146.221 107.288 146.221L106.862 142.363L106.193 136.05L100.302 80.5035C101.58 79.6211 102.211 77.69 102.211 77.69L110.098 77.4043L123.76 76.9056L126.016 78.3635C127.051 91.1438 130.581 138.727 128.624 143.761Z" stroke="#263238" stroke-linecap="round" stroke-linejoin="round"/>
<path d="M108.015 127.409L112.585 127.4L112.589 128.828L111.319 129.28L108.39 129.6L108.015 127.409Z" fill="#2E5CFF" stroke="#263238" stroke-linecap="round" stroke-linejoin="round"/>
<path d="M108.296 130.35L111.656 130.235L112.517 130.644L112.474 132.541L108.552 132.584L108.296 130.35Z" fill="#2E5CFF" stroke="#263238" stroke-linecap="round" stroke-linejoin="round"/>
<path d="M108.831 133.381L112.667 133.104L112.625 134.541L110.77 135.197L108.809 135.086L108.831 133.381Z" fill="#2E5CFF" stroke="#263238" stroke-linecap="round" stroke-linejoin="round"/>
<path d="M109.061 135.802L112.161 135.96L112.442 136.753L111.99 137.627L109.219 137.806L108.742 136.454L109.061 135.802Z" fill="#2E5CFF" stroke="#263238" stroke-linecap="round" stroke-linejoin="round"/>
<path d="M112.635 138.578L113.062 139.819C113.13 139.951 113.165 140.097 113.165 140.245C113.165 140.393 113.13 140.539 113.062 140.671C112.982 140.762 112.881 140.831 112.768 140.871C112.654 140.911 112.532 140.922 112.414 140.901C112.175 140.88 111.941 140.799 111.702 140.786C110.981 140.757 110.321 141.349 109.613 141.213C109.336 140.445 108.637 139.32 109.583 138.975C109.758 138.919 112.738 138.86 112.635 138.578Z" fill="#2E5CFF" stroke="#263238" stroke-linecap="round" stroke-linejoin="round"/>
<path d="M112.622 142.069C112.69 142.364 112.738 142.663 112.767 142.964C112.81 143.155 112.804 143.353 112.749 143.54C112.694 143.728 112.591 143.898 112.452 144.034C112.27 144.134 112.066 144.188 111.859 144.192L109.395 144.414C109.359 143.948 109.352 143.481 109.374 143.015C109.519 142.461 109.416 142.508 109.941 142.282C110.772 141.928 111.77 142.491 112.622 142.069Z" fill="#2E5CFF" stroke="#263238" stroke-linecap="round" stroke-linejoin="round"/>
<path d="M103.661 81.7656C103.661 81.7656 104.59 90.7476 104.633 92.5253" stroke="#263238" stroke-linecap="round" stroke-linejoin="round"/>
<path d="M105.664 81.864L106.098 86.8132" stroke="#263238" stroke-linecap="round" stroke-linejoin="round"/>
<path d="M112.609 79.9922L113.172 85.794L113.96 85.8708L113.704 80.0476L112.609 79.9922Z" fill="#2E5CFF" stroke="#263238" stroke-linecap="round" stroke-linejoin="round"/>
<path opacity="0.2" d="M128.624 143.761C128.58 143.893 128.508 144.013 128.415 144.115C126.906 145.543 120.464 147.129 114.931 148.272V144.435L106.878 142.372L105.664 142.061L106.209 136.058L108.294 113.124L110.114 77.4216L110.191 75.904L125.772 75.2305C125.772 75.2305 125.866 76.3772 126.023 78.3808C127.051 91.144 130.58 138.727 128.624 143.761Z" fill="black" fill-opacity="0.7"/>
<path d="M128.623 143.761C128.579 143.893 128.508 144.013 128.415 144.115C126.905 145.543 120.464 147.129 114.931 148.272C110.348 149.222 106.405 149.866 106.405 149.866C106.405 149.866 103.37 124.642 103.37 121.991C103.37 119.339 98.476 76.4112 98.476 76.4112L110.208 75.904L125.772 75.2304C125.772 75.2304 125.865 76.3771 126.023 78.3807C127.05 91.1439 130.58 138.727 128.623 143.761Z" stroke="#263238" stroke-linecap="round" stroke-linejoin="round"/>
<path d="M136.879 201C136.977 200.101 135.562 187.197 135.536 185.794C135.468 181.957 134.381 176.923 134.381 176.923C132.863 173.044 131.682 164.104 127.633 158.371C123.583 152.637 123.587 145.893 122.914 140.168C122.24 134.443 122.406 134.937 122.577 129.856C122.7 126.039 122.53 122.218 122.069 118.427C121.733 115.051 121.059 109.112 122.069 106.346C123.08 103.579 125.723 102.935 128.617 105.706C131.512 108.477 132.693 119.838 132.693 121.24C132.693 122.643 132.693 127.025 133.707 128.713C133.707 128.713 139.441 125.781 139.441 124.971C139.441 124.161 139.27 117.003 140.114 116.619L136.743 105.706L143.137 103.434C144.341 104.514 145.38 105.763 146.223 107.143C146.945 108.285 147.549 109.498 148.026 110.762C150.725 117.92 155.06 122.912 155.956 124.971C156.851 127.03 155.956 143.382 155.956 146.422C155.956 149.461 153.995 163.473 154.046 165.831C154.084 167.536 155.235 173.879 156.382 178.743C156.808 180.619 159.396 194.209 159.792 195.288L136.879 201Z" fill="white"/>
<path opacity="0.4" d="M141.926 115.899C141.884 116.816 142.979 124.122 142.979 124.122C143.738 125.942 139.594 132.149 139.594 132.149C138.699 132.652 138.316 135.773 138.316 135.773C135.511 135.15 129.086 128.692 129.086 128.692C129.086 128.692 128.327 131.339 127.475 137.892C126.622 144.444 132.028 160.008 134.33 170.754C136.632 181.501 135.536 185.781 135.536 185.781C135.468 181.945 134.381 176.91 134.381 176.91C132.863 173.031 131.682 164.092 127.633 158.358C123.583 152.624 123.587 145.893 122.914 140.168C122.24 134.443 122.406 134.937 122.577 129.856C122.7 126.039 122.53 122.218 122.069 118.427C121.733 115.051 121.059 109.112 122.069 106.346C123.08 103.579 125.723 102.935 128.617 105.706C131.512 108.477 132.693 119.838 132.693 121.24C132.693 122.643 132.693 127.025 133.707 128.713C133.707 128.713 139.441 125.781 139.441 124.971C139.441 124.161 139.27 117.003 140.114 116.619L136.743 105.706L143.137 103.434C144.341 104.514 145.38 105.763 146.223 107.143C144.156 111.278 141.969 115.328 141.926 115.899Z" fill="#2E5CFF"/>
<path opacity="0.4" d="M152.678 166.96C152.96 164.403 153.799 158.324 154.332 154.53C153.68 157.492 152.627 158.993 152.627 158.993C152.627 158.993 154.443 137.252 154.622 135.926C154.801 134.6 156.634 128.641 155.961 124.949C156.856 127.004 155.961 143.361 155.961 146.4C155.961 149.44 154 163.452 154.051 165.809C154.089 167.515 155.918 178.381 157.065 183.245C154.601 179.664 152.397 169.531 152.678 166.96Z" fill="#2E5CFF"/>
<path d="M159.785 195.266C158.438 191.387 154.111 168.154 154.06 165.809C154.008 163.465 155.969 149.435 155.969 146.4C155.969 143.365 156.865 127.004 155.969 124.949C155.074 122.894 150.739 117.898 148.04 110.741C147.02 107.942 145.343 105.429 143.151 103.413L136.756 105.685L140.128 116.598C139.276 116.982 139.455 124.139 139.455 124.949C139.455 125.759 133.721 128.692 133.721 128.692C132.706 126.987 132.706 122.622 132.706 121.219C132.706 119.816 131.526 108.452 128.631 105.685C125.737 102.918 123.089 103.553 122.083 106.324C121.077 109.095 121.746 115.029 122.083 118.405C122.545 122.201 122.714 126.026 122.591 129.847C122.42 134.929 122.25 134.426 122.927 140.159C123.605 145.893 123.601 152.637 127.646 158.37C131.692 164.104 132.877 173.044 134.395 176.923C134.395 176.923 137.259 197.628 136.893 201" stroke="#263238" stroke-linecap="round" stroke-linejoin="round"/>
<path d="M133.708 128.692C133.708 128.692 134.718 133.411 136.994 135.773" stroke="#263238" stroke-linecap="round" stroke-linejoin="round"/>
<path d="M134.322 130.844C134.322 130.844 138.585 132.149 140.367 132.23" stroke="#263238" stroke-linecap="round" stroke-linejoin="round"/>
<path d="M139.442 124.948C139.442 124.948 142.477 123.546 144.417 124.39" stroke="#263238" stroke-linecap="round" stroke-linejoin="round"/>
<path d="M140.117 116.598C140.117 116.598 142.478 116.381 142.981 115.2" stroke="#263238" stroke-linecap="round" stroke-linejoin="round"/>
<path d="M128.416 159.573C128.416 159.573 132.952 165.204 134.299 168.069" stroke="#263238" stroke-linecap="round" stroke-linejoin="round"/>
<path d="M154.789 134.928C154.03 139.4 153.016 151.626 152.679 153.817" stroke="#263238" stroke-linecap="round" stroke-linejoin="round"/>
<path d="M156.24 126.497C156.368 130.546 155.387 132.652 155.387 132.652" stroke="#263238" stroke-linecap="round" stroke-linejoin="round"/>
<path d="M121.371 69.8293L152.627 78.0739C152.627 78.0739 141.641 111.414 139.412 115.549L135.686 144.614C135.686 144.614 115.718 143.736 106.536 140.961C106.536 140.961 112.342 110.694 112.653 106.657C112.964 102.62 121.371 69.8293 121.371 69.8293Z" fill="#2E5CFF"/>
<path opacity="0.2" d="M114.651 104.866L121.54 75.4137C121.54 75.4137 124.503 73.943 125.65 72.6002L148.043 78.969C148.043 78.969 148.111 81.1644 149.394 82.5712L138.093 115.136L135.352 139.14C135.352 139.14 131.707 139.43 131.358 142.124C131.358 142.124 119.541 142.764 111.616 140.675C111.616 140.675 110.683 137.763 109.255 135.922L114.651 104.866Z" fill="black" fill-opacity="0.7"/>
<path d="M114.651 104.866L121.54 75.4137C121.54 75.4137 124.503 73.943 125.65 72.6002L148.043 78.969C148.043 78.969 148.111 81.1644 149.394 82.5712L138.093 115.136L135.352 139.14C135.352 139.14 131.707 139.43 131.358 142.124C131.358 142.124 119.541 142.764 111.616 140.675C111.616 140.675 110.683 137.763 109.255 135.922L114.651 104.866Z" stroke="#263238" stroke-linecap="round" stroke-linejoin="round"/>
<path d="M120.385 106.397C120.385 106.397 122.418 98.7235 129.58 100.1C136.742 101.477 132.696 110.933 132.696 110.933C132.696 110.933 132.739 118.563 126.929 117.51C121.89 116.598 119.204 113.831 120.385 106.397Z" fill="#2E5CFF" stroke="#263238" stroke-linecap="round" stroke-linejoin="round"/>
<path d="M124.265 78.2143C124.265 78.2143 122.1 86.9832 121.541 88.6713" stroke="#263238" stroke-linecap="round" stroke-linejoin="round"/>
<path d="M126.121 78.9734L124.859 83.782" stroke="#263238" stroke-linecap="round" stroke-linejoin="round"/>
<path d="M141.931 82.3452L146.241 83.8628L145.768 85.2141H144.421L141.552 84.5406L141.931 82.3452Z" fill="#2E5CFF" stroke="#263238" stroke-linecap="round" stroke-linejoin="round"/>
<path d="M141.212 85.2143L144.418 86.2246L145.092 86.8982L144.418 88.6715L140.705 87.4054L141.212 85.2143Z" fill="#2E5CFF" stroke="#263238" stroke-linecap="round" stroke-linejoin="round"/>
<path d="M140.708 88.2495L144.421 89.2726L143.896 90.6111H141.931L140.119 89.8523L140.708 88.2495Z" fill="#2E5CFF" stroke="#263238" stroke-linecap="round" stroke-linejoin="round"/>
<path d="M140.116 90.6108L142.981 91.7916V92.6314L142.264 93.3092L139.596 92.5504V91.1138L140.116 90.6108Z" fill="#2E5CFF" stroke="#263238" stroke-linecap="round" stroke-linejoin="round"/>
<path d="M142.562 94.418V95.731C142.585 95.8756 142.573 96.0234 142.527 96.1625C142.482 96.3017 142.405 96.4283 142.302 96.5324C142.196 96.5902 142.078 96.6205 141.957 96.6205C141.836 96.6205 141.718 96.5902 141.612 96.5324C141.394 96.4301 141.186 96.2766 140.981 96.1871C140.312 95.9185 139.489 96.2553 138.849 95.8972C138.849 95.083 138.564 93.7913 139.57 93.7657C139.736 93.7785 142.562 94.7164 142.562 94.418Z" fill="#2E5CFF" stroke="#263238" stroke-linecap="round" stroke-linejoin="round"/>
<path d="M141.381 97.7048C141.348 98.0053 141.294 98.3031 141.219 98.5957C141.125 98.9751 140.942 99.3972 140.562 99.4995C140.358 99.5334 140.148 99.5158 139.953 99.4483L137.557 98.8174C137.673 98.3689 137.815 97.9276 137.983 97.4959C138.307 97.0227 138.196 97.0312 138.763 96.9929C139.684 96.9545 140.434 97.8199 141.381 97.7048Z" fill="#2E5CFF" stroke="#263238" stroke-linecap="round" stroke-linejoin="round"/>
<path d="M133.288 79.5652L131.851 85.2136L132.567 85.5504L134.298 79.983L133.288 79.5652Z" fill="#2E5CFF" stroke="#263238" stroke-linecap="round" stroke-linejoin="round"/>
<path d="M115.288 117.498L119.713 118.644L119.354 120.025L118.012 120.145L115.096 119.714L115.288 117.498Z" fill="#2E5CFF" stroke="#263238" stroke-linecap="round" stroke-linejoin="round"/>
<path d="M114.818 120.417L118.096 121.151L118.829 121.765L118.309 123.589L114.502 122.643L114.818 120.417Z" fill="#2E5CFF" stroke="#263238" stroke-linecap="round" stroke-linejoin="round"/>
<path d="M114.576 123.487L118.362 124.186L117.953 125.563L115.996 125.734L114.124 125.133L114.576 123.487Z" fill="#2E5CFF" stroke="#263238" stroke-linecap="round" stroke-linejoin="round"/>
<path d="M114.186 125.887L117.145 126.82L117.217 127.66L116.561 128.393L113.837 127.865L113.713 126.437L114.186 125.887Z" fill="#2E5CFF" stroke="#263238" stroke-linecap="round" stroke-linejoin="round"/>
<path d="M116.946 129.472L117.061 130.781C117.096 130.923 117.097 131.072 117.063 131.215C117.03 131.358 116.963 131.491 116.869 131.604C116.769 131.67 116.653 131.71 116.533 131.72C116.413 131.729 116.292 131.709 116.183 131.659C115.957 131.578 115.756 131.442 115.522 131.373C114.836 131.16 114.043 131.565 113.39 131.263C113.314 130.453 112.926 129.191 113.923 129.093C114.077 129.084 116.971 129.77 116.946 129.472Z" fill="#2E5CFF" stroke="#263238" stroke-linecap="round" stroke-linejoin="round"/>
<path d="M116.054 132.849C116.048 133.159 116.019 133.468 115.968 133.774C115.904 134.157 115.759 134.596 115.393 134.728C115.191 134.78 114.98 134.78 114.779 134.728L112.341 134.302C112.423 133.844 112.532 133.391 112.669 132.947C112.95 132.448 112.839 132.465 113.402 132.38C114.297 132.247 115.116 133.045 116.054 132.849Z" fill="#2E5CFF" stroke="#263238" stroke-linecap="round" stroke-linejoin="round"/>
<path d="M133.71 136.988C133.71 136.988 134.725 125.674 134.725 124.536" stroke="#263238" stroke-linecap="round" stroke-linejoin="round"/>
<path d="M131.687 136.48C131.687 136.48 132.113 130.597 132.19 129.574" stroke="#263238" stroke-linecap="round" stroke-linejoin="round"/>
<path d="M123.777 132.23L122.408 138.927H123.777L124.77 132.23H123.777Z" fill="#2E5CFF" stroke="#263238" stroke-linecap="round" stroke-linejoin="round"/>
<path opacity="0.2" d="M139.486 115.383C136.527 114.764 133.888 113.856 131.936 112.548C131.936 112.548 133.351 116.615 138.369 123.546L135.67 144.614C135.67 144.614 122.639 144.042 112.791 142.358C115.818 133.833 121.317 117.676 120.665 114.475C119.782 110.08 122.899 104.892 122.899 104.892C132.75 103.118 142.303 95.6708 148.86 89.3745C145.522 99.2431 140.965 112.458 139.486 115.383Z" fill="black" fill-opacity="0.7"/>
<path d="M121.371 69.8293L152.627 78.0739C152.627 78.0739 141.641 111.414 139.412 115.549L135.686 144.614C135.686 144.614 115.718 143.736 106.536 140.961C106.536 140.961 112.342 110.694 112.653 106.657C112.964 102.62 121.371 69.8293 121.371 69.8293Z" stroke="#263238" stroke-linecap="round" stroke-linejoin="round"/>
<path d="M138.699 136.199L134.296 168.068C133.315 165.984 130.642 162.429 129.261 160.651C128.75 159.986 128.408 159.572 128.408 159.572L127.628 158.37C123.583 152.637 123.583 145.893 122.909 140.159C122.236 134.425 122.402 134.928 122.573 129.847C122.696 126.033 122.528 122.215 122.069 118.427C121.733 115.05 121.059 109.112 122.069 106.345C122.564 104.99 123.455 104.146 124.572 103.967C125.689 103.788 127.13 104.299 128.617 105.706C131.512 108.473 132.693 119.838 132.693 121.24C132.693 122.643 132.693 127.025 133.707 128.713C133.707 128.692 136.427 133.837 138.699 136.199Z" fill="white"/>
<path opacity="0.4" d="M127.296 156.098C128.217 157.275 128.843 158.971 129.261 160.651C128.75 159.986 128.408 159.572 128.408 159.572L127.628 158.37C123.583 152.637 123.583 145.893 122.909 140.159C122.236 134.425 122.402 134.928 122.573 129.847C122.696 126.033 122.528 122.215 122.069 118.427C121.733 115.05 121.059 109.112 122.069 106.345C122.564 104.99 123.455 104.146 124.572 103.967C126.703 104.572 128.835 106.742 129.577 110.455C130.855 116.687 125.088 111.653 123.753 116.935C122.419 122.216 124.359 123.64 125.156 124.97C125.953 126.3 124.934 129.233 123.753 133.172C122.573 137.111 124.768 152.863 127.296 156.098Z" fill="#2E5CFF"/>
<path d="M138.703 136.199C136.426 133.837 133.711 128.692 133.711 128.692C132.696 126.986 132.696 122.621 132.696 121.219C132.696 119.816 131.515 108.451 128.621 105.684C125.726 102.918 123.079 103.553 122.073 106.324C121.067 109.095 121.736 115.029 122.073 118.405C122.534 122.2 122.704 126.026 122.58 129.847C122.41 134.928 122.239 134.425 122.917 140.159C123.595 145.892 123.59 152.636 127.636 158.37L128.416 159.572C128.416 159.572 132.952 165.204 134.299 168.068" stroke="#263238" stroke-linecap="round" stroke-linejoin="round"/>
<path d="M123.775 122.711C123.775 122.711 127.642 120.712 129.577 120.882" stroke="#263238" stroke-linecap="round" stroke-linejoin="round"/>
<path opacity="0.2" d="M64.7302 68.043C64.7302 68.043 54.9511 57.2748 54.2775 56.6141C53.604 55.9533 53.0967 44.469 51.2381 39.4132C49.3794 34.3573 48.4799 4.67023 48.4799 4.67023C48.4799 4.67023 46.7108 2.47908 41.7232 3.65991C36.7355 4.84075 31.846 2.64533 26.2828 5.85106C20.7197 9.05679 31.5092 54.9089 31.5092 54.9089L42.4607 89.8096L64.7302 68.043Z" fill="black" fill-opacity="0.7"/>
<path d="M71.4492 68.1242C71.4492 68.1242 67.0669 96.1189 62.497 99.8276C59.8582 101.959 55.7445 102.94 52.0954 102.812C49.4524 102.718 47.0481 102.053 45.6328 100.846C42.2608 97.9775 37.5332 96.4599 35.1801 94.6055C32.827 92.7512 32.8184 86.1735 31.3008 80.6061C29.7832 75.0387 27.5878 74.8724 27.0848 69.3093C26.5818 63.7462 24.5526 46.7157 20.8865 41.9881C17.2204 37.2605 17.1351 33.556 15.6175 28.7474C14.0999 23.9389 2.99921 6.54182 2.99921 6.54182L30.0603 1C30.0603 1 32.7204 12.0112 35.568 20.9932C36.9194 25.2561 38.3134 29.0672 39.4814 31.0196C41.7242 34.7961 43.667 38.7429 45.2918 42.8237C48.3526 46.0294 50.0279 53.1314 50.5352 59.3511L57.7822 63.3923C63.3538 64.9142 71.4492 68.1242 71.4492 68.1242Z" fill="white"/>
<path opacity="0.4" d="M71.4485 68.1238C71.4485 68.1238 67.0662 96.1185 62.4963 99.8273C59.8576 101.959 55.7438 102.939 52.0948 102.811C43.441 100.68 41.1135 95.8542 39.9411 94.6862C38.3809 93.1302 36.3304 83.6494 37.4559 78.1332C38.5813 72.617 37.7713 70.575 36.842 67.8808C34.783 61.9127 41.0623 58.6985 41.7103 56.4391C42.3582 54.1798 42.1366 41.5444 39.3102 37.435C37.8097 35.2481 33.9432 23.9769 35.5716 21.0013C36.923 25.2643 38.317 29.0753 39.485 31.0278C41.7278 34.8043 43.6706 38.7511 45.2954 42.8318C48.3562 46.0376 50.0315 53.1396 50.5388 59.3592L57.7858 63.4005C63.3532 64.9138 71.4485 68.1238 71.4485 68.1238Z" fill="#2E5CFF"/>
<path d="M38.4011 66.155C38.4011 66.155 36.875 67.9497 35.5279 67.9497" stroke="#263238" stroke-linecap="round" stroke-linejoin="round"/>
<path d="M41.7231 72.2208C41.7231 72.2208 40.0818 75.7078 37.4601 76.4837" stroke="#263238" stroke-linecap="round" stroke-linejoin="round"/>
<path d="M38.8091 92.6575C38.8091 92.6575 42.5222 91.0546 43.1104 88.3562" stroke="#263238" stroke-linecap="round" stroke-linejoin="round"/>
<path d="M57.7905 63.3972C57.7905 63.3972 56.8612 64.578 56.8612 65.5286" stroke="#263238" stroke-linecap="round" stroke-linejoin="round"/>
<path d="M30.0774 1C30.0774 1 35.8664 24.9449 39.4985 31.0366C41.7413 34.8131 43.6841 38.76 45.3088 42.8407C48.3696 46.0464 50.045 53.1528 50.5522 59.3724L57.7992 63.4136C63.3624 64.9312 71.4406 68.137 71.4406 68.137C71.4406 68.137 67.0583 96.1317 62.4885 99.8404C57.9186 103.549 49.0389 103.703 45.6286 100.838C42.2182 97.9733 37.529 96.4514 35.1758 94.597C32.8227 92.7426 32.8142 86.1649 31.2966 80.5975C29.779 75.0301 27.5836 74.8639 27.0805 69.3008C26.5775 63.7376 24.5483 46.7072 20.8822 41.9796C17.2161 37.252 17.1308 33.5475 15.6132 28.7389C14.0956 23.9303 2.99921 6.54182 2.99921 6.54182" stroke="#263238" stroke-linecap="round" stroke-linejoin="round"/>
<path d="M81.7037 66.308L36.9471 135.201L47.5107 136.378L79.6063 137.712L82.8931 76.4325L81.7037 66.308Z" fill="#263238" stroke="#263238" stroke-linecap="round" stroke-linejoin="round"/>
<path d="M81.7037 66.3036L77.5687 136.535L36.9471 135.201L40.1529 81.3859L41.1504 64.6752L58.8501 65.3871L81.7037 66.3036Z" fill="#757575"/>
<path d="M71.486 128.448C74.217 128.448 76.431 126.234 76.431 123.503C76.431 120.772 74.217 118.558 71.486 118.558C68.7549 118.558 66.541 120.772 66.541 123.503C66.541 126.234 68.7549 128.448 71.486 128.448Z" fill="#BFBFBF" stroke="#263238" stroke-miterlimit="10"/>
<path d="M70.093 120.221L73.4437 120.66" stroke="#263238" stroke-linecap="round" stroke-linejoin="round"/>
<path d="M69.1946 121.035L74.2291 121.525" stroke="#263238" stroke-linecap="round" stroke-linejoin="round"/>
<path d="M68.6347 125.997L73.6735 126.488" stroke="#263238" stroke-linecap="round" stroke-linejoin="round"/>
<path d="M70.8381 122.156C70.9764 122.191 71.1228 122.17 71.2466 122.1C71.3705 122.029 71.4623 121.913 71.5031 121.777L71.8782 121.815L71.4988 125.375L70.9404 125.315L71.2302 122.599L70.804 122.553L70.8381 122.156Z" fill="#263238"/>
<path d="M72.7038 122.306C72.9254 122.306 73.0278 122.472 73.0022 122.707V122.749L72.7848 122.728V122.69C72.7848 122.587 72.7592 122.54 72.6867 122.532C72.6143 122.523 72.5674 122.562 72.5588 122.664C72.5503 122.766 72.5844 122.856 72.7208 123.001C72.7901 123.059 72.8444 123.134 72.8792 123.217C72.9141 123.301 72.9284 123.392 72.9212 123.482C72.8956 123.717 72.7677 123.836 72.5418 123.811C72.3159 123.785 72.2178 123.64 72.2391 123.41V123.32L72.4523 123.342V123.448C72.4523 123.551 72.4821 123.593 72.5546 123.602C72.627 123.61 72.6782 123.576 72.6867 123.474C72.6953 123.372 72.6611 123.282 72.5247 123.137C72.4555 123.079 72.4012 123.004 72.3663 122.92C72.3315 122.837 72.3171 122.746 72.3244 122.655C72.3542 122.4 72.4864 122.263 72.7038 122.306Z" fill="#263238"/>
<path d="M73.1013 122.366L73.809 122.438L73.7834 122.647L73.5447 122.622L73.4125 123.866L73.1866 123.845L73.3187 122.596L73.08 122.57L73.1013 122.366Z" fill="#263238"/>
<path d="M61.1203 69.4213L53.1903 67.6908C52.9855 67.6461 52.7834 67.7759 52.7387 67.9806L51.6599 72.9244C51.6152 73.1291 51.7449 73.3313 51.9497 73.3759L59.8797 75.1064C60.0844 75.1511 60.2866 75.0213 60.3312 74.8166L61.4101 69.8729C61.4547 69.6681 61.325 69.466 61.1203 69.4213Z" fill="white" stroke="#263238" stroke-linecap="round" stroke-linejoin="round"/>
<path d="M55.7519 72.4972C55.75 72.4631 55.7413 72.4298 55.7263 72.3991C55.7221 72.3823 55.7221 72.3648 55.7263 72.348C55.7328 72.3351 55.7433 72.3247 55.7561 72.3181C55.8712 72.2158 55.7306 72.0794 55.6197 72.0538C55.5814 72.0443 55.5413 72.0448 55.5032 72.0552C55.4651 72.0657 55.4304 72.0858 55.4023 72.1135L55.4918 71.781L55.884 71.8663L55.9267 71.6616L55.3384 71.5338C55.3259 71.5623 55.3173 71.5924 55.3128 71.6233C55.3128 71.6531 55.3512 71.6616 55.3512 71.6957C55.3512 71.7298 55.3512 71.7256 55.3512 71.7426C55.3589 71.7676 55.3756 71.7889 55.398 71.8023C55.4194 71.8023 55.4407 71.8407 55.4364 71.8663C55.4393 71.8745 55.4393 71.8836 55.4364 71.8918C55.4203 71.931 55.3918 71.9639 55.3554 71.9856C55.3386 71.9889 55.3235 71.9979 55.3128 72.0112V72.0368C55.3128 72.0666 55.2787 72.0837 55.2531 72.1007C55.2275 72.1178 55.1636 72.2542 55.138 72.348L55.3512 72.3949V72.3522C55.3725 72.2499 55.4279 72.2243 55.4961 72.2371C55.5643 72.2499 55.6069 72.3011 55.5814 72.4034L55.5131 72.7188C55.5131 72.8169 55.4407 72.8467 55.3682 72.8297C55.2957 72.8126 55.2616 72.77 55.2829 72.6677L55.3128 72.5355L55.0996 72.4887L55.0741 72.608C55.0576 72.6543 55.0511 72.7035 55.0551 72.7525C55.0592 72.8014 55.0736 72.8489 55.0974 72.8919C55.1213 72.9348 55.154 72.9722 55.1935 73.0014C55.2329 73.0307 55.2782 73.0512 55.3262 73.0616C55.3742 73.072 55.4238 73.072 55.4719 73.0617C55.5199 73.0514 55.5651 73.0309 55.6046 73.0017C55.6441 72.9725 55.6769 72.9352 55.7008 72.8923C55.7248 72.8494 55.7392 72.8019 55.7433 72.753C55.7585 72.6685 55.7614 72.5824 55.7519 72.4972Z" fill="#263238"/>
<path d="M58.5376 73.0936C58.5337 73.0598 58.5251 73.0268 58.512 72.9955C58.5079 72.9787 58.5079 72.9611 58.512 72.9443C58.5186 72.9315 58.529 72.9211 58.5419 72.9145C58.6527 72.8122 58.512 72.6758 58.4055 72.6502C58.3672 72.6407 58.327 72.6412 58.289 72.6516C58.2509 72.6621 58.2161 72.6821 58.1881 72.7099L58.2776 72.3774L58.6698 72.4626L58.7124 72.258L58.1241 72.1301C58.1098 72.158 58.1011 72.1884 58.0985 72.2197C58.0985 72.2495 58.1326 72.258 58.1369 72.2921C58.1412 72.3262 58.1369 72.322 58.1369 72.339C58.1447 72.364 58.1614 72.3852 58.1838 72.3987C58.2051 72.3987 58.2264 72.4371 58.2222 72.4626C58.2179 72.4882 58.2222 72.4626 58.2222 72.4882C58.2058 72.5286 58.1756 72.5619 58.1369 72.582C58.1218 72.5864 58.1084 72.5953 58.0985 72.6076C58.0985 72.6076 58.0985 72.6076 58.0985 72.6332C58.0985 72.6587 58.0687 72.68 58.0431 72.6971C58.0175 72.7141 57.9536 72.8506 57.928 72.9443L58.1412 72.9912V72.9486C58.1625 72.8463 58.2179 72.8207 58.2861 72.8335C58.3543 72.8463 58.3927 72.8975 58.3714 72.9998L58.3032 73.3152C58.3032 73.4133 58.2307 73.4431 58.1582 73.4261C58.0857 73.409 58.0516 73.3664 58.073 73.2641L58.1028 73.1319L57.8897 73.085L57.8641 73.2044C57.8512 73.2492 57.8477 73.2962 57.8537 73.3425C57.8597 73.3888 57.8751 73.4333 57.8991 73.4733C57.923 73.5134 57.9549 73.5481 57.9927 73.5754C58.0306 73.6026 58.0737 73.6218 58.1192 73.6317C58.1648 73.6417 58.212 73.6421 58.2577 73.6331C58.3035 73.6241 58.3469 73.6058 58.3854 73.5793C58.4238 73.5529 58.4563 73.5188 58.4811 73.4792C58.5058 73.4397 58.5221 73.3955 58.5291 73.3493C58.5462 73.2651 58.549 73.1787 58.5376 73.0936Z" fill="#263238"/>
<path d="M57.2888 72.7786H57.3101C57.3101 72.7573 57.3101 72.736 57.3101 72.7062H57.4039L57.4763 72.3779C57.4927 72.3313 57.499 72.2816 57.4948 72.2324C57.4906 72.1831 57.4759 72.1353 57.4519 72.0921C57.4278 72.0489 57.3948 72.0113 57.3551 71.9817C57.3154 71.9522 57.2699 71.9315 57.2216 71.9208C57.1733 71.9102 57.1233 71.9099 57.0749 71.9201C57.0265 71.9302 56.9808 71.9505 56.9408 71.9796C56.9008 72.0087 56.8675 72.0459 56.8429 72.0889C56.8184 72.1318 56.8033 72.1795 56.7985 72.2287V72.2884C56.8284 72.314 56.8454 72.3566 56.8753 72.3779C56.9051 72.3992 56.952 72.3779 56.9392 72.4504C56.9264 72.5229 56.9136 72.5101 56.9392 72.5314C56.9648 72.5527 56.9691 72.5314 56.9733 72.5612C56.9785 72.568 56.9813 72.5762 56.9813 72.5847C56.9813 72.5932 56.9785 72.6014 56.9733 72.6081C56.9733 72.6081 56.9435 72.6081 56.9392 72.6465C56.935 72.6849 56.9392 72.7104 56.9136 72.719C56.8881 72.7275 56.8326 72.6678 56.7858 72.6721C56.769 72.677 56.7538 72.6863 56.7418 72.699C56.7298 72.7117 56.7214 72.7275 56.7175 72.7445C56.6958 72.817 56.6801 72.8912 56.6707 72.9662C56.6551 73.0113 56.6497 73.0593 56.6548 73.1067C56.66 73.1541 56.6755 73.1998 56.7004 73.2406C56.7252 73.2813 56.7587 73.316 56.7985 73.3423C56.8384 73.3685 56.8835 73.3857 56.9307 73.3925C56.9791 73.4055 57.0298 73.4077 57.0792 73.3988C57.1286 73.39 57.1754 73.3704 57.2163 73.3414C57.2541 73.3088 57.2858 73.2698 57.3101 73.2263C57.3293 73.2045 57.3399 73.1764 57.3399 73.1474C57.3399 73.1184 57.3293 73.0903 57.3101 73.0685H57.2888L57.2589 72.9662C57.2589 72.9662 57.2589 72.9662 57.2888 72.9406C57.3186 72.9151 57.2888 72.8596 57.3314 72.8298C57.374 72.8 57.2803 72.7872 57.2888 72.7786ZM57.1097 73.0685C57.0884 73.1708 57.033 73.2007 56.9605 73.1836C56.8881 73.1666 56.854 73.1197 56.8753 73.0174L57.0458 72.25C57.0671 72.1477 57.1183 72.1179 57.1907 72.1349C57.2632 72.152 57.2973 72.1989 57.276 72.3012L57.1097 73.0685Z" fill="#263238"/>
<path d="M57.6673 73.3079L57.6204 73.5253L57.403 73.4784L57.4498 73.261L57.6673 73.3079Z" fill="#263238"/>
<path d="M59.4511 72.9281C59.4767 72.9281 59.4767 72.8301 59.4852 72.796C59.5016 72.7493 59.5079 72.6997 59.5036 72.6504C59.4994 72.6011 59.4848 72.5533 59.4607 72.5101C59.4366 72.4669 59.4037 72.4293 59.364 72.3998C59.3243 72.3703 59.2788 72.3495 59.2305 72.3389C59.1822 72.3282 59.1322 72.328 59.0838 72.3381C59.0354 72.3482 58.9897 72.3685 58.9497 72.3976C58.9097 72.4267 58.8763 72.464 58.8518 72.5069C58.8273 72.5499 58.8121 72.5975 58.8074 72.6468L58.7434 72.9324C58.7989 72.9835 58.7435 73.0645 58.769 73.1242C58.7946 73.1839 58.769 73.1242 58.769 73.1498C58.769 73.1754 58.7051 73.1882 58.7051 73.2223C58.7051 73.2223 58.7051 73.2564 58.7051 73.2223C58.7051 73.2223 58.671 73.2734 58.6497 73.299C58.6362 73.3192 58.6288 73.3429 58.6284 73.3672C58.612 73.4139 58.6057 73.4635 58.6099 73.5127C58.6141 73.562 58.6288 73.6099 58.6529 73.6531C58.6769 73.6963 58.7099 73.7339 58.7496 73.7634C58.7893 73.7929 58.8348 73.8137 58.8831 73.8243C58.9314 73.8349 58.9814 73.8352 59.0298 73.8251C59.0782 73.8149 59.1239 73.7946 59.1639 73.7655C59.2039 73.7364 59.2372 73.6992 59.2618 73.6562C59.2863 73.6133 59.3014 73.5656 59.3062 73.5164L59.3573 73.2819C59.3573 73.2223 59.434 73.0645 59.3573 73.0176C59.2806 72.9707 59.3232 73.0176 59.3147 72.9878C59.3095 72.9779 59.3067 72.967 59.3067 72.9558C59.3067 72.9447 59.3095 72.9337 59.3147 72.9238C59.3658 72.8812 59.4042 72.9537 59.4511 72.9281ZM59.1911 73.3032C59.1911 73.3288 59.1484 73.3374 59.1271 73.3715C59.1107 73.4138 59.1006 73.4583 59.0973 73.5036C59.076 73.6059 59.0205 73.6315 58.9523 73.6187C58.8841 73.6059 58.8415 73.5548 58.8671 73.4525C58.8671 73.4226 58.9054 73.3374 58.8969 73.3118C58.8884 73.2862 58.8543 73.3118 58.8372 73.2606C58.8244 73.216 58.8244 73.1688 58.8372 73.1242C58.8393 73.1144 58.8393 73.1042 58.8372 73.0944C58.8372 73.0944 58.8159 73.056 58.8372 73.0389C58.8372 73.0389 58.8585 73.0219 58.8372 73.0389C58.8372 73.0389 58.8372 72.9835 58.8372 72.9452C58.8372 72.9068 58.8372 72.9452 58.8372 72.9452C58.9736 72.9963 58.9694 72.7874 58.9907 72.7022C59.012 72.6169 59.0674 72.57 59.1356 72.5871C59.2038 72.6041 59.2422 72.651 59.2209 72.7491C59.192 72.8359 59.1748 72.9262 59.1697 73.0176C59.1876 73.0204 59.2039 73.029 59.2163 73.0422C59.2286 73.0553 59.2363 73.0722 59.2379 73.0901C59.2337 73.1126 59.2337 73.1358 59.2379 73.1583C59.2379 73.1583 59.2379 73.1967 59.2379 73.2137C59.2379 73.2308 59.2124 73.2137 59.1953 73.2137C59.1835 73.2184 59.1731 73.2259 59.1649 73.2355C59.1567 73.2452 59.1511 73.2568 59.1484 73.2691L59.1911 73.3032Z" fill="#263238"/>
<path d="M57.0644 69.8293L58.5053 70.1448" stroke="#263238" stroke-linecap="round" stroke-linejoin="round"/>
<path d="M53.791 69.1125L56.3487 69.6753" stroke="#263238" stroke-linecap="round" stroke-linejoin="round"/>
<path d="M53.5774 70.1021L55.2655 70.4687" stroke="#263238" stroke-linecap="round" stroke-linejoin="round"/>
<path opacity="0.4" d="M38.8066 134.579C41.0467 133.993 43.3503 133.684 45.6656 133.658C49.8263 133.556 52.4863 134.344 55.8967 132.656C59.307 130.968 61.5195 134.008 64.7806 132.319C68.0418 130.631 69.5551 127.929 71.4394 127.988C73.3236 128.048 76.1286 97.8537 77.0323 92.6572C77.9361 87.4606 79.8587 72.9752 80.5194 70.0338L76.8064 135.5L38.8066 134.579Z" fill="white"/>
<path d="M38.9869 121.696L49.3842 134.344L38.4029 133.662L38.9869 121.696Z" fill="#2E5CFF" stroke="#263238" stroke-linecap="round" stroke-linejoin="round"/>
<path d="M66.5808 96.6856L66.4146 101.498C66.3914 102.17 66.2363 102.83 65.9579 103.442C65.6795 104.054 65.2833 104.604 64.792 105.063C64.3008 105.521 63.724 105.878 63.0947 106.114C62.4653 106.349 61.7958 106.458 61.1243 106.435L56.1792 106.26C55.5058 106.237 54.8436 106.081 54.2307 105.801C53.6177 105.522 53.066 105.124 52.6073 104.63C52.1486 104.137 51.7919 103.557 51.5578 102.925C51.3236 102.294 51.2165 101.622 51.2428 100.949L51.4644 94.682C51.5122 93.3265 52.0964 92.0455 53.0884 91.1206C54.0805 90.1957 55.3992 89.7026 56.7547 89.7498L61.6997 89.9203C61.8362 89.9203 61.9726 89.9203 62.126 89.9502C61.4341 90.6158 60.9973 91.5029 60.8917 92.4572C60.7861 93.4115 61.0183 94.3726 61.5479 95.1734C62.0776 95.9742 62.8712 96.5641 63.7907 96.8404C64.7102 97.1166 65.6975 97.0619 66.5808 96.6856Z" fill="#2E5CFF" stroke="#263238" stroke-linecap="round" stroke-linejoin="round"/>
<path d="M67.473 92.529C67.4575 92.9917 67.3052 93.4394 67.0353 93.8155C66.7654 94.1917 66.3899 94.4793 65.9565 94.642C65.5231 94.8047 65.0512 94.8352 64.6004 94.7297C64.1497 94.6242 63.7403 94.3873 63.4242 94.0491C63.1081 93.7109 62.8994 93.2865 62.8244 92.8297C62.7495 92.3728 62.8118 91.904 63.0033 91.4826C63.1949 91.0611 63.5071 90.7059 63.9006 90.462C64.294 90.218 64.751 90.0962 65.2136 90.112C65.8333 90.1342 66.4189 90.401 66.8424 90.854C67.2658 91.307 67.4925 91.9093 67.473 92.529Z" fill="#2E5CFF" stroke="#263238" stroke-linecap="round" stroke-linejoin="round"/>
<path opacity="0.4" d="M52.6503 101.546L59.9186 95.3302C59.9186 95.3302 58.9978 92.0008 59.9186 90.9479H56.4273C55.5865 90.9451 54.7763 91.2634 54.1623 91.8379C53.5483 92.4123 53.1767 93.1994 53.1235 94.0385L52.6503 101.546Z" fill="white"/>
<path opacity="0.4" d="M64.1435 92.6571L65.6995 90.9519C65.6995 90.9519 64.7318 90.2997 64.1435 90.9519C63.5553 91.6042 64.1435 92.6571 64.1435 92.6571Z" fill="white"/>
<path d="M63.3821 129.792L75.1009 130.299" stroke="#263238" stroke-linecap="round" stroke-linejoin="round"/>
<path d="M59.3248 130.972L75.102 131.816" stroke="#263238" stroke-linecap="round" stroke-linejoin="round"/>
<path d="M70.9706 134.344H75.1014" stroke="#263238" stroke-linecap="round" stroke-linejoin="round"/>
<path opacity="0.2" d="M56.6095 91.3013C50.5647 94.2087 44.0168 84.0245 41.7234 82.622C41.1579 82.2651 40.6308 81.8508 40.1503 81.3858L41.1479 64.675L58.8433 65.387C58.7282 67.8765 58.7666 70.6261 59.3207 72.2077C60.5144 75.6564 62.6501 88.3983 56.6095 91.3013Z" fill="black" fill-opacity="0.7"/>
<path opacity="0.4" d="M49.8352 91.8215C49.8352 91.8215 54.6694 93.9188 56.8605 92.6741C59.0517 91.4293 61.4133 89.0506 61.7501 83.7688C61.7501 83.7688 64.6276 91.2076 58.8257 93.4371C53.0239 95.6667 49.8352 91.8215 49.8352 91.8215Z" fill="white"/>
<path opacity="0.4" d="M47.9524 94.7968C47.9524 94.7968 57.7571 97.4312 61.9519 92.6653C61.9519 92.6653 61.3892 95.3126 56.8619 96.0756C52.3347 96.8387 47.9524 94.7968 47.9524 94.7968Z" fill="white"/>
<path opacity="0.4" d="M63.7214 77.7663C62.9754 76.4405 63.8919 88.3554 63.8919 88.3554C63.8919 88.3554 65.239 80.486 63.7214 77.7663Z" fill="white"/>
<path d="M81.7037 66.3036L77.5687 136.535L36.9471 135.201L40.1529 81.3859L41.1504 64.6752L58.8501 65.3871L81.7037 66.3036Z" stroke="#263238" stroke-linecap="round" stroke-linejoin="round"/>
<path opacity="0.4" d="M79.6478 136.911L78.1685 136.536L81.7025 72.2208L82.3291 76.4667L79.6478 136.911Z" fill="white"/>
<path d="M56.6081 91.3017C56.0491 91.5988 55.4275 91.7587 54.7945 91.7684C54.1615 91.778 53.5354 91.637 52.9676 91.3571C51.9849 90.8415 51.192 90.0262 50.7039 89.0296C49.0201 85.9944 44.463 79.0799 43.6232 77.0934C42.7834 75.1068 40.9248 69.4883 39.0704 67.1309C37.216 64.7735 36.2014 61.2267 36.2014 61.2267L35.5279 26.8248C36.5382 31.7997 39.3219 37.4481 39.3219 37.4481C41.7404 38.7065 43.7954 40.5648 45.29 42.8449C45.7251 43.3083 46.1148 43.8122 46.4538 44.3498C49.2077 48.6127 50.5419 56.286 50.6869 62.2541C50.8574 69.0023 53.0486 72.0588 56.5911 77.9374C60.1336 83.816 58.9101 89.993 56.6081 91.3017Z" fill="white"/>
<path opacity="0.4" d="M56.6105 91.3013C56.0492 91.5912 55.4284 91.7471 54.7967 91.7567C54.1651 91.7663 53.5398 91.6294 52.9699 91.3567C54.9053 90.8281 57.446 89.8349 56.862 88.3727C55.9455 86.0366 53.2641 89.5024 51.917 88.3727C50.5699 87.243 45.676 80.7634 48.7837 77.9115C51.8914 75.0595 50.9152 70.2765 48.7837 68.9294C46.6522 67.5824 48.0377 64.3724 48.7112 59.3208C49.1375 56.2643 47.6754 49.3413 46.4732 44.3451C49.2271 48.608 50.5614 56.2813 50.7063 62.2494C50.8768 68.9977 53.068 72.0542 56.6105 77.9328C60.153 83.8113 58.9124 90.0736 56.6105 91.3013Z" fill="#2E5CFF"/>
<path d="M35.5279 26.8033C36.5382 31.7782 39.3219 37.4266 39.3219 37.4266C41.7404 38.6851 43.7954 40.5433 45.29 42.8235C48.8325 46.5322 50.5206 55.4716 50.6869 62.2155C50.8531 68.9595 53.0486 72.0203 56.5911 77.8989C60.1336 83.7775 59.1488 89.9076 56.5911 91.3015C54.8092 92.2778 52.375 92.0646 50.6869 89.0294C48.9988 85.9942 44.446 79.0797 43.6062 77.0932C42.7664 75.1067 40.9077 69.4881 39.0533 67.1307C37.199 64.7733 36.1844 61.2265 36.1844 61.2265" stroke="#263238" stroke-linecap="round" stroke-linejoin="round"/>
<path d="M46.481 76.4671C46.481 76.4671 49.2349 76.2199 50.4967 75.1882" stroke="#263238" stroke-linecap="round" stroke-linejoin="round"/>
<path d="M35.1939 61.905C35.1939 61.905 34.6568 63.1838 37.4703 64.4627" stroke="#263238" stroke-linecap="round" stroke-linejoin="round"/>
</svg>
