<svg width="67" height="17" viewBox="0 0 67 17" fill="none" xmlns="http://www.w3.org/2000/svg">
<path d="M0.512 0.964H9.668V3.232H2.885V7.537H8.996V9.763H2.885V16H0.512V0.964ZM12.6557 3.883C12.2077 3.883 11.8297 3.729 11.5217 3.421C11.2277 3.113 11.0807 2.742 11.0807 2.308C11.0807 1.874 11.2277 1.503 11.5217 1.195C11.8297 0.886999 12.2077 0.732999 12.6557 0.732999C13.0897 0.732999 13.4537 0.886999 13.7477 1.195C14.0557 1.503 14.2097 1.874 14.2097 2.308C14.2097 2.742 14.0557 3.113 13.7477 3.421C13.4537 3.729 13.0897 3.883 12.6557 3.883ZM11.4797 16V5.71H13.8107V16H11.4797ZM18.5412 7.096H18.6672C18.9752 6.606 19.4092 6.2 19.9692 5.878C20.5432 5.542 21.1872 5.374 21.9012 5.374C23.2032 5.374 24.1762 5.766 24.8202 6.55C25.4642 7.32 25.7862 8.349 25.7862 9.637V16H23.4552V9.952C23.4552 9.056 23.2452 8.433 22.8252 8.083C22.4192 7.719 21.8802 7.537 21.2082 7.537C20.8022 7.537 20.4452 7.621 20.1372 7.789C19.8292 7.957 19.5632 8.188 19.3392 8.482C19.1152 8.762 18.9472 9.091 18.8352 9.469C18.7232 9.833 18.6672 10.218 18.6672 10.624V16H16.3362V5.71H18.5412V7.096ZM28.6469 7.768H26.8409V5.71H28.6469V2.56H30.9779V5.71H33.5189V7.768H30.9779V12.346C30.9779 12.598 31.0059 12.829 31.0619 13.039C31.1179 13.249 31.2019 13.424 31.3139 13.564C31.5519 13.83 31.8529 13.963 32.2169 13.963C32.4409 13.963 32.6159 13.949 32.7419 13.921C32.8679 13.879 33.0009 13.823 33.1409 13.753L33.8549 15.811C33.5609 15.923 33.2529 16.007 32.9309 16.063C32.6089 16.133 32.2449 16.168 31.8389 16.168C31.3489 16.168 30.9149 16.091 30.5369 15.937C30.1589 15.783 29.8299 15.573 29.5499 15.307C28.9479 14.705 28.6469 13.886 28.6469 12.85V7.768ZM44.8809 13.543C44.4469 14.341 43.8309 15.006 43.0329 15.538C42.2349 16.07 41.2549 16.336 40.0929 16.336C39.3229 16.336 38.6089 16.203 37.9509 15.937C37.3069 15.657 36.7469 15.272 36.2709 14.782C35.7949 14.292 35.4239 13.718 35.1579 13.06C34.8919 12.388 34.7589 11.653 34.7589 10.855C34.7589 10.113 34.8849 9.413 35.1369 8.755C35.3889 8.083 35.7389 7.502 36.1869 7.012C36.6489 6.508 37.2019 6.109 37.8459 5.815C38.4899 5.521 39.2039 5.374 39.9879 5.374C40.7859 5.374 41.4929 5.507 42.1089 5.773C42.7389 6.039 43.2709 6.41 43.7049 6.886C44.1389 7.362 44.4679 7.936 44.6919 8.608C44.9299 9.28 45.0489 10.015 45.0489 10.813C45.0489 10.883 45.0489 10.946 45.0489 11.002C45.0349 11.072 45.0279 11.135 45.0279 11.191C45.0139 11.247 45.0069 11.303 45.0069 11.359H37.0899C37.1319 11.849 37.2509 12.276 37.4469 12.64C37.6429 13.004 37.8809 13.305 38.1609 13.543C38.4549 13.781 38.7769 13.956 39.1269 14.068C39.4769 14.18 39.8199 14.236 40.1559 14.236C40.8279 14.236 41.3809 14.075 41.8149 13.753C42.2489 13.431 42.6059 13.032 42.8859 12.556L44.8809 13.543ZM42.7179 9.574C42.6899 9.364 42.6199 9.133 42.5079 8.881C42.4099 8.615 42.2489 8.377 42.0249 8.167C41.8149 7.943 41.5349 7.754 41.1849 7.6C40.8489 7.446 40.4359 7.369 39.9459 7.369C39.2739 7.369 38.6929 7.572 38.2029 7.978C37.7269 8.37 37.4049 8.902 37.2369 9.574H42.7179ZM46.8108 0.964H49.1418V9.679H49.2258L53.1738 5.71H56.0928V5.836L52.1868 9.7L56.3448 15.874V16H53.5728L50.5278 11.317L49.1418 12.682V16H46.8108V0.964ZM57.4338 0.964H59.7648V9.679H59.8488L63.7968 5.71H66.7158V5.836L62.8098 9.7L66.9678 15.874V16H64.1958L61.1508 11.317L59.7648 12.682V16H57.4338V0.964Z" fill="#2E5CFF"/>
</svg>
