<svg width="19" height="20" viewBox="0 0 19 20" fill="none" xmlns="http://www.w3.org/2000/svg">
<path d="M10.6377 9.99599L1.04865 19.4051C0.539949 19.0152 0.243178 18.4096 0.24686 17.7688V2.23961C0.243255 1.59875 0.539949 0.993085 1.04865 0.603271L10.6377 9.99599Z" fill="#2196F3"/>
<path d="M18.2468 9.99598C18.2469 10.7407 17.847 11.4281 17.1995 11.796L14.1887 13.4651L10.6377 9.99598L14.1886 6.52686L17.1995 8.21229C17.8429 8.5764 18.2424 9.25677 18.2468 9.99598Z" fill="#FFC107"/>
<path d="M14.1886 13.465L3.25768 19.5686C2.95493 19.7282 2.61811 19.8124 2.27586 19.814C1.91795 19.8209 1.56573 19.7242 1.26129 19.5358C1.18819 19.4959 1.11716 19.4522 1.04858 19.4049L10.6377 9.99585L14.1886 13.465Z" fill="#F44336"/>
<path d="M14.1886 6.52683L10.6377 9.99588L1.04865 0.603164C1.1173 0.555914 1.18825 0.512192 1.26135 0.472229C1.87222 0.102052 2.63505 0.0895491 3.25774 0.439476L14.1886 6.52683Z" fill="#4CAF50"/>
</svg>
