<svg width="237" height="200" viewBox="0 0 237 200" fill="none" xmlns="http://www.w3.org/2000/svg">
<path d="M64.3983 54.741C66.0279 47.8368 61.7519 40.9188 54.8477 39.2892C47.9434 37.6597 41.0254 41.9356 39.3959 48.8399C37.7663 55.7441 42.0423 62.6621 48.9465 64.2917C55.8508 65.9212 62.7688 61.6452 64.3983 54.741Z" fill="#E0E0E0"/>
<path d="M62.5234 60.8766C67.5396 55.8604 67.5396 47.7276 62.5234 42.7114C57.5072 37.6952 49.3744 37.6952 44.3582 42.7114C39.342 47.7276 39.342 55.8604 44.3582 60.8766C49.3744 65.8928 57.5072 65.8928 62.5234 60.8766Z" fill="#E6E6E6"/>
<path d="M53.4421 61.4086C58.7523 61.4086 63.0571 57.1038 63.0571 51.7936C63.0571 46.4833 58.7523 42.1785 53.4421 42.1785C48.1318 42.1785 43.827 46.4833 43.827 51.7936C43.827 57.1038 48.1318 61.4086 53.4421 61.4086Z" fill="#F0F0F0"/>
<path d="M57.9395 54.0855C58.3093 56.2139 56.8465 57.6356 54.2168 57.8575L54.1757 59.6162H52.5732L52.6225 57.8575C51.2462 57.7533 49.9128 57.3314 48.7272 56.6248L49.4504 54.6443C50.415 55.2875 51.5196 55.6904 52.6718 55.8194L52.7458 53.1239C51.1761 52.672 49.4586 52.0803 49.1052 50.149C48.7354 48.0206 50.2228 46.5824 52.9101 46.3934V44.6348H54.5455V46.4099C55.6316 46.503 56.6879 46.8132 57.6519 47.3221L56.978 49.2451C56.2069 48.7907 55.3459 48.5103 54.4551 48.4233L54.3894 51.2338C55.9343 51.7105 57.6108 52.2528 57.9395 54.0855ZM52.7869 50.7983L52.8526 48.4972C51.9733 48.6698 51.5459 49.1629 51.6363 49.771C51.7267 50.3791 52.1705 50.5517 52.7869 50.7983ZM55.4166 54.5046C55.3427 54.0361 54.9235 53.7485 54.3236 53.5431L54.2743 55.729C55.1125 55.5565 55.5317 55.1127 55.4166 54.5046Z" fill="white"/>
<path d="M142.036 51.6722H87.7808V194.443H142.036V51.6722Z" fill="#2E5CFF"/>
<path opacity="0.5" d="M142.208 51.6722H101.751V194.443H142.208V51.6722Z" fill="black"/>
<path d="M212.916 100.347H158.661V194.435H212.916V100.347Z" fill="#2E5CFF"/>
<path opacity="0.3" d="M212.916 100.126H172.459V194.443H212.916V100.126Z" fill="black"/>
<path d="M70.8106 77.1315H16.5555V194.435H70.8106V77.1315Z" fill="#2E5CFF"/>
<path opacity="0.4" d="M70.8107 76.8439H30.3535V194.435H70.8107V76.8439Z" fill="black"/>
<path d="M37.6757 194.592C37.6017 196.342 43.1324 197.994 50.0026 198.29C56.8729 198.586 62.5515 197.402 62.6255 195.652C62.6994 193.901 57.1687 192.258 50.2985 191.962C43.4283 191.666 37.7496 192.85 37.6757 194.592Z" fill="#2E5CFF"/>
<path d="M37.8099 191.42L37.6758 194.581L62.6524 195.641L62.7866 192.48L37.8099 191.42Z" fill="#2E5CFF"/>
<path d="M37.8072 191.428C37.7332 193.178 43.2639 194.83 50.1342 195.126C57.0044 195.422 62.683 194.238 62.757 192.488C62.831 190.738 57.3003 189.094 50.43 188.798C43.5598 188.502 37.8812 189.686 37.8072 191.428Z" fill="#2E5CFF"/>
<path opacity="0.4" d="M37.8072 191.428C37.7332 193.178 43.2639 194.83 50.1342 195.126C57.0044 195.422 62.683 194.238 62.757 192.488C62.831 190.738 57.3003 189.094 50.43 188.798C43.5598 188.502 37.8812 189.686 37.8072 191.428Z" fill="white"/>
<path d="M39.4014 191.379C39.4014 191.492 39.439 191.601 39.5083 191.691C40.3301 190.664 44.9075 190.047 50.3642 190.286C55.821 190.524 60.3326 191.51 61.0476 192.603C61.129 192.522 61.1762 192.413 61.1791 192.299C61.2284 191.116 56.3962 189.932 50.3724 189.677C44.3486 189.423 39.4507 190.195 39.4014 191.379Z" fill="#2E5CFF"/>
<path opacity="0.4" d="M39.4014 191.379C39.4014 191.492 39.439 191.601 39.5083 191.691C40.3301 190.664 44.9075 190.047 50.3642 190.286C55.821 190.524 60.3326 191.51 61.0476 192.603C61.129 192.522 61.1762 192.413 61.1791 192.299C61.2284 191.116 56.3962 189.932 50.3724 189.677C44.3486 189.423 39.4507 190.195 39.4014 191.379Z" fill="#2E5CFF"/>
<path opacity="0.4" d="M39.5083 191.691C40.2561 192.784 44.7514 193.77 50.1917 194C55.632 194.23 60.2258 193.63 61.0476 192.603C60.3162 191.51 55.821 190.524 50.3643 190.286C44.9075 190.047 40.3465 190.664 39.5083 191.691Z" fill="#2E5CFF"/>
<path d="M35.0213 189.801C34.9473 191.551 40.478 193.203 47.3483 193.499C54.2185 193.795 59.8972 192.611 59.9711 190.869C60.0451 189.127 54.5144 187.467 47.6441 187.171C40.7739 186.875 35.1281 188.058 35.0213 189.801Z" fill="#2E5CFF"/>
<path d="M35.1884 186.646L35.0543 189.807L60.0309 190.867L60.1651 187.706L35.1884 186.646Z" fill="#2E5CFF"/>
<path d="M35.1857 186.645C35.1117 188.387 40.6424 190.039 47.5127 190.335C54.3829 190.631 60.0615 189.447 60.1355 187.705C60.2094 185.963 54.6787 184.303 47.8085 184.007C40.9383 183.711 35.2596 184.895 35.1857 186.645Z" fill="#2E5CFF"/>
<path opacity="0.4" d="M35.1857 186.645C35.1117 188.387 40.6424 190.039 47.5127 190.335C54.3829 190.631 60.0615 189.447 60.1355 187.705C60.2094 185.963 54.6787 184.303 47.8085 184.007C40.9383 183.711 35.2596 184.895 35.1857 186.645Z" fill="white"/>
<path d="M36.7799 186.587C36.7765 186.701 36.8145 186.812 36.8868 186.9C37.7086 185.873 42.286 185.256 47.7427 185.503C53.1995 185.749 57.7112 186.719 58.4261 187.812C58.5009 187.73 58.5471 187.626 58.5576 187.516C58.6069 186.333 53.7747 185.141 47.751 184.886C41.7272 184.632 36.8292 185.404 36.7799 186.587Z" fill="#2E5CFF"/>
<path opacity="0.4" d="M36.7799 186.587C36.7765 186.701 36.8145 186.812 36.8868 186.9C37.7086 185.873 42.286 185.256 47.7427 185.503C53.1995 185.749 57.7112 186.719 58.4261 187.812C58.5009 187.73 58.5471 187.626 58.5576 187.516C58.6069 186.333 53.7747 185.141 47.751 184.886C41.7272 184.632 36.8292 185.404 36.7799 186.587Z" fill="#2E5CFF"/>
<path opacity="0.4" d="M36.8868 186.9C37.6264 187.993 42.1299 188.979 47.5702 189.209C53.0105 189.439 57.6043 188.839 58.4261 187.812C57.6947 186.719 53.1995 185.733 47.7427 185.503C42.286 185.273 37.7168 185.872 36.8868 186.9Z" fill="#2E5CFF"/>
<path d="M35.3911 184.032C35.3171 185.782 40.8478 187.434 47.718 187.73C54.5883 188.026 60.2669 186.842 60.3409 185.092C60.4148 183.341 54.8841 181.698 48.0139 181.402C41.1436 181.106 35.465 182.289 35.3911 184.032Z" fill="#2E5CFF"/>
<path d="M35.5284 180.871L35.3942 184.032L60.3709 185.092L60.505 181.931L35.5284 180.871Z" fill="#2E5CFF"/>
<path d="M35.5226 180.868C35.4486 182.618 40.9793 184.27 47.8496 184.566C54.7198 184.862 60.3902 183.678 60.4642 181.936C60.5381 180.194 55.0074 178.534 48.1372 178.238C41.267 177.942 35.5965 179.126 35.5226 180.868Z" fill="#2E5CFF"/>
<path opacity="0.4" d="M35.5226 180.868C35.4486 182.618 40.9793 184.27 47.8496 184.566C54.7198 184.862 60.3902 183.678 60.4642 181.936C60.5381 180.194 55.0074 178.534 48.1372 178.238C41.267 177.942 35.5965 179.126 35.5226 180.868Z" fill="white"/>
<path d="M37.1169 180.818C37.1169 180.931 37.1544 181.041 37.2237 181.131C38.0455 180.103 42.6229 179.487 48.0797 179.734C53.5364 179.98 58.0481 180.95 58.7631 182.043C58.844 181.965 58.8912 181.859 58.8946 181.747C58.9439 180.564 54.1117 179.372 48.0879 179.117C42.0641 178.863 37.1662 179.635 37.1169 180.818Z" fill="#2E5CFF"/>
<path opacity="0.4" d="M37.1169 180.818C37.1169 180.931 37.1544 181.041 37.2237 181.131C38.0455 180.103 42.6229 179.487 48.0797 179.734C53.5364 179.98 58.0481 180.95 58.7631 182.043C58.844 181.965 58.8912 181.859 58.8946 181.747C58.9439 180.564 54.1117 179.372 48.0879 179.117C42.0641 178.863 37.1662 179.635 37.1169 180.818Z" fill="#2E5CFF"/>
<path opacity="0.4" d="M37.2236 181.131C37.9715 182.224 42.4667 183.21 47.907 183.44C53.3473 183.67 57.9412 183.07 58.763 182.043C58.0316 180.95 53.5363 179.964 48.0796 179.734C42.6229 179.504 38.0619 180.12 37.2236 181.131Z" fill="#2E5CFF"/>
<path d="M32.7695 179.249C32.6956 180.991 38.2263 182.643 45.0965 182.939C51.9668 183.234 57.6454 182.051 57.7193 180.309C57.7933 178.567 52.2626 176.907 45.3924 176.611C38.5221 176.315 32.8435 177.498 32.7695 179.249Z" fill="#2E5CFF"/>
<path d="M32.8986 176.063L32.7645 179.224L57.7411 180.284L57.8752 177.123L32.8986 176.063Z" fill="#2E5CFF"/>
<path d="M32.9011 176.085C32.8271 177.827 38.3578 179.479 45.228 179.775C52.0983 180.071 57.7769 178.887 57.8509 177.145C57.9248 175.403 52.3941 173.743 45.5239 173.447C38.6537 173.151 32.975 174.367 32.9011 176.085Z" fill="#2E5CFF"/>
<path opacity="0.4" d="M32.9011 176.085C32.8271 177.827 38.3578 179.479 45.228 179.775C52.0983 180.071 57.7769 178.887 57.8509 177.145C57.9248 175.403 52.3941 173.743 45.5239 173.447C38.6537 173.151 32.975 174.367 32.9011 176.085Z" fill="white"/>
<path d="M34.4953 176.011C34.4903 176.125 34.5284 176.236 34.6022 176.323C35.424 175.296 40.0014 174.68 45.4581 174.926C50.9149 175.173 55.4265 176.142 56.1415 177.235C56.2163 177.154 56.2625 177.05 56.273 176.94C56.3223 175.756 51.4901 174.565 45.4663 174.31C39.4425 174.055 34.5446 174.844 34.4953 176.011Z" fill="#2E5CFF"/>
<path opacity="0.4" d="M34.4953 176.011C34.4903 176.125 34.5284 176.236 34.6022 176.323C35.424 175.296 40.0014 174.68 45.4581 174.926C50.9149 175.173 55.4265 176.142 56.1415 177.235C56.2163 177.154 56.2625 177.05 56.273 176.94C56.3223 175.756 51.4901 174.565 45.4663 174.31C39.4425 174.055 34.5446 174.844 34.4953 176.011Z" fill="#2E5CFF"/>
<path opacity="0.4" d="M34.6022 176.34C35.3418 177.433 39.8453 178.419 45.2856 178.649C50.7259 178.879 55.3197 178.279 56.1415 177.252C55.4101 176.159 50.9149 175.173 45.4581 174.943C40.0014 174.712 35.4322 175.312 34.6022 176.34Z" fill="#2E5CFF"/>
<path d="M36.7717 175.189C36.6978 176.931 42.2285 178.583 49.0987 178.879C55.969 179.175 61.6476 177.991 61.7215 176.249C61.7955 174.507 56.2648 172.847 49.3946 172.551C42.5243 172.255 36.8457 173.439 36.7717 175.189Z" fill="#2E5CFF"/>
<path d="M36.9098 172.024L36.7756 175.185L61.7523 176.245L61.8864 173.084L36.9098 172.024Z" fill="#2E5CFF"/>
<path d="M36.9114 172.025C36.8375 173.767 42.3682 175.419 49.2384 175.715C56.1087 176.011 61.7873 174.827 61.8613 173.085C61.9352 171.343 56.4045 169.683 49.5343 169.387C42.664 169.091 36.9854 170.258 36.9114 172.025Z" fill="#2E5CFF"/>
<path opacity="0.4" d="M36.9114 172.025C36.8375 173.767 42.3682 175.419 49.2384 175.715C56.1087 176.011 61.7873 174.827 61.8613 173.085C61.9352 171.343 56.4045 169.683 49.5343 169.387C42.664 169.091 36.9854 170.258 36.9114 172.025Z" fill="white"/>
<path d="M38.4975 171.968C38.5003 172.08 38.5376 172.189 38.6043 172.28C39.4261 171.253 44.0118 170.636 49.4603 170.883C54.9088 171.129 59.4369 172.099 60.1437 173.192C60.2237 173.113 60.2732 173.008 60.2834 172.896C60.3327 171.713 55.5005 170.521 49.4767 170.267C43.4529 170.012 38.555 170.784 38.4975 171.968Z" fill="#2E5CFF"/>
<path opacity="0.4" d="M38.4975 171.968C38.5003 172.08 38.5376 172.189 38.6043 172.28C39.4261 171.253 44.0118 170.636 49.4603 170.883C54.9088 171.129 59.4369 172.099 60.1437 173.192C60.2237 173.113 60.2732 173.008 60.2834 172.896C60.3327 171.713 55.5005 170.521 49.4767 170.267C43.4529 170.012 38.555 170.784 38.4975 171.968Z" fill="#2E5CFF"/>
<path opacity="0.4" d="M38.6043 172.28C39.3521 173.373 43.8474 174.359 49.2877 174.589C54.728 174.819 59.3301 174.219 60.1437 173.192C59.4205 172.099 54.917 171.113 49.4603 170.883C44.0035 170.653 39.4425 171.253 38.6043 172.28Z" fill="#2E5CFF"/>
<path d="M34.1502 170.398C34.0762 172.14 39.607 173.8 46.4772 174.088C53.3474 174.376 59.0261 173.2 59.1 171.458C59.174 169.716 53.6433 168.056 46.773 167.76C39.9028 167.464 34.1995 168.615 34.1502 170.398Z" fill="#2E5CFF"/>
<path d="M34.28 167.225L34.1459 170.386L59.1225 171.446L59.2567 168.285L34.28 167.225Z" fill="#2E5CFF"/>
<path d="M34.2817 167.234C34.2077 168.976 39.7384 170.636 46.6087 170.924C53.4789 171.212 59.1575 170.045 59.2315 168.294C59.3055 166.544 53.7747 164.892 46.9045 164.596C40.0343 164.3 34.3556 165.484 34.2817 167.234Z" fill="#2E5CFF"/>
<path opacity="0.4" d="M34.2817 167.234C34.2077 168.976 39.7384 170.636 46.6087 170.924C53.4789 171.212 59.1575 170.045 59.2315 168.294C59.3055 166.544 53.7747 164.892 46.9045 164.596C40.0343 164.3 34.3556 165.484 34.2817 167.234Z" fill="white"/>
<path d="M35.843 167.177C35.8403 167.29 35.8782 167.401 35.9499 167.489C36.7717 166.462 41.3491 165.845 46.8058 166.092C52.2626 166.338 56.7742 167.308 57.4892 168.409C57.5693 168.328 57.6161 168.219 57.6207 168.105C57.67 166.922 52.8378 165.738 46.8141 165.475C40.7903 165.212 35.9252 165.993 35.843 167.177Z" fill="#2E5CFF"/>
<path opacity="0.4" d="M35.843 167.177C35.8403 167.29 35.8782 167.401 35.9499 167.489C36.7717 166.462 41.3491 165.845 46.8058 166.092C52.2626 166.338 56.7742 167.308 57.4892 168.409C57.5693 168.328 57.6161 168.219 57.6207 168.105C57.67 166.922 52.8378 165.738 46.8141 165.475C40.7903 165.212 35.9252 165.993 35.843 167.177Z" fill="#2E5CFF"/>
<path opacity="0.4" d="M35.9828 167.489C36.7306 168.582 41.2259 169.568 46.6662 169.806C52.1065 170.045 56.7003 169.437 57.5221 168.409C56.7907 167.308 52.2955 166.322 46.8388 166.092C41.382 165.862 36.821 166.462 35.9828 167.489Z" fill="#2E5CFF"/>
<path d="M0.431751 193.063C0.349571 194.814 5.88028 196.465 12.7587 196.753C19.6372 197.041 25.2994 195.874 25.3733 194.123C25.4473 192.373 19.9248 190.721 13.0464 190.433C6.16791 190.146 0.505713 191.313 0.431751 193.063Z" fill="#2E5CFF"/>
<path d="M0.557975 189.884L0.423828 193.045L25.4005 194.105L25.5346 190.944L0.557975 189.884Z" fill="#2E5CFF"/>
<path d="M0.563233 189.899C0.489271 191.65 6.01998 193.302 12.8902 193.597C19.7605 193.893 25.4391 192.71 25.513 190.959C25.587 189.209 20.0563 187.557 13.1861 187.27C6.31583 186.982 0.637195 188.149 0.563233 189.899Z" fill="#2E5CFF"/>
<path opacity="0.4" d="M0.563233 189.899C0.489271 191.65 6.01998 193.302 12.8902 193.597C19.7605 193.893 25.4391 192.71 25.513 190.959C25.587 189.209 20.0563 187.557 13.1861 187.27C6.31583 186.982 0.637195 188.149 0.563233 189.899Z" fill="white"/>
<path d="M2.14926 189.842C2.14252 189.956 2.18089 190.068 2.25609 190.154C3.07789 189.127 7.65531 188.511 13.1121 188.757C18.5688 189.004 23.0805 189.982 23.7954 191.074C23.8704 190.99 23.9164 190.883 23.9269 190.77C23.9762 189.587 19.1441 188.404 13.1203 188.149C7.09648 187.894 2.20678 188.658 2.14926 189.842Z" fill="#2E5CFF"/>
<path opacity="0.4" d="M2.14926 189.842C2.14252 189.956 2.18089 190.068 2.25609 190.154C3.07789 189.127 7.65531 188.511 13.1121 188.757C18.5688 189.004 23.0805 189.982 23.7954 191.074C23.8704 190.99 23.9164 190.883 23.9269 190.77C23.9762 189.587 19.1441 188.404 13.1203 188.149C7.09648 187.894 2.20678 188.658 2.14926 189.842Z" fill="#2E5CFF"/>
<path opacity="0.4" d="M2.26434 190.154C3.00396 191.247 7.50742 192.241 12.9477 192.472C18.388 192.702 22.9819 192.102 23.8037 191.074C23.0723 189.981 18.577 188.987 13.1203 188.757C7.66356 188.527 3.09436 189.16 2.26434 190.154Z" fill="#2E5CFF"/>
<path d="M11.2959 189.981C10.885 191.683 16.0048 194.353 22.7189 195.948C29.433 197.542 35.2103 197.46 35.613 195.759C36.0156 194.058 30.8958 191.387 24.1817 189.792C17.4676 188.198 11.6986 188.28 11.2959 189.981Z" fill="#2E5CFF"/>
<path d="M12.0258 186.919L11.2936 189.997L35.6142 195.782L36.3464 192.704L12.0258 186.919Z" fill="#2E5CFF"/>
<path d="M12.0109 186.9C11.6 188.601 16.7198 191.272 23.4339 192.874C30.148 194.477 35.9252 194.386 36.3279 192.685C36.7306 190.984 31.6354 188.338 24.9131 186.694C18.1908 185.051 12.43 185.199 12.0109 186.9Z" fill="#2E5CFF"/>
<path opacity="0.4" d="M12.0109 186.9C11.6 188.601 16.7198 191.272 23.4339 192.874C30.148 194.477 35.9252 194.386 36.3279 192.685C36.7306 190.984 31.6354 188.338 24.9131 186.694C18.1908 185.051 12.43 185.199 12.0109 186.9Z" fill="white"/>
<path d="M13.597 187.146C13.5727 187.258 13.5902 187.375 13.6463 187.475C14.6571 186.653 19.2592 186.9 24.568 188.165C29.8768 189.431 34.1255 191.255 34.635 192.463C34.7278 192.398 34.7947 192.302 34.824 192.192C35.0952 191.042 30.5753 188.962 24.7077 187.565C18.84 186.168 13.8764 185.996 13.597 187.146Z" fill="#2E5CFF"/>
<path opacity="0.4" d="M13.597 187.146C13.5727 187.258 13.5902 187.375 13.6463 187.475C14.6571 186.653 19.2592 186.9 24.568 188.165C29.8768 189.431 34.1255 191.255 34.635 192.463C34.7278 192.398 34.7947 192.302 34.824 192.192C35.0952 191.042 30.5753 188.962 24.7077 187.565C18.84 186.168 13.8764 185.996 13.597 187.146Z" fill="#2E5CFF"/>
<path opacity="0.4" d="M13.6545 187.516C14.1805 188.732 18.4045 190.557 23.7216 191.814C29.0386 193.071 33.6407 193.359 34.6433 192.504C34.1338 191.296 29.9015 189.472 24.5762 188.206C19.251 186.941 14.6571 186.62 13.6545 187.516Z" fill="#2E5CFF"/>
<path d="M42.9928 169.354C49.2108 169.354 54.2514 164.314 54.2514 158.096C54.2514 151.878 49.2108 146.837 42.9928 146.837C36.7748 146.837 31.7341 151.878 31.7341 158.096C31.7341 164.314 36.7748 169.354 42.9928 169.354Z" fill="#2E5CFF"/>
<path d="M44.3404 169.354C50.5584 169.354 55.5991 164.314 55.5991 158.096C55.5991 151.878 50.5584 146.837 44.3404 146.837C38.1225 146.837 33.0818 151.878 33.0818 158.096C33.0818 164.314 38.1225 169.354 44.3404 169.354Z" fill="#2E5CFF"/>
<path opacity="0.5" d="M44.3404 169.354C50.5584 169.354 55.5991 164.314 55.5991 158.096C55.5991 151.878 50.5584 146.837 44.3404 146.837C38.1225 146.837 33.0818 151.878 33.0818 158.096C33.0818 164.314 38.1225 169.354 44.3404 169.354Z" fill="white"/>
<path d="M50.3034 164.057C53.5962 160.764 53.5962 155.426 50.3034 152.133C47.0107 148.84 41.672 148.84 38.3793 152.133C35.0865 155.426 35.0865 160.764 38.3793 164.057C41.672 167.35 47.0106 167.35 50.3034 164.057Z" fill="#2E5CFF"/>
<path opacity="0.3" d="M47.751 160.882C47.4103 161.234 46.9995 161.511 46.5452 161.695C46.0908 161.879 45.6029 161.966 45.113 161.95C44.3624 161.974 43.6226 161.767 42.9935 161.357C42.3644 160.947 41.8765 160.354 41.5957 159.657H46.132V158.687H41.3491C41.341 158.54 41.341 158.391 41.3491 158.244C41.3407 158.096 41.3407 157.948 41.3491 157.8H46.1238V156.83H41.5957C41.877 156.132 42.3662 155.538 42.9969 155.128C43.6276 154.718 44.3693 154.511 45.1212 154.537C45.6105 154.52 46.098 154.606 46.5524 154.788C47.0067 154.971 47.4178 155.246 47.7592 155.597L47.8907 155.729L48.8029 154.833L48.6796 154.702C48.2122 154.224 47.6494 153.849 47.0279 153.603C46.4063 153.357 45.7399 153.244 45.0719 153.272C43.9705 153.228 42.8864 153.555 41.9927 154.2C41.0989 154.845 40.447 155.771 40.1411 156.83H38.5386V157.8H39.9521C39.9521 157.948 39.9521 158.096 39.9521 158.244C39.9521 158.392 39.9521 158.539 39.9521 158.687H38.5222V159.657H40.1247C40.4306 160.716 41.0825 161.642 41.9762 162.287C42.87 162.932 43.9541 163.259 45.0555 163.215C45.7246 163.241 46.3916 163.125 47.0131 162.876C47.6347 162.627 48.1969 162.25 48.6632 161.769L48.7864 161.638L47.8742 160.742L47.751 160.882Z" fill="white"/>
<path d="M202.068 196.137C202.003 197.879 196.365 199.095 189.462 198.849C182.559 198.602 177.028 196.983 177.086 195.241C177.143 193.499 182.797 192.274 189.692 192.521C196.587 192.767 202.134 194.386 202.068 196.137Z" fill="#2E5CFF"/>
<path d="M177.189 192.05L177.076 195.212L202.059 196.106L202.172 192.944L177.189 192.05Z" fill="#2E5CFF"/>
<path d="M202.183 192.973C202.118 194.715 196.48 195.931 189.577 195.685C182.674 195.438 177.143 193.819 177.201 192.077C177.258 190.335 182.904 189.11 189.807 189.357C196.71 189.603 202.249 191.222 202.183 192.973Z" fill="#2E5CFF"/>
<path opacity="0.4" d="M202.183 192.973C202.118 194.715 196.48 195.931 189.577 195.685C182.674 195.438 177.143 193.819 177.201 192.077C177.258 190.335 182.904 189.11 189.807 189.357C196.71 189.603 202.249 191.222 202.183 192.973Z" fill="white"/>
<path d="M200.597 192.792C200.593 192.906 200.546 193.015 200.466 193.096C199.718 192.003 195.214 191.042 189.782 190.853C184.35 190.664 179.748 191.288 178.935 192.315C178.862 192.23 178.822 192.123 178.82 192.011C178.869 190.828 183.75 190.023 189.799 190.236C195.847 190.45 200.638 191.625 200.597 192.792Z" fill="#2E5CFF"/>
<path opacity="0.4" d="M200.597 192.792C200.593 192.906 200.546 193.015 200.466 193.096C199.718 192.003 195.214 191.042 189.782 190.853C184.35 190.664 179.748 191.288 178.935 192.315C178.862 192.23 178.822 192.123 178.82 192.011C178.869 190.828 183.75 190.023 189.799 190.236C195.847 190.45 200.638 191.625 200.597 192.792Z" fill="#2E5CFF"/>
<path opacity="0.4" d="M200.466 193.096C199.644 194.123 195.075 194.74 189.618 194.559C184.161 194.378 179.641 193.408 178.935 192.315C179.756 191.288 184.309 190.672 189.782 190.853C195.256 191.033 199.718 192.003 200.466 193.096Z" fill="#2E5CFF"/>
<path d="M205.06 191.568C204.994 193.31 199.356 194.526 192.453 194.279C185.55 194.033 180.019 192.414 180.077 190.664C180.135 188.913 185.788 187.705 192.683 187.952C199.578 188.198 205.134 189.817 205.06 191.568Z" fill="#2E5CFF"/>
<path d="M180.206 187.526L180.092 190.688L205.075 191.586L205.189 188.424L180.206 187.526Z" fill="#2E5CFF"/>
<path d="M205.175 188.404C205.109 190.146 199.471 191.362 192.568 191.116C185.665 190.869 180.126 189.25 180.192 187.5C180.258 185.749 185.895 184.541 192.798 184.788C199.701 185.034 205.232 186.694 205.175 188.404Z" fill="#2E5CFF"/>
<path opacity="0.4" d="M205.175 188.404C205.109 190.146 199.471 191.362 192.568 191.116C185.665 190.869 180.126 189.25 180.192 187.5C180.258 185.749 185.895 184.541 192.798 184.788C199.701 185.034 205.232 186.694 205.175 188.404Z" fill="white"/>
<path d="M203.589 188.223C203.585 188.335 203.538 188.441 203.457 188.519C202.709 187.434 198.206 186.472 192.774 186.283C187.342 186.094 182.731 186.719 181.926 187.746C181.854 187.661 181.813 187.554 181.811 187.442C181.86 186.259 186.742 185.453 192.79 185.667C198.839 185.881 203.63 187.039 203.589 188.223Z" fill="#2E5CFF"/>
<path opacity="0.4" d="M203.589 188.223C203.585 188.335 203.538 188.441 203.457 188.519C202.709 187.434 198.206 186.472 192.774 186.283C187.342 186.094 182.731 186.719 181.926 187.746C181.854 187.661 181.813 187.554 181.811 187.442C181.86 186.259 186.742 185.453 192.79 185.667C198.839 185.881 203.63 187.039 203.589 188.223Z" fill="#2E5CFF"/>
<path opacity="0.4" d="M203.49 188.519C202.668 189.554 198.099 190.162 192.642 189.99C187.186 189.817 182.666 188.839 181.959 187.746C182.781 186.719 187.333 186.103 192.807 186.283C198.28 186.464 202.709 187.434 203.49 188.519Z" fill="#2E5CFF"/>
<path d="M205.175 185.782C205.109 187.533 199.463 188.749 192.568 188.502C185.673 188.256 180.126 186.637 180.192 184.886C180.258 183.136 185.895 181.928 192.798 182.174C199.701 182.421 205.232 184.04 205.175 185.782Z" fill="#2E5CFF"/>
<path d="M180.313 181.746L180.199 184.908L205.182 185.807L205.296 182.645L180.313 181.746Z" fill="#2E5CFF"/>
<path d="M205.29 182.585C205.224 184.336 199.578 185.552 192.683 185.305C185.788 185.059 180.241 183.44 180.307 181.69C180.373 179.939 186.01 178.731 192.905 178.978C199.8 179.224 205.347 180.876 205.29 182.585Z" fill="#2E5CFF"/>
<path opacity="0.4" d="M205.29 182.585C205.224 184.336 199.578 185.552 192.683 185.305C185.788 185.059 180.241 183.44 180.307 181.69C180.373 179.939 186.01 178.731 192.905 178.978C199.8 179.224 205.347 180.876 205.29 182.585Z" fill="white"/>
<path d="M203.704 182.446C203.693 182.556 203.647 182.66 203.572 182.741C202.816 181.657 198.313 180.695 192.889 180.498C187.465 180.301 182.855 180.933 182.041 181.969C181.969 181.881 181.932 181.77 181.934 181.657C181.934 180.473 186.865 179.676 192.913 179.89C198.962 180.103 203.745 181.262 203.704 182.446Z" fill="#2E5CFF"/>
<path opacity="0.4" d="M203.704 182.446C203.693 182.556 203.647 182.66 203.572 182.741C202.816 181.657 198.313 180.695 192.889 180.498C187.465 180.301 182.855 180.933 182.041 181.969C181.969 181.881 181.932 181.77 181.934 181.657C181.934 180.473 186.865 179.676 192.913 179.89C198.962 180.103 203.745 181.262 203.704 182.446Z" fill="#2E5CFF"/>
<path opacity="0.4" d="M203.572 182.741C202.75 183.777 198.181 184.385 192.724 184.212C187.268 184.04 182.748 183.062 182.041 181.969C182.863 180.933 187.416 180.325 192.889 180.498C198.362 180.67 202.816 181.657 203.572 182.741Z" fill="#2E5CFF"/>
<path d="M208.166 181.213C208.1 182.963 202.455 184.18 195.56 183.933C188.665 183.687 183.118 182.068 183.183 180.317C183.249 178.567 188.887 177.359 195.79 177.605C202.693 177.852 208.224 179.471 208.166 181.213Z" fill="#2E5CFF"/>
<path d="M183.276 177.139L183.163 180.301L208.146 181.195L208.259 178.033L183.276 177.139Z" fill="#2E5CFF"/>
<path d="M208.273 178.049C208.215 179.799 202.57 181.016 195.675 180.769C188.78 180.523 183.233 178.904 183.298 177.153C183.364 175.403 189.002 174.195 195.897 174.441C202.792 174.688 208.339 176.307 208.273 178.049Z" fill="#2E5CFF"/>
<path opacity="0.4" d="M208.273 178.049C208.215 179.799 202.57 181.016 195.675 180.769C188.78 180.523 183.233 178.904 183.298 177.153C183.364 175.403 189.002 174.195 195.897 174.441C202.792 174.688 208.339 176.307 208.273 178.049Z" fill="white"/>
<path d="M206.695 177.876C206.684 177.987 206.638 178.091 206.564 178.172C205.807 177.087 201.304 176.126 195.88 175.929C190.456 175.731 185.846 176.364 185.032 177.4C184.961 177.312 184.923 177.201 184.926 177.087C184.967 175.904 189.856 175.107 195.905 175.321C201.953 175.534 206.777 176.693 206.695 177.876Z" fill="#2E5CFF"/>
<path opacity="0.4" d="M206.695 177.876C206.684 177.987 206.638 178.091 206.564 178.172C205.807 177.087 201.304 176.126 195.88 175.929C190.456 175.731 185.846 176.364 185.032 177.4C184.961 177.312 184.923 177.201 184.926 177.087C184.967 175.904 189.856 175.107 195.905 175.321C201.953 175.534 206.777 176.693 206.695 177.876Z" fill="#2E5CFF"/>
<path opacity="0.4" d="M206.564 178.172C205.742 179.208 201.173 179.816 195.716 179.643C190.259 179.471 185.739 178.493 185.032 177.4C185.854 176.364 190.407 175.756 195.88 175.929C201.353 176.101 205.807 177.087 206.564 178.172Z" fill="#2E5CFF"/>
<path d="M108.983 192.619C108.909 194.37 114.432 196.022 121.31 196.318C128.189 196.613 133.851 195.43 133.925 193.68C133.999 191.929 128.476 190.277 121.598 189.99C114.719 189.702 109.032 190.877 108.983 192.619Z" fill="#2E5CFF"/>
<path d="M109.076 189.445L108.942 192.606L133.919 193.666L134.053 190.505L109.076 189.445Z" fill="#2E5CFF"/>
<path d="M109.09 189.456C109.016 191.206 114.547 192.858 121.417 193.154C128.287 193.449 133.966 192.266 134.04 190.516C134.114 188.765 128.583 187.113 121.713 186.826C114.843 186.538 109.164 187.713 109.09 189.456Z" fill="#2E5CFF"/>
<path opacity="0.4" d="M109.09 189.456C109.016 191.206 114.547 192.858 121.417 193.154C128.287 193.449 133.966 192.266 134.04 190.516C134.114 188.765 128.583 187.113 121.713 186.826C114.843 186.538 109.164 187.713 109.09 189.456Z" fill="white"/>
<path d="M110.684 189.406C110.68 189.518 110.718 189.626 110.791 189.71C111.613 188.683 116.19 188.067 121.647 188.313C127.104 188.56 131.615 189.538 132.33 190.631C132.405 190.546 132.451 190.439 132.462 190.327C132.511 189.143 127.679 187.96 121.655 187.705C115.632 187.45 110.734 188.223 110.684 189.406Z" fill="#2E5CFF"/>
<path opacity="0.4" d="M110.684 189.406C110.68 189.518 110.718 189.626 110.791 189.71C111.613 188.683 116.19 188.067 121.647 188.313C127.104 188.56 131.615 189.538 132.33 190.631C132.405 190.546 132.451 190.439 132.462 190.327C132.511 189.143 127.679 187.96 121.655 187.705C115.632 187.45 110.734 188.223 110.684 189.406Z" fill="#2E5CFF"/>
<path opacity="0.4" d="M110.791 189.71C111.531 190.812 116.034 191.798 121.475 192.028C126.915 192.258 131.509 191.658 132.33 190.631C131.599 189.538 127.104 188.552 121.647 188.313C116.19 188.075 111.621 188.683 110.791 189.71Z" fill="#2E5CFF"/>
<path d="M106.329 187.828C106.255 189.579 111.786 191.231 118.656 191.526C125.526 191.822 131.205 190.639 131.279 188.889C131.353 187.138 125.822 185.486 118.952 185.199C112.081 184.911 106.403 186.086 106.329 187.828Z" fill="#2E5CFF"/>
<path d="M106.463 184.678L106.328 187.839L131.305 188.899L131.439 185.738L106.463 184.678Z" fill="#2E5CFF"/>
<path d="M106.469 184.664C106.395 186.415 111.925 188.067 118.795 188.363C125.666 188.658 131.344 187.475 131.418 185.725C131.492 183.974 125.962 182.331 119.091 182.035C112.221 181.739 106.518 182.922 106.469 184.664Z" fill="#2E5CFF"/>
<path opacity="0.4" d="M106.469 184.664C106.395 186.415 111.925 188.067 118.795 188.363C125.666 188.658 131.344 187.475 131.418 185.725C131.492 183.974 125.962 182.331 119.091 182.035C112.221 181.739 106.518 182.922 106.469 184.664Z" fill="white"/>
<path d="M108.055 184.615C108.059 184.727 108.096 184.836 108.161 184.927C108.983 183.9 113.569 183.284 119.017 183.522C124.466 183.76 128.994 184.747 129.701 185.84C129.781 185.758 129.831 185.65 129.84 185.536C129.89 184.352 125.058 183.169 119.034 182.914C113.01 182.659 108.112 183.407 108.055 184.615Z" fill="#2E5CFF"/>
<path opacity="0.4" d="M108.055 184.615C108.059 184.727 108.096 184.836 108.161 184.927C108.983 183.9 113.569 183.284 119.017 183.522C124.466 183.76 128.994 184.747 129.701 185.84C129.781 185.758 129.831 185.65 129.84 185.536C129.89 184.352 125.058 183.169 119.034 182.914C113.01 182.659 108.112 183.407 108.055 184.615Z" fill="#2E5CFF"/>
<path opacity="0.4" d="M108.161 184.927C108.909 186.02 113.404 187.007 118.845 187.237C124.285 187.467 128.887 186.867 129.701 185.84C128.978 184.747 124.474 183.76 119.017 183.522C113.561 183.284 108.983 183.9 108.161 184.927Z" fill="#2E5CFF"/>
<path d="M106.674 182.059C106.6 183.81 112.131 185.462 119.001 185.757C125.871 186.053 131.55 184.87 131.624 183.119C131.698 181.369 126.167 179.717 119.297 179.43C112.426 179.142 106.748 180.317 106.674 182.059Z" fill="#2E5CFF"/>
<path d="M106.803 178.895L106.669 182.056L131.645 183.116L131.78 179.955L106.803 178.895Z" fill="#2E5CFF"/>
<path d="M106.805 178.895C106.731 180.646 112.262 182.298 119.132 182.594C126.003 182.889 131.681 181.706 131.755 179.956C131.829 178.205 126.298 176.553 119.428 176.266C112.558 175.978 106.879 177.153 106.805 178.895Z" fill="#2E5CFF"/>
<path opacity="0.4" d="M106.805 178.895C106.731 180.646 112.262 182.298 119.132 182.594C126.003 182.889 131.681 181.706 131.755 179.956C131.829 178.205 126.298 176.553 119.428 176.266C112.558 175.978 106.879 177.153 106.805 178.895Z" fill="white"/>
<path d="M108.4 178.846C108.395 178.957 108.433 179.066 108.507 179.15C109.328 178.131 113.906 177.507 119.363 177.753C124.819 178 129.331 178.978 130.046 180.071C130.121 179.986 130.167 179.879 130.177 179.767C130.227 178.583 125.395 177.4 119.371 177.145C113.347 176.89 108.449 177.655 108.4 178.846Z" fill="#2E5CFF"/>
<path opacity="0.4" d="M108.4 178.846C108.395 178.957 108.433 179.066 108.507 179.15C109.328 178.131 113.906 177.507 119.363 177.753C124.819 178 129.331 178.978 130.046 180.071C130.121 179.986 130.167 179.879 130.177 179.767C130.227 178.583 125.395 177.4 119.371 177.145C113.347 176.89 108.449 177.655 108.4 178.846Z" fill="#2E5CFF"/>
<path opacity="0.4" d="M108.506 179.15C109.246 180.251 113.75 181.238 119.19 181.468C124.63 181.698 129.224 181.098 130.046 180.071C129.314 178.978 124.819 177.991 119.362 177.753C113.906 177.515 109.336 178.131 108.506 179.15Z" fill="#2E5CFF"/>
<path d="M104.052 177.268C103.978 179.019 109.509 180.67 116.379 180.966C123.25 181.262 128.928 180.079 129.002 178.328C129.076 176.578 123.545 174.934 116.675 174.638C109.805 174.343 104.118 175.526 104.052 177.268Z" fill="#2E5CFF"/>
<path d="M104.173 174.096L104.039 177.257L129.015 178.317L129.149 175.156L104.173 174.096Z" fill="#2E5CFF"/>
<path d="M104.184 174.104C104.11 175.855 109.641 177.507 116.511 177.802C123.381 178.098 129.06 176.915 129.134 175.164C129.208 173.414 123.677 171.77 116.807 171.475C109.936 171.179 104.258 172.362 104.184 174.104Z" fill="#2E5CFF"/>
<path opacity="0.4" d="M104.184 174.104C104.11 175.855 109.641 177.507 116.511 177.802C123.381 178.098 129.06 176.915 129.134 175.164C129.208 173.414 123.677 171.77 116.807 171.475C109.936 171.179 104.258 172.362 104.184 174.104Z" fill="white"/>
<path d="M105.778 174.055C105.775 174.167 105.81 174.277 105.877 174.367C106.699 173.34 111.284 172.724 116.741 172.97C122.198 173.217 126.709 174.187 127.424 175.279C127.501 175.196 127.547 175.089 127.556 174.975C127.605 173.8 122.773 172.609 116.749 172.354C110.725 172.099 105.828 172.872 105.778 174.055Z" fill="#2E5CFF"/>
<path opacity="0.4" d="M105.778 174.055C105.775 174.167 105.81 174.277 105.877 174.367C106.699 173.34 111.284 172.724 116.741 172.97C122.198 173.217 126.709 174.187 127.424 175.279C127.501 175.196 127.547 175.089 127.556 174.975C127.605 173.8 122.773 172.609 116.749 172.354C110.725 172.099 105.828 172.872 105.778 174.055Z" fill="#2E5CFF"/>
<path opacity="0.4" d="M105.877 174.367C106.625 175.46 111.12 176.446 116.56 176.677C122 176.907 126.603 176.307 127.424 175.279C126.693 174.186 122.189 173.2 116.741 172.97C111.292 172.74 106.715 173.34 105.877 174.367Z" fill="#2E5CFF"/>
<path d="M108.055 173.209C107.981 174.959 113.511 176.611 120.381 176.907C127.252 177.203 132.93 176.019 133.004 174.269C133.078 172.518 127.548 170.875 120.677 170.579C113.807 170.283 108.161 171.466 108.055 173.209Z" fill="#2E5CFF"/>
<path d="M108.192 170.049L108.058 173.21L133.035 174.27L133.169 171.109L108.192 170.049Z" fill="#2E5CFF"/>
<path d="M108.161 170.045C108.087 171.795 113.618 173.447 120.488 173.743C127.359 174.039 133.037 172.855 133.111 171.105C133.185 169.354 127.654 167.711 120.784 167.415C113.914 167.119 108.26 168.302 108.161 170.045Z" fill="#2E5CFF"/>
<path opacity="0.4" d="M108.161 170.045C108.087 171.795 113.618 173.447 120.488 173.743C127.359 174.039 133.037 172.855 133.111 171.105C133.185 169.354 127.654 167.711 120.784 167.415C113.914 167.119 108.26 168.302 108.161 170.045Z" fill="white"/>
<path d="M109.805 169.995C109.805 170.108 109.843 170.218 109.912 170.308C110.734 169.28 115.311 168.664 120.768 168.911C126.225 169.157 130.736 170.127 131.451 171.22C131.492 171.18 131.525 171.133 131.548 171.081C131.57 171.029 131.582 170.973 131.583 170.916C131.632 169.741 126.8 168.549 120.776 168.294C114.752 168.039 109.805 168.812 109.805 169.995Z" fill="#2E5CFF"/>
<path opacity="0.4" d="M109.805 169.995C109.805 170.108 109.843 170.218 109.912 170.308C110.734 169.28 115.311 168.664 120.768 168.911C126.225 169.157 130.736 170.127 131.451 171.22C131.492 171.18 131.525 171.133 131.548 171.081C131.57 171.029 131.582 170.973 131.583 170.916C131.632 169.741 126.8 168.549 120.776 168.294C114.752 168.039 109.805 168.812 109.805 169.995Z" fill="#2E5CFF"/>
<path opacity="0.4" d="M109.887 170.308C110.635 171.401 115.13 172.387 120.571 172.617C126.011 172.847 130.605 172.247 131.427 171.22C130.695 170.127 126.2 169.141 120.743 168.911C115.286 168.68 110.725 169.28 109.887 170.308Z" fill="#2E5CFF"/>
<path d="M105.433 168.426C105.359 170.168 110.89 171.82 117.76 172.116C124.63 172.411 130.301 171.228 130.383 169.486C130.465 167.744 124.926 166.084 118.056 165.788C111.186 165.492 105.507 166.675 105.433 168.426Z" fill="#2E5CFF"/>
<path d="M105.554 165.249L105.42 168.41L130.397 169.47L130.531 166.309L105.554 165.249Z" fill="#2E5CFF"/>
<path d="M105.564 165.262C105.49 167.004 111.021 168.656 117.891 168.952C124.762 169.247 130.44 168.064 130.514 166.322C130.588 164.58 125.058 162.92 118.187 162.624C111.317 162.328 105.638 163.511 105.564 165.262Z" fill="#2E5CFF"/>
<path opacity="0.4" d="M105.564 165.262C105.49 167.004 111.021 168.656 117.891 168.952C124.762 169.247 130.44 168.064 130.514 166.322C130.588 164.58 125.058 162.92 118.187 162.624C111.317 162.328 105.638 163.511 105.564 165.262Z" fill="white"/>
<path d="M107.159 165.204C107.154 165.318 107.192 165.43 107.266 165.517C108.087 164.489 112.665 163.873 118.122 164.119C123.578 164.366 128.09 165.336 128.805 166.429C128.88 166.347 128.926 166.243 128.936 166.133C128.986 164.949 124.154 163.758 118.13 163.503C112.106 163.248 107.208 164.021 107.159 165.204Z" fill="#2E5CFF"/>
<path opacity="0.4" d="M107.159 165.204C107.154 165.318 107.192 165.43 107.266 165.517C108.087 164.489 112.665 163.873 118.122 164.119C123.578 164.366 128.09 165.336 128.805 166.429C128.88 166.347 128.926 166.243 128.936 166.133C128.986 164.949 124.154 163.758 118.13 163.503C112.106 163.248 107.208 164.021 107.159 165.204Z" fill="#2E5CFF"/>
<path opacity="0.4" d="M107.266 165.517C108.005 166.61 112.509 167.596 117.949 167.826C123.389 168.056 127.983 167.456 128.805 166.429C128.074 165.336 123.578 164.35 118.122 164.119C112.665 163.889 108.096 164.506 107.266 165.517Z" fill="#2E5CFF"/>
<path d="M133.021 165.023C133.095 166.766 127.564 168.426 120.694 168.713C113.824 169.001 108.161 167.793 108.046 166.084C107.931 164.374 113.495 162.681 120.373 162.385C127.252 162.09 132.939 163.273 133.021 165.023Z" fill="#2E5CFF"/>
<path d="M132.328 162.684L107.329 163.684L107.455 166.847L132.454 165.848L132.328 162.684Z" fill="#2E5CFF"/>
<path d="M132.881 161.86C132.955 163.602 127.424 165.262 120.554 165.549C113.684 165.837 108.005 164.67 107.931 162.92C107.857 161.169 113.388 159.517 120.258 159.222C127.128 158.926 132.815 160.109 132.881 161.86Z" fill="#2E5CFF"/>
<path opacity="0.4" d="M132.881 161.86C132.955 163.602 127.424 165.262 120.554 165.549C113.684 165.837 108.005 164.67 107.931 162.92C107.857 161.169 113.388 159.517 120.258 159.222C127.128 158.926 132.815 160.109 132.881 161.86Z" fill="white"/>
<path d="M131.287 161.802C131.294 161.916 131.255 162.028 131.18 162.114C130.358 161.087 125.781 160.471 120.324 160.717C114.867 160.964 110.356 161.933 109.641 163.035C109.567 162.949 109.521 162.843 109.509 162.731C109.46 161.547 114.292 160.364 120.316 160.109C126.34 159.854 131.238 160.619 131.287 161.802Z" fill="#2E5CFF"/>
<path opacity="0.4" d="M131.287 161.802C131.294 161.916 131.255 162.028 131.18 162.114C130.358 161.087 125.781 160.471 120.324 160.717C114.867 160.964 110.356 161.933 109.641 163.035C109.567 162.949 109.521 162.843 109.509 162.731C109.46 161.547 114.292 160.364 120.316 160.109C126.34 159.854 131.238 160.619 131.287 161.802Z" fill="#2E5CFF"/>
<path opacity="0.4" d="M131.172 162.114C130.432 163.207 125.929 164.193 120.488 164.432C115.048 164.67 110.454 164.062 109.632 163.035C110.364 161.933 114.859 160.947 120.316 160.717C125.773 160.487 130.35 161.087 131.172 162.114Z" fill="#2E5CFF"/>
<path d="M135.642 160.232C135.716 161.983 130.186 163.635 123.315 163.922C116.445 164.21 110.767 163.043 110.693 161.292C110.619 159.542 116.149 157.89 123.02 157.603C129.89 157.315 135.568 158.482 135.642 160.232Z" fill="#2E5CFF"/>
<path d="M135.509 157.061L110.532 158.121L110.666 161.282L135.643 160.222L135.509 157.061Z" fill="#2E5CFF"/>
<path d="M135.503 157.11C135.577 158.86 130.054 160.512 123.176 160.808C116.297 161.103 110.635 159.92 110.561 158.17C110.487 156.419 116.01 154.767 122.888 154.48C129.766 154.192 135.429 155.318 135.503 157.11Z" fill="#2E5CFF"/>
<path opacity="0.4" d="M135.503 157.11C135.577 158.86 130.054 160.512 123.176 160.808C116.297 161.103 110.635 159.92 110.561 158.17C110.487 156.419 116.01 154.767 122.888 154.48C129.766 154.192 135.429 155.318 135.503 157.11Z" fill="white"/>
<path d="M133.917 157.011C133.915 157.124 133.877 157.233 133.81 157.323C132.988 156.296 128.402 155.68 122.954 155.926C117.505 156.173 112.977 157.151 112.27 158.244C112.189 158.163 112.142 158.054 112.139 157.94C112.081 156.756 116.922 155.573 122.937 155.318C128.953 155.063 133.859 155.828 133.917 157.011Z" fill="#2E5CFF"/>
<path opacity="0.4" d="M133.917 157.011C133.915 157.124 133.877 157.233 133.81 157.323C132.988 156.296 128.402 155.68 122.954 155.926C117.505 156.173 112.977 157.151 112.27 158.244C112.189 158.163 112.142 158.054 112.139 157.94C112.081 156.756 116.922 155.573 122.937 155.318C128.953 155.063 133.859 155.828 133.917 157.011Z" fill="#2E5CFF"/>
<path opacity="0.4" d="M133.81 157.323C133.062 158.416 128.567 159.411 123.126 159.641C117.686 159.871 113.084 159.271 112.27 158.244C112.994 157.151 117.497 156.156 122.954 155.926C128.41 155.696 132.971 156.288 133.81 157.323Z" fill="#2E5CFF"/>
<path d="M135.281 154.463C135.355 156.206 129.832 157.866 122.954 158.153C116.075 158.441 110.413 157.274 110.339 155.523C110.265 153.773 115.788 152.121 122.666 151.825C129.545 151.53 135.223 152.713 135.281 154.463Z" fill="#2E5CFF"/>
<path d="M135.166 151.303L110.189 152.363L110.323 155.524L135.3 154.464L135.166 151.303Z" fill="#2E5CFF"/>
<path d="M135.166 151.299C135.24 153.05 129.709 154.702 122.839 154.989C115.968 155.277 110.29 154.11 110.216 152.36C110.142 150.609 115.673 148.957 122.543 148.67C129.413 148.382 135.092 149.549 135.166 151.299Z" fill="#2E5CFF"/>
<path opacity="0.4" d="M135.166 151.299C135.24 153.05 129.709 154.702 122.839 154.989C115.968 155.277 110.29 154.11 110.216 152.36C110.142 150.609 115.673 148.957 122.543 148.67C129.413 148.382 135.092 149.549 135.166 151.299Z" fill="white"/>
<path d="M133.571 151.242C133.578 151.356 133.54 151.468 133.465 151.554C132.643 150.527 128.065 149.911 122.609 150.157C117.152 150.404 112.64 151.382 111.925 152.475C111.852 152.389 111.806 152.283 111.794 152.17C111.744 150.987 116.577 149.804 122.6 149.549C128.624 149.294 133.522 150.058 133.571 151.242Z" fill="#2E5CFF"/>
<path opacity="0.4" d="M133.571 151.242C133.578 151.356 133.54 151.468 133.465 151.554C132.643 150.527 128.065 149.911 122.609 150.157C117.152 150.404 112.64 151.382 111.925 152.475C111.852 152.389 111.806 152.283 111.794 152.17C111.744 150.987 116.577 149.804 122.6 149.549C128.624 149.294 133.522 150.058 133.571 151.242Z" fill="#2E5CFF"/>
<path opacity="0.4" d="M133.465 151.554C132.725 152.647 128.222 153.642 122.781 153.872C117.341 154.102 112.747 153.502 111.925 152.475C112.657 151.382 117.152 150.387 122.609 150.157C128.065 149.927 132.635 150.535 133.465 151.554Z" fill="#2E5CFF"/>
<path d="M137.927 149.713C138.001 151.464 132.47 153.116 125.6 153.411C118.73 153.707 113.051 152.524 112.977 150.773C112.903 149.023 118.434 147.371 125.304 147.084C132.174 146.796 137.853 147.922 137.927 149.713Z" fill="#2E5CFF"/>
<path d="M137.771 146.52L112.794 147.58L112.928 150.741L137.905 149.681L137.771 146.52Z" fill="#2E5CFF"/>
<path d="M137.787 146.508C137.861 148.259 132.33 149.911 125.46 150.206C118.59 150.502 112.911 149.319 112.837 147.568C112.763 145.818 118.294 144.166 125.164 143.879C132.035 143.591 137.746 144.783 137.787 146.508Z" fill="#2E5CFF"/>
<path opacity="0.4" d="M137.787 146.508C137.861 148.259 132.33 149.911 125.46 150.206C118.59 150.502 112.911 149.319 112.837 147.568C112.763 145.818 118.294 144.166 125.164 143.879C132.035 143.591 137.746 144.783 137.787 146.508Z" fill="white"/>
<path d="M136.201 146.426C136.198 146.536 136.161 146.643 136.094 146.73C135.273 145.703 130.687 145.087 125.238 145.333C119.79 145.58 115.262 146.558 114.555 147.651C114.474 147.569 114.425 147.461 114.415 147.347C114.366 146.163 119.198 144.98 125.222 144.725C131.246 144.47 136.144 145.276 136.201 146.426Z" fill="#2E5CFF"/>
<path opacity="0.4" d="M136.201 146.426C136.198 146.536 136.161 146.643 136.094 146.73C135.273 145.703 130.687 145.087 125.238 145.333C119.79 145.58 115.262 146.558 114.555 147.651C114.474 147.569 114.425 147.461 114.415 147.347C114.366 146.163 119.198 144.98 125.222 144.725C131.246 144.47 136.144 145.276 136.201 146.426Z" fill="#2E5CFF"/>
<path opacity="0.4" d="M136.103 146.763C135.355 147.864 130.859 148.85 125.419 149.081C119.979 149.311 115.377 148.711 114.563 147.683C115.286 146.59 119.79 145.596 125.247 145.366C130.703 145.136 135.281 145.736 136.103 146.763Z" fill="#2E5CFF"/>
<path d="M133.917 145.604C133.99 147.355 128.46 149.007 121.59 149.302C114.719 149.598 108.983 148.423 108.983 146.673C108.983 144.922 114.44 143.27 121.31 142.983C128.18 142.695 133.843 143.87 133.917 145.604Z" fill="#2E5CFF"/>
<path d="M133.789 142.445L108.812 143.505L108.947 146.666L133.923 145.606L133.789 142.445Z" fill="#2E5CFF"/>
<path d="M133.785 142.449C133.859 144.199 128.328 145.851 121.458 146.147C114.588 146.443 108.909 145.259 108.835 143.509C108.761 141.758 114.292 140.106 121.162 139.819C128.032 139.531 133.711 140.674 133.785 142.449Z" fill="#2E5CFF"/>
<path opacity="0.4" d="M133.785 142.449C133.859 144.199 128.328 145.851 121.458 146.147C114.588 146.443 108.909 145.259 108.835 143.509C108.761 141.758 114.292 140.106 121.162 139.819C128.032 139.531 133.711 140.674 133.785 142.449Z" fill="white"/>
<path d="M132.191 142.399C132.195 142.511 132.157 142.619 132.084 142.703C131.262 141.676 126.685 141.06 121.228 141.306C115.771 141.553 111.26 142.531 110.545 143.624C110.466 143.541 110.42 143.433 110.413 143.32C110.364 142.136 115.196 140.953 121.22 140.698C127.244 140.443 132.141 141.216 132.191 142.399Z" fill="#2E5CFF"/>
<path opacity="0.4" d="M132.191 142.399C132.195 142.511 132.157 142.619 132.084 142.703C131.262 141.676 126.685 141.06 121.228 141.306C115.771 141.553 111.26 142.531 110.545 143.624C110.466 143.541 110.42 143.433 110.413 143.32C110.364 142.136 115.196 140.953 121.22 140.698C127.244 140.443 132.141 141.216 132.191 142.399Z" fill="#2E5CFF"/>
<path opacity="0.4" d="M132.084 142.703C131.336 143.805 126.841 144.791 121.401 145.021C115.96 145.251 111.366 144.651 110.545 143.624C111.276 142.531 115.771 141.545 121.228 141.306C126.685 141.068 131.246 141.676 132.084 142.703Z" fill="#2E5CFF"/>
<path d="M136.546 140.821C136.62 142.572 131.09 144.224 124.219 144.52C117.349 144.815 111.679 143.632 111.605 141.882C111.531 140.131 117.053 138.479 123.932 138.192C130.81 137.904 136.464 139.079 136.546 140.821Z" fill="#2E5CFF"/>
<path d="M136.403 137.67L111.426 138.73L111.56 141.891L136.537 140.831L136.403 137.67Z" fill="#2E5CFF"/>
<path d="M136.407 137.658C136.481 139.408 130.95 141.06 124.08 141.356C117.209 141.651 111.531 140.468 111.457 138.718C111.383 136.967 116.914 135.324 123.784 135.028C130.654 134.732 136.333 135.915 136.407 137.658Z" fill="#2E5CFF"/>
<path opacity="0.4" d="M136.407 137.658C136.481 139.408 130.95 141.06 124.08 141.356C117.209 141.651 111.531 140.468 111.457 138.718C111.383 136.967 116.914 135.324 123.784 135.028C130.654 134.732 136.333 135.915 136.407 137.658Z" fill="white"/>
<path d="M134.812 137.608C134.816 137.722 134.778 137.833 134.706 137.921C133.884 136.893 129.306 136.277 123.85 136.515C118.393 136.754 113.881 137.74 113.166 138.833C113.091 138.748 113.045 138.641 113.035 138.529C112.985 137.345 117.818 136.162 123.841 135.907C129.865 135.652 134.763 136.425 134.812 137.608Z" fill="#2E5CFF"/>
<path opacity="0.4" d="M134.812 137.608C134.816 137.722 134.778 137.833 134.706 137.921C133.884 136.893 129.306 136.277 123.85 136.515C118.393 136.754 113.881 137.74 113.166 138.833C113.091 138.748 113.045 138.641 113.035 138.529C112.985 137.345 117.818 136.162 123.841 135.907C129.865 135.652 134.763 136.425 134.812 137.608Z" fill="#2E5CFF"/>
<path opacity="0.4" d="M134.705 137.921C133.966 139.014 129.462 140 124.022 140.23C118.582 140.46 113.988 139.86 113.166 138.833C113.898 137.74 118.393 136.754 123.85 136.515C129.306 136.277 133.875 136.893 134.705 137.921Z" fill="#2E5CFF"/>
<path d="M126.138 137.241C131.96 135.058 134.911 128.569 132.728 122.747C130.545 116.924 124.056 113.974 118.234 116.156C112.411 118.339 109.461 124.828 111.644 130.651C113.826 136.473 120.315 139.424 126.138 137.241Z" fill="#2E5CFF"/>
<path d="M132.001 134.552C136.031 129.817 135.459 122.711 130.724 118.681C125.989 114.651 118.883 115.223 114.853 119.958C110.823 124.693 111.395 131.799 116.13 135.829C120.865 139.859 127.971 139.287 132.001 134.552Z" fill="#2E5CFF"/>
<path opacity="0.4" d="M132.001 134.552C136.031 129.817 135.459 122.711 130.724 118.681C125.989 114.651 118.883 115.223 114.853 119.958C110.823 124.693 111.395 131.799 116.13 135.829C120.865 139.859 127.971 139.287 132.001 134.552Z" fill="white"/>
<path d="M131.098 130.722C130.408 132.238 129.283 133.515 127.867 134.392C126.451 135.269 124.807 135.707 123.143 135.65C121.478 135.592 119.867 135.043 118.515 134.071C117.163 133.099 116.129 131.747 115.544 130.187C114.959 128.628 114.85 126.93 115.231 125.308C115.611 123.686 116.463 122.214 117.68 121.077C118.897 119.939 120.424 119.188 122.068 118.919C123.712 118.649 125.398 118.873 126.915 119.562C128.949 120.488 130.532 122.183 131.316 124.276C132.1 126.368 132.022 128.687 131.098 130.722Z" fill="#2E5CFF"/>
<path opacity="0.3" d="M127.334 129.735C127.204 129.222 126.916 128.762 126.512 128.421C126.942 128.402 127.358 128.263 127.712 128.018C128.071 127.771 128.356 127.43 128.534 127.032C128.689 126.711 128.761 126.356 128.743 126C128.726 125.644 128.62 125.298 128.435 124.994C128.082 124.438 127.593 123.983 127.013 123.671L127.301 123.038L126.331 122.602L126.068 123.186L125.099 122.742L125.362 122.158L124.392 121.715L124.129 122.306L122.025 121.345L118.08 130.031L120.176 130.993L119.897 131.609L120.866 132.045L121.146 131.428L122.115 131.872L121.836 132.488L122.806 132.924L123.102 132.283C123.833 132.611 124.64 132.734 125.436 132.636C125.801 132.569 126.143 132.41 126.431 132.174C126.718 131.938 126.941 131.634 127.079 131.289C127.337 130.815 127.427 130.267 127.334 129.735ZM123.356 123.769L125.353 124.681C125.757 124.833 126.108 125.099 126.364 125.446C126.447 125.588 126.491 125.749 126.491 125.914C126.491 126.079 126.447 126.24 126.364 126.382C126.308 126.538 126.21 126.676 126.081 126.78C125.952 126.884 125.797 126.951 125.633 126.974C125.201 127.019 124.766 126.933 124.384 126.728L122.387 125.815L123.356 123.769ZM124.441 130.779C123.984 130.81 123.528 130.71 123.126 130.491L120.784 129.431L121.754 127.278L124.104 128.347C125.164 128.831 125.534 129.44 125.214 130.155C125.157 130.324 125.054 130.474 124.918 130.59C124.782 130.706 124.617 130.783 124.441 130.812V130.779Z" fill="white"/>
<path d="M229.541 190.984C229.286 192.011 225.802 192.02 221.759 190.984C217.715 189.949 214.642 188.313 214.897 187.294C215.151 186.275 218.644 186.259 222.687 187.294C226.73 188.33 229.788 189.982 229.541 190.984Z" fill="#2E5CFF"/>
<path d="M215.371 185.469L214.906 187.326L229.55 190.994L230.015 189.136L215.371 185.469Z" fill="#2E5CFF"/>
<path d="M230.009 189.16C229.746 190.187 226.262 190.195 222.219 189.16C218.176 188.124 215.11 186.497 215.365 185.47C215.62 184.443 219.104 184.434 223.147 185.47C227.191 186.505 230.264 188.108 230.009 189.16Z" fill="#2E5CFF"/>
<path opacity="0.4" d="M230.009 189.16C229.746 190.187 226.262 190.195 222.219 189.16C218.176 188.124 215.11 186.497 215.365 185.47C215.62 184.443 219.104 184.434 223.147 185.47C227.191 186.505 230.264 188.108 230.009 189.16Z" fill="white"/>
<path d="M229.089 188.823C229.082 188.857 229.068 188.888 229.048 188.917C229.029 188.945 229.003 188.969 228.974 188.987C228.67 188.248 226.131 187.113 222.934 186.316C219.737 185.519 216.951 185.314 216.359 185.823C216.343 185.758 216.343 185.691 216.359 185.626C216.54 184.927 219.54 185.075 223.074 185.955C226.607 186.834 229.27 188.132 229.089 188.823Z" fill="#2E5CFF"/>
<path opacity="0.4" d="M229.089 188.823C229.082 188.857 229.068 188.888 229.048 188.917C229.029 188.945 229.003 188.969 228.974 188.987C228.67 188.248 226.131 187.113 222.934 186.316C219.737 185.519 216.951 185.314 216.359 185.823C216.343 185.758 216.343 185.691 216.359 185.626C216.54 184.927 219.54 185.075 223.074 185.955C226.607 186.834 229.27 188.132 229.089 188.823Z" fill="#2E5CFF"/>
<path opacity="0.4" d="M228.966 188.987C228.349 189.488 225.58 189.291 222.391 188.494C219.203 187.697 216.639 186.555 216.343 185.823C216.959 185.314 219.729 185.511 222.917 186.316C226.106 187.122 228.67 188.247 228.966 188.987Z" fill="#2E5CFF"/>
<path d="M236.576 194.353C236.625 195.405 233.288 196.408 229.114 196.581C224.939 196.753 221.537 196.046 221.496 194.994C221.455 193.943 224.783 192.94 228.958 192.759C233.132 192.578 236.535 193.269 236.576 194.353Z" fill="#2E5CFF"/>
<path d="M236.478 192.458L221.395 193.098L221.476 195.011L236.559 194.371L236.478 192.458Z" fill="#2E5CFF"/>
<path d="M236.493 192.447C236.543 193.507 233.206 194.501 229.04 194.682C224.873 194.863 221.463 194.148 221.413 193.088C221.364 192.028 224.701 191.033 228.875 190.861C233.05 190.688 236.452 191.387 236.493 192.447Z" fill="#2E5CFF"/>
<path opacity="0.4" d="M236.493 192.447C236.543 193.507 233.206 194.501 229.04 194.682C224.873 194.863 221.463 194.148 221.413 193.088C221.364 192.028 224.701 191.033 228.875 190.861C233.05 190.688 236.452 191.387 236.493 192.447Z" fill="white"/>
<path d="M235.54 192.447C235.544 192.481 235.539 192.516 235.528 192.549C235.517 192.581 235.498 192.611 235.474 192.636C234.973 192.02 232.187 191.65 228.9 191.814C225.613 191.978 222.876 192.554 222.432 193.211C222.387 193.162 222.361 193.098 222.358 193.03C222.358 192.315 225.243 191.6 228.884 191.444C232.524 191.288 235.54 191.691 235.54 192.447Z" fill="#2E5CFF"/>
<path opacity="0.4" d="M235.54 192.447C235.544 192.481 235.539 192.516 235.528 192.549C235.517 192.581 235.498 192.611 235.474 192.636C234.973 192.02 232.187 191.65 228.9 191.814C225.613 191.978 222.876 192.554 222.432 193.211C222.387 193.162 222.361 193.098 222.358 193.03C222.358 192.315 225.243 191.6 228.884 191.444C232.524 191.288 235.54 191.691 235.54 192.447Z" fill="#2E5CFF"/>
<path opacity="0.4" d="M235.466 192.595C235.022 193.252 232.302 193.852 229.007 193.992C225.711 194.132 222.95 193.77 222.432 193.17C222.876 192.513 225.596 191.913 228.9 191.773C232.204 191.633 234.965 191.978 235.466 192.595Z" fill="#2E5CFF"/>
<path d="M228.639 190.588C232.051 185.39 230.603 178.41 225.404 174.998C220.206 171.586 213.226 173.034 209.814 178.232C206.402 183.43 207.85 190.41 213.048 193.822C218.247 197.234 225.227 195.786 228.639 190.588Z" fill="#2E5CFF"/>
<path d="M228.653 192.841C227.172 194.504 225.231 195.69 223.075 196.249C220.919 196.808 218.646 196.715 216.544 195.982C214.441 195.25 212.602 193.91 211.261 192.132C209.92 190.355 209.136 188.219 209.008 185.996C208.88 183.773 209.415 181.562 210.544 179.642C211.673 177.723 213.346 176.181 215.352 175.213C217.357 174.244 219.604 173.892 221.81 174.201C224.015 174.51 226.079 175.466 227.741 176.948C229.969 178.935 231.317 181.725 231.488 184.706C231.659 187.686 230.64 190.613 228.653 192.841Z" fill="#2E5CFF"/>
<path opacity="0.4" d="M228.653 192.841C227.172 194.504 225.231 195.69 223.075 196.249C220.919 196.808 218.646 196.715 216.544 195.982C214.441 195.25 212.602 193.91 211.261 192.132C209.92 190.355 209.136 188.219 209.008 185.996C208.88 183.773 209.415 181.562 210.544 179.642C211.673 177.723 213.346 176.181 215.352 175.213C217.357 174.244 219.604 173.892 221.81 174.201C224.015 174.51 226.079 175.466 227.741 176.948C229.969 178.935 231.317 181.725 231.488 184.706C231.659 187.686 230.64 190.613 228.653 192.841Z" fill="white"/>
<path d="M226.5 190.959C225.391 192.205 223.937 193.093 222.323 193.512C220.708 193.931 219.006 193.862 217.431 193.313C215.856 192.764 214.479 191.761 213.474 190.43C212.469 189.098 211.882 187.499 211.787 185.833C211.691 184.168 212.092 182.512 212.938 181.075C213.784 179.637 215.037 178.483 216.539 177.758C218.041 177.033 219.724 176.769 221.376 177.001C223.028 177.233 224.574 177.949 225.818 179.06C226.645 179.796 227.318 180.688 227.8 181.685C228.282 182.681 228.562 183.763 228.626 184.868C228.689 185.973 228.534 187.08 228.169 188.125C227.805 189.171 227.238 190.134 226.5 190.959Z" fill="#2E5CFF"/>
<g opacity="0.3">
<path d="M221.816 189.16C220.814 190.803 219.03 190.844 217.181 189.456L216.129 190.581L215.077 189.653L216.138 188.527C215.295 187.66 214.667 186.607 214.305 185.453L215.949 184.574C216.218 185.55 216.713 186.448 217.395 187.196L219.039 185.47C218.274 184.27 217.485 182.865 218.389 181.402C219.384 179.799 221.2 179.758 223.065 181.164L224.125 180.038L225.169 180.975L224.109 182.109C224.766 182.802 225.274 183.621 225.605 184.517L224.035 185.437C223.796 184.687 223.398 183.998 222.868 183.415L221.183 185.223C221.907 186.407 222.671 187.763 221.816 189.16ZM220.37 184.007L221.75 182.536C221.068 182.133 220.501 182.207 220.205 182.659C220.114 182.877 220.08 183.116 220.109 183.351C220.138 183.586 220.228 183.809 220.37 183.999V184.007ZM219.926 187.968C220.015 187.762 220.048 187.537 220.02 187.314C219.993 187.092 219.906 186.88 219.77 186.703L218.455 188.1C219.104 188.461 219.638 188.412 219.926 187.96V187.968Z" fill="white"/>
</g>
<path d="M80.8612 195.397C80.8201 196.449 84.1484 197.452 88.3232 197.624C92.4979 197.797 95.9001 197.09 95.9412 196.038C95.9823 194.986 92.654 193.984 88.4875 193.803C84.321 193.622 80.9105 194.337 80.8612 195.397Z" fill="#2E5CFF"/>
<path d="M80.9483 193.491L80.8671 195.404L95.95 196.044L96.0312 194.131L80.9483 193.491Z" fill="#2E5CFF"/>
<path d="M80.9434 193.482C80.8941 194.542 84.2306 195.537 88.4053 195.718C92.5801 195.898 95.9823 195.183 96.0234 194.123C96.0645 193.063 92.7362 192.069 88.5615 191.896C84.3867 191.724 80.9845 192.447 80.9434 193.482Z" fill="#2E5CFF"/>
<path opacity="0.4" d="M80.9434 193.482C80.8941 194.542 84.2306 195.537 88.4053 195.718C92.5801 195.898 95.9823 195.183 96.0234 194.123C96.0645 193.063 92.7362 192.069 88.5615 191.896C84.3867 191.724 80.9845 192.447 80.9434 193.482Z" fill="white"/>
<path d="M81.9049 193.45C81.9055 193.518 81.9286 193.584 81.9707 193.639C82.4719 193.022 85.2578 192.652 88.545 192.817C91.8322 192.981 94.5606 193.556 95.0044 194.222C95.0513 194.169 95.0801 194.103 95.0866 194.033C95.0866 193.318 92.1938 192.603 88.5615 192.455C84.9291 192.307 81.9378 192.735 81.9049 193.45Z" fill="#2E5CFF"/>
<path opacity="0.4" d="M81.9049 193.45C81.9055 193.518 81.9286 193.584 81.9707 193.639C82.4719 193.022 85.2578 192.652 88.545 192.817C91.8322 192.981 94.5606 193.556 95.0044 194.222C95.0513 194.169 95.0801 194.103 95.0866 194.033C95.0866 193.318 92.1938 192.603 88.5615 192.455C84.9291 192.307 81.9378 192.735 81.9049 193.45Z" fill="#2E5CFF"/>
<path opacity="0.4" d="M81.9706 193.639C82.4226 194.304 85.1346 194.896 88.43 195.036C91.7254 195.175 94.4949 194.814 95.0044 194.214C94.5606 193.548 91.8487 192.956 88.545 192.808C85.2414 192.661 82.4719 193.022 81.9706 193.639Z" fill="#2E5CFF"/>
<path d="M79.2751 192.504C79.2751 193.556 82.5623 194.559 86.7371 194.731C90.9118 194.904 94.3141 194.197 94.3551 193.145C94.3962 192.094 91.068 191.091 86.9014 190.91C82.7349 190.729 79.3245 191.452 79.2751 192.504Z" fill="#2E5CFF"/>
<path d="M79.3469 190.572L79.2657 192.486L94.3486 193.126L94.4298 191.213L79.3469 190.572Z" fill="#2E5CFF"/>
<path d="M79.3984 190.59C79.3984 191.65 82.6856 192.644 86.8604 192.825C91.0351 193.006 94.4374 192.291 94.4785 191.231C94.5195 190.17 91.1912 189.176 87.0247 189.004C82.8582 188.831 79.3984 189.538 79.3984 190.59Z" fill="#2E5CFF"/>
<path opacity="0.4" d="M79.3984 190.59C79.3984 191.65 82.6856 192.644 86.8604 192.825C91.0351 193.006 94.4374 192.291 94.4785 191.231C94.5195 190.17 91.1912 189.176 87.0247 189.004C82.8582 188.831 79.3984 189.538 79.3984 190.59Z" fill="white"/>
<path d="M80.3188 190.557C80.3194 190.625 80.3425 190.692 80.3845 190.746C80.8858 190.129 83.6717 189.768 86.9589 189.924C90.2461 190.08 92.9745 190.655 93.4183 191.321C93.4652 191.268 93.494 191.202 93.5004 191.132C93.5004 190.425 90.6077 189.702 86.9754 189.554C83.343 189.406 80.3517 189.842 80.3188 190.557Z" fill="#2E5CFF"/>
<path opacity="0.4" d="M80.3188 190.557C80.3194 190.625 80.3425 190.692 80.3845 190.746C80.8858 190.129 83.6717 189.768 86.9589 189.924C90.2461 190.08 92.9745 190.655 93.4183 191.321C93.4652 191.268 93.494 191.202 93.5004 191.132C93.5004 190.425 90.6077 189.702 86.9754 189.554C83.343 189.406 80.3517 189.842 80.3188 190.557Z" fill="#2E5CFF"/>
<path opacity="0.4" d="M80.3846 190.746C80.8366 191.411 83.5485 192.003 86.8439 192.143C90.1393 192.283 92.9088 191.921 93.4183 191.321C92.9745 190.655 90.2626 190.064 86.959 189.924C83.6553 189.784 80.8859 190.129 80.3846 190.746Z" fill="#2E5CFF"/>
<path d="M79.4806 189.02C79.4806 190.072 82.7678 191.074 86.9425 191.247C91.1173 191.42 94.5195 190.713 94.5606 189.661C94.6017 188.609 91.2734 187.607 87.1069 187.426C82.9404 187.245 79.5299 187.968 79.4806 189.02Z" fill="#2E5CFF"/>
<path d="M79.5477 187.088L79.4666 189.001L94.5494 189.642L94.6306 187.728L79.5477 187.088Z" fill="#2E5CFF"/>
<path d="M79.5627 187.105C79.5627 188.165 82.8499 189.16 87.0247 189.34C91.1994 189.521 94.6017 188.806 94.6428 187.746C94.6838 186.686 91.3556 185.692 87.189 185.519C83.0225 185.347 79.6121 186.053 79.5627 187.105Z" fill="#2E5CFF"/>
<path opacity="0.4" d="M79.5627 187.105C79.5627 188.165 82.8499 189.16 87.0247 189.34C91.1994 189.521 94.6017 188.806 94.6428 187.746C94.6838 186.686 91.3556 185.692 87.189 185.519C83.0225 185.347 79.6121 186.053 79.5627 187.105Z" fill="white"/>
<path d="M80.5243 187.072C80.5249 187.141 80.548 187.207 80.59 187.261C81.0913 186.645 83.8772 186.283 87.1644 186.44C90.4516 186.596 93.18 187.171 93.6238 187.837C93.6707 187.784 93.6995 187.718 93.706 187.648C93.706 186.941 90.8132 186.218 87.1809 186.07C83.5485 185.922 80.5572 186.366 80.5243 187.072Z" fill="#2E5CFF"/>
<path opacity="0.4" d="M80.5243 187.072C80.5249 187.141 80.548 187.207 80.59 187.261C81.0913 186.645 83.8772 186.283 87.1644 186.44C90.4516 186.596 93.18 187.171 93.6238 187.837C93.6707 187.784 93.6995 187.718 93.706 187.648C93.706 186.941 90.8132 186.218 87.1809 186.07C83.5485 185.922 80.5572 186.366 80.5243 187.072Z" fill="#2E5CFF"/>
<path opacity="0.4" d="M80.59 187.261C81.042 187.927 83.7539 188.519 87.0493 188.658C90.3447 188.798 93.1142 188.437 93.6237 187.837C93.1799 187.171 90.468 186.579 87.1644 186.44C83.8607 186.3 81.0913 186.645 80.59 187.261Z" fill="#2E5CFF"/>
<path d="M77.8945 186.127C77.8945 187.179 81.1817 188.182 85.3565 188.354C89.5312 188.527 92.9335 187.82 92.9828 186.768C93.0321 185.716 89.6956 184.714 85.5208 184.533C81.3461 184.352 77.9438 185.051 77.8945 186.127Z" fill="#2E5CFF"/>
<path d="M77.9713 184.203L77.8901 186.116L92.973 186.756L93.0542 184.843L77.9713 184.203Z" fill="#2E5CFF"/>
<path d="M77.9767 184.229C77.9356 185.289 81.2639 186.283 85.4386 186.464C89.6134 186.645 93.0156 185.93 93.0567 184.87C93.0978 183.81 89.7695 182.824 85.603 182.643C81.4365 182.462 78.026 183.161 77.9767 184.229Z" fill="#2E5CFF"/>
<path opacity="0.4" d="M77.9767 184.229C77.9356 185.289 81.2639 186.283 85.4386 186.464C89.6134 186.645 93.0156 185.93 93.0567 184.87C93.0978 183.81 89.7695 182.824 85.603 182.643C81.4365 182.462 78.026 183.161 77.9767 184.229Z" fill="white"/>
<path d="M78.9382 184.18C78.9388 184.248 78.9619 184.315 79.0039 184.369C79.5134 183.752 82.2911 183.391 85.5783 183.547C88.8655 183.703 91.6021 184.278 92.0376 184.944C92.0863 184.896 92.1155 184.831 92.1198 184.763C92.1198 184.048 89.2271 183.325 85.5947 183.177C81.9624 183.029 78.971 183.473 78.9382 184.18Z" fill="#2E5CFF"/>
<path opacity="0.4" d="M78.9382 184.18C78.9388 184.248 78.9619 184.315 79.0039 184.369C79.5134 183.752 82.2911 183.391 85.5783 183.547C88.8655 183.703 91.6021 184.278 92.0376 184.944C92.0863 184.896 92.1155 184.831 92.1198 184.763C92.1198 184.048 89.2271 183.325 85.5947 183.177C81.9624 183.029 78.971 183.473 78.9382 184.18Z" fill="#2E5CFF"/>
<path opacity="0.4" d="M79.004 184.369C79.456 185.034 82.1679 185.626 85.4633 185.766C88.7587 185.905 91.5282 185.544 92.0377 184.944C91.6021 184.278 88.882 183.687 85.5784 183.547C82.2747 183.407 79.5135 183.752 79.004 184.369Z" fill="#2E5CFF"/>
<path d="M80.3188 183.678C80.2695 184.73 83.606 185.733 87.7808 185.905C91.9555 186.078 95.3578 185.371 95.3989 184.319C95.4399 183.267 92.1117 182.265 87.9369 182.084C83.7622 181.903 80.3599 182.585 80.3188 183.678Z" fill="#2E5CFF"/>
<path d="M80.3853 181.743L80.3041 183.656L95.3869 184.296L95.4681 182.383L80.3853 181.743Z" fill="#2E5CFF"/>
<path d="M80.4009 181.764C80.3516 182.824 83.6881 183.818 87.8546 183.999C92.0212 184.18 95.4316 183.465 95.4809 182.405C95.5303 181.344 92.1937 180.35 88.019 180.177C83.8443 180.005 80.442 180.712 80.4009 181.764Z" fill="#2E5CFF"/>
<path opacity="0.4" d="M80.4009 181.764C80.3516 182.824 83.6881 183.818 87.8546 183.999C92.0212 184.18 95.4316 183.465 95.4809 182.405C95.5303 181.344 92.1937 180.35 88.019 180.177C83.8443 180.005 80.442 180.712 80.4009 181.764Z" fill="white"/>
<path d="M81.3625 181.763C81.3591 181.798 81.3633 181.833 81.3746 181.865C81.386 181.898 81.4043 181.928 81.4283 181.953C81.9296 181.336 84.7155 180.966 88.0027 181.131C91.2899 181.295 94.0265 181.87 94.4702 182.528C94.5158 182.478 94.5421 182.414 94.5442 182.347C94.5442 181.632 91.6597 180.917 88.0191 180.761C84.3786 180.605 81.3872 181.016 81.3625 181.763Z" fill="#2E5CFF"/>
<path opacity="0.4" d="M81.3625 181.763C81.3591 181.798 81.3633 181.833 81.3746 181.865C81.386 181.898 81.4043 181.928 81.4283 181.953C81.9296 181.336 84.7155 180.966 88.0027 181.131C91.2899 181.295 94.0265 181.87 94.4702 182.528C94.5158 182.478 94.5421 182.414 94.5442 182.347C94.5442 181.632 91.6597 180.917 88.0191 180.761C84.3786 180.605 81.3872 181.016 81.3625 181.763Z" fill="#2E5CFF"/>
<path opacity="0.4" d="M81.4282 181.92C81.872 182.577 84.5921 183.177 87.8876 183.317C91.183 183.456 93.9442 183.095 94.462 182.495C94.0182 181.837 91.298 181.238 87.9944 181.098C84.6908 180.958 81.9295 181.303 81.4282 181.92Z" fill="#2E5CFF"/>
<path d="M69.6847 195.225C69.9395 196.252 73.4322 196.26 77.4754 195.225C81.5187 194.189 84.584 192.562 84.3292 191.535C84.0744 190.507 80.59 190.499 76.5468 191.535C72.5035 192.57 69.43 194.206 69.6847 195.225Z" fill="#2E5CFF"/>
<path d="M83.8678 189.701L69.2236 193.368L69.6888 195.225L84.333 191.558L83.8678 189.701Z" fill="#2E5CFF"/>
<path d="M69.2246 193.376C69.4793 194.395 72.9637 194.411 77.007 193.376C81.0502 192.34 84.1238 190.713 83.8608 189.694C83.5978 188.675 80.1216 188.658 76.0784 189.694C72.0351 190.729 68.9616 192.348 69.2246 193.376Z" fill="#2E5CFF"/>
<path opacity="0.4" d="M69.2246 193.376C69.4793 194.395 72.9637 194.411 77.007 193.376C81.0502 192.34 84.1238 190.713 83.8608 189.694C83.5978 188.675 80.1216 188.658 76.0784 189.694C72.0351 190.729 68.9616 192.348 69.2246 193.376Z" fill="white"/>
<path d="M70.1367 193.071C70.1545 193.136 70.1955 193.192 70.2518 193.228C70.5559 192.496 73.0952 191.362 76.3002 190.557C79.5052 189.751 82.2747 189.554 82.8746 190.064C82.8994 190 82.8994 189.93 82.8746 189.866C82.702 189.176 79.6943 189.316 76.1687 190.203C72.6432 191.091 69.9642 192.373 70.1367 193.071Z" fill="#2E5CFF"/>
<path opacity="0.4" d="M70.1367 193.071C70.1545 193.136 70.1955 193.192 70.2518 193.228C70.5559 192.496 73.0952 191.362 76.3002 190.557C79.5052 189.751 82.2747 189.554 82.8746 190.064C82.8994 190 82.8994 189.93 82.8746 189.866C82.702 189.176 79.6943 189.316 76.1687 190.203C72.6432 191.091 69.9642 192.373 70.1367 193.071Z" fill="#2E5CFF"/>
<path opacity="0.4" d="M70.2518 193.269C70.8681 193.778 73.6458 193.581 76.8262 192.776C80.0065 191.97 82.5788 190.844 82.8746 190.105C82.2583 189.595 79.4888 189.801 76.3002 190.598C73.1116 191.395 70.5558 192.496 70.2518 193.269Z" fill="#2E5CFF"/>
<path d="M62.6912 195.397C62.6912 196.449 65.9784 197.452 70.1532 197.624C74.3279 197.797 77.7301 197.09 77.7712 196.038C77.8123 194.986 74.484 193.984 70.3175 193.803C66.151 193.622 62.7405 194.337 62.6912 195.397Z" fill="#2E5CFF"/>
<path d="M62.764 193.466L62.6829 195.379L77.7657 196.019L77.8469 194.106L62.764 193.466Z" fill="#2E5CFF"/>
<path d="M62.7734 193.482C62.7324 194.542 66.0606 195.537 70.2354 195.718C74.4101 195.898 77.8124 195.183 77.8534 194.123C77.8945 193.063 74.5663 192.069 70.3997 191.896C66.2332 191.724 62.8228 192.447 62.7734 193.482Z" fill="#2E5CFF"/>
<path opacity="0.4" d="M62.7734 193.482C62.7324 194.542 66.0606 195.537 70.2354 195.718C74.4101 195.898 77.8124 195.183 77.8534 194.123C77.8945 193.063 74.5663 192.069 70.3997 191.896C66.2332 191.724 62.8228 192.447 62.7734 193.482Z" fill="white"/>
<path d="M63.7349 193.45C63.7355 193.518 63.7586 193.584 63.8007 193.639C64.302 193.022 67.0879 192.652 70.3751 192.817C73.6623 192.981 76.3906 193.556 76.8344 194.222C76.8813 194.169 76.9102 194.103 76.9166 194.033C76.9166 193.318 74.0238 192.603 70.3915 192.455C66.7591 192.307 63.7842 192.735 63.7349 193.45Z" fill="#2E5CFF"/>
<path opacity="0.4" d="M63.7349 193.45C63.7355 193.518 63.7586 193.584 63.8007 193.639C64.302 193.022 67.0879 192.652 70.3751 192.817C73.6623 192.981 76.3906 193.556 76.8344 194.222C76.8813 194.169 76.9102 194.103 76.9166 194.033C76.9166 193.318 74.0238 192.603 70.3915 192.455C66.7591 192.307 63.7842 192.735 63.7349 193.45Z" fill="#2E5CFF"/>
<path opacity="0.4" d="M63.7842 193.639C64.2362 194.304 66.9482 194.896 70.2436 195.036C73.539 195.175 76.3085 194.814 76.818 194.214C76.3742 193.548 73.6623 192.956 70.3586 192.808C67.055 192.661 64.302 193.022 63.7842 193.639Z" fill="#2E5CFF"/>
<path d="M140.59 195.307C140.54 196.392 143.975 197.419 148.257 197.6C152.538 197.78 156.048 197.049 156.097 195.956C156.146 194.863 152.703 193.852 148.421 193.663C144.14 193.474 140.631 194.222 140.59 195.307Z" fill="#2E5CFF"/>
<path d="M140.655 193.318L140.572 195.28L156.082 195.938L156.165 193.976L140.655 193.318Z" fill="#2E5CFF"/>
<path d="M140.672 193.343C140.622 194.427 144.058 195.455 148.339 195.635C152.621 195.816 156.13 195.085 156.179 193.992C156.228 192.899 152.793 191.888 148.503 191.699C144.214 191.51 140.713 192.258 140.672 193.343Z" fill="#2E5CFF"/>
<path opacity="0.4" d="M140.672 193.343C140.622 194.427 144.058 195.455 148.339 195.635C152.621 195.816 156.13 195.085 156.179 193.992C156.228 192.899 152.793 191.888 148.503 191.699C144.214 191.51 140.713 192.258 140.672 193.343Z" fill="white"/>
<path d="M141.658 193.31C141.66 193.381 141.682 193.449 141.724 193.507C142.241 192.866 145.077 192.496 148.471 192.636C151.865 192.776 154.659 193.392 155.111 194.074C155.161 194.024 155.191 193.956 155.193 193.885C155.193 193.154 152.226 192.414 148.487 192.241C144.748 192.069 141.691 192.578 141.658 193.31Z" fill="#2E5CFF"/>
<path opacity="0.4" d="M141.658 193.31C141.66 193.381 141.682 193.449 141.724 193.507C142.241 192.866 145.077 192.496 148.471 192.636C151.865 192.776 154.659 193.392 155.111 194.074C155.161 194.024 155.191 193.956 155.193 193.885C155.193 193.154 152.226 192.414 148.487 192.241C144.748 192.069 141.691 192.578 141.658 193.31Z" fill="#2E5CFF"/>
<path opacity="0.4" d="M141.724 193.507C142.192 194.181 145.011 194.797 148.372 194.945C151.733 195.093 154.601 194.715 155.111 194.074C154.659 193.392 151.865 192.784 148.471 192.636C145.077 192.488 142.241 192.866 141.724 193.507Z" fill="#2E5CFF"/>
<path d="M138.954 192.332C138.913 193.417 142.348 194.444 146.63 194.633C150.911 194.822 154.42 194.082 154.462 192.989C154.503 191.896 151.076 190.877 146.794 190.688C142.513 190.499 139.003 191.247 138.954 192.332Z" fill="#2E5CFF"/>
<path d="M139.036 190.363L138.952 192.325L154.462 192.984L154.545 191.021L139.036 190.363Z" fill="#2E5CFF"/>
<path d="M139.045 190.368C138.995 191.453 142.43 192.48 146.712 192.669C150.994 192.858 154.503 192.118 154.552 191.025C154.601 189.932 151.158 188.913 146.876 188.724C142.595 188.535 139.086 189.283 139.045 190.368Z" fill="#2E5CFF"/>
<path opacity="0.4" d="M139.045 190.368C138.995 191.453 142.43 192.48 146.712 192.669C150.994 192.858 154.503 192.118 154.552 191.025C154.601 189.932 151.158 188.913 146.876 188.724C142.595 188.535 139.086 189.283 139.045 190.368Z" fill="white"/>
<path d="M140.031 190.335C140.032 190.406 140.055 190.474 140.096 190.532C140.614 189.891 143.449 189.521 146.835 189.661C150.221 189.801 153.032 190.417 153.484 191.099C153.53 191.047 153.559 190.98 153.566 190.91C153.566 190.179 150.591 189.439 146.852 189.267C143.112 189.094 140.064 189.603 140.031 190.335Z" fill="#2E5CFF"/>
<path opacity="0.4" d="M140.031 190.335C140.032 190.406 140.055 190.474 140.096 190.532C140.614 189.891 143.449 189.521 146.835 189.661C150.221 189.801 153.032 190.417 153.484 191.099C153.53 191.047 153.559 190.98 153.566 190.91C153.566 190.179 150.591 189.439 146.852 189.267C143.112 189.094 140.064 189.603 140.031 190.335Z" fill="#2E5CFF"/>
<path opacity="0.4" d="M140.096 190.532C140.557 191.206 143.384 191.822 146.737 191.97C150.09 192.118 152.974 191.74 153.484 191.099C153.032 190.417 150.238 189.809 146.835 189.661C143.433 189.513 140.614 189.891 140.096 190.532Z" fill="#2E5CFF"/>
<path d="M142.455 190.138C142.406 191.214 145.841 192.241 150.122 192.43C154.404 192.619 157.913 191.88 157.962 190.787C158.012 189.694 154.568 188.675 150.287 188.494C146.005 188.313 142.496 189.053 142.455 190.138Z" fill="#2E5CFF"/>
<path d="M142.522 188.153L142.439 190.115L157.949 190.773L158.032 188.811L142.522 188.153Z" fill="#2E5CFF"/>
<path d="M142.537 188.165C142.488 189.25 145.923 190.277 150.205 190.466C154.486 190.655 157.995 189.916 158.045 188.823C158.094 187.73 154.651 186.711 150.369 186.53C146.087 186.349 142.578 187.089 142.537 188.165Z" fill="#2E5CFF"/>
<path opacity="0.4" d="M142.537 188.165C142.488 189.25 145.923 190.277 150.205 190.466C154.486 190.655 157.995 189.916 158.045 188.823C158.094 187.73 154.651 186.711 150.369 186.53C146.087 186.349 142.578 187.089 142.537 188.165Z" fill="white"/>
<path d="M143.499 188.132C143.5 188.203 143.523 188.272 143.564 188.33C144.082 187.689 146.917 187.319 150.303 187.459C153.689 187.598 156.5 188.215 156.952 188.897C156.999 188.844 157.027 188.778 157.034 188.708C157.034 187.976 154.059 187.237 150.32 187.064C146.58 186.892 143.556 187.401 143.499 188.132Z" fill="#2E5CFF"/>
<path opacity="0.4" d="M143.499 188.132C143.5 188.203 143.523 188.272 143.564 188.33C144.082 187.689 146.917 187.319 150.303 187.459C153.689 187.598 156.5 188.215 156.952 188.897C156.999 188.844 157.027 188.778 157.034 188.708C157.034 187.976 154.059 187.237 150.32 187.064C146.58 186.892 143.556 187.401 143.499 188.132Z" fill="#2E5CFF"/>
<path opacity="0.4" d="M143.589 188.338C144.049 189.02 146.876 189.628 150.229 189.776C153.582 189.924 156.467 189.546 156.976 188.905C156.524 188.223 153.73 187.615 150.328 187.467C146.926 187.319 144.107 187.689 143.589 188.338Z" fill="#2E5CFF"/>
<path d="M142.496 187.163C142.447 188.247 145.882 189.275 150.164 189.456C154.445 189.636 157.954 188.905 158.003 187.812C158.053 186.719 154.609 185.7 150.328 185.519C146.046 185.338 142.537 186.078 142.496 187.163Z" fill="#2E5CFF"/>
<path d="M142.281 184.182L142.203 186.146L157.726 186.767L157.805 184.803L142.281 184.182Z" fill="#2E5CFF"/>
<path d="M142.578 185.199C142.529 186.283 145.964 187.311 150.246 187.491C154.527 187.672 158.036 186.941 158.086 185.848C158.135 184.755 154.692 183.736 150.41 183.555C146.129 183.374 142.619 184.114 142.578 185.199Z" fill="#2E5CFF"/>
<path opacity="0.4" d="M142.578 185.199C142.529 186.283 145.964 187.311 150.246 187.491C154.527 187.672 158.036 186.941 158.086 185.848C158.135 184.755 154.692 183.736 150.41 183.555C146.129 183.374 142.619 184.114 142.578 185.199Z" fill="white"/>
<path d="M143.564 185.166C143.566 185.234 143.589 185.3 143.63 185.355C144.148 184.714 146.983 184.344 150.369 184.484C153.755 184.623 156.565 185.248 157.017 185.922C157.068 185.872 157.097 185.804 157.099 185.733C157.099 185.001 154.133 184.262 150.385 184.089C146.638 183.917 143.597 184.426 143.564 185.166Z" fill="#2E5CFF"/>
<path opacity="0.4" d="M143.564 185.166C143.566 185.234 143.589 185.3 143.63 185.355C144.148 184.714 146.983 184.344 150.369 184.484C153.755 184.623 156.565 185.248 157.017 185.922C157.068 185.872 157.097 185.804 157.099 185.733C157.099 185.001 154.133 184.262 150.385 184.089C146.638 183.917 143.597 184.426 143.564 185.166Z" fill="#2E5CFF"/>
<path opacity="0.4" d="M143.63 185.355C144.09 186.037 146.917 186.645 150.279 186.793C153.64 186.941 156.508 186.563 157.017 185.922C156.565 185.248 153.771 184.632 150.369 184.484C146.967 184.336 144.148 184.714 143.63 185.355Z" fill="#2E5CFF"/>
<path d="M139.308 184.73C139.258 185.815 142.693 186.842 146.975 187.023C151.257 187.204 154.766 186.472 154.815 185.379C154.864 184.286 151.429 183.267 147.147 183.087C142.866 182.906 139.39 183.645 139.308 184.73Z" fill="#2E5CFF"/>
<path d="M139.401 182.785L139.317 184.747L154.827 185.408L154.91 183.446L139.401 182.785Z" fill="#2E5CFF"/>
<path d="M139.39 182.766C139.34 183.851 142.776 184.878 147.057 185.059C151.339 185.24 154.848 184.508 154.897 183.415C154.946 182.322 151.511 181.303 147.23 181.122C142.948 180.942 139.439 181.681 139.39 182.766Z" fill="#2E5CFF"/>
<path opacity="0.4" d="M139.39 182.766C139.34 183.851 142.776 184.878 147.057 185.059C151.339 185.24 154.848 184.508 154.897 183.415C154.946 182.322 151.511 181.303 147.23 181.122C142.948 180.942 139.439 181.681 139.39 182.766Z" fill="white"/>
<path d="M140.376 182.733C140.378 182.802 140.401 182.868 140.442 182.922C140.968 182.289 143.803 181.911 147.189 182.059C150.574 182.207 153.377 182.815 153.829 183.489C153.879 183.442 153.908 183.377 153.911 183.308C153.911 182.569 150.944 181.837 147.205 181.665C143.466 181.492 140.409 181.994 140.376 182.733Z" fill="#2E5CFF"/>
<path opacity="0.4" d="M140.376 182.733C140.378 182.802 140.401 182.868 140.442 182.922C140.968 182.289 143.803 181.911 147.189 182.059C150.574 182.207 153.377 182.815 153.829 183.489C153.879 183.442 153.908 183.377 153.911 183.308C153.911 182.569 150.944 181.837 147.205 181.665C143.466 181.492 140.409 181.994 140.376 182.733Z" fill="#2E5CFF"/>
<path opacity="0.4" d="M140.442 182.922C140.91 183.604 143.729 184.221 147.09 184.36C150.451 184.5 153.319 184.13 153.829 183.489C153.377 182.815 150.583 182.199 147.189 182.059C143.795 181.92 140.968 182.289 140.442 182.922Z" fill="#2E5CFF"/>
<path d="M159.327 190.647C158.875 191.609 161.57 193.819 165.342 195.578C169.114 197.337 172.541 198.043 172.985 197.057C173.429 196.071 170.741 193.893 166.969 192.126C163.197 190.36 159.77 189.694 159.327 190.647Z" fill="#2E5CFF"/>
<path d="M160.143 188.945L159.328 190.678L172.992 197.099L173.806 195.366L160.143 188.945Z" fill="#2E5CFF"/>
<path d="M160.14 188.921C159.688 189.875 162.384 192.085 166.156 193.852C169.928 195.619 173.355 196.318 173.798 195.331C174.242 194.345 171.555 192.159 167.783 190.401C164.011 188.642 160.584 187.96 160.14 188.921Z" fill="#2E5CFF"/>
<path opacity="0.4" d="M160.14 188.921C159.688 189.875 162.384 192.085 166.156 193.852C169.928 195.619 173.355 196.318 173.798 195.331C174.242 194.345 171.555 192.159 167.783 190.401C164.011 188.642 160.584 187.96 160.14 188.921Z" fill="white"/>
<path d="M161.036 189.258C161.011 189.322 161.011 189.392 161.036 189.456C161.734 189.086 164.422 189.809 167.405 191.214C170.388 192.619 172.673 194.222 172.829 195.003C172.89 194.974 172.94 194.925 172.968 194.863C173.272 194.214 170.856 192.398 167.561 190.877C164.266 189.357 161.34 188.617 161.036 189.258Z" fill="#2E5CFF"/>
<path opacity="0.4" d="M161.036 189.258C161.011 189.322 161.011 189.392 161.036 189.456C161.734 189.086 164.422 189.809 167.405 191.214C170.388 192.619 172.673 194.222 172.829 195.003C172.89 194.974 172.94 194.925 172.968 194.863C173.272 194.214 170.856 192.398 167.561 190.877C164.266 189.357 161.34 188.617 161.036 189.258Z" fill="#2E5CFF"/>
<path opacity="0.4" d="M161.028 189.456C161.184 190.277 163.493 191.839 166.443 193.244C169.394 194.649 172.122 195.381 172.82 195.003C172.664 194.222 170.355 192.619 167.397 191.214C164.438 189.809 161.726 189.086 161.028 189.456Z" fill="#2E5CFF"/>
<path d="M151.396 194.041C151.355 195.093 154.683 196.087 158.858 196.268C163.033 196.449 166.435 195.734 166.484 194.682C166.534 193.63 163.197 192.628 159.023 192.447C154.848 192.266 151.445 192.981 151.396 194.041Z" fill="#2E5CFF"/>
<path d="M151.468 192.1L151.386 194.013L166.469 194.653L166.551 192.74L151.468 192.1Z" fill="#2E5CFF"/>
<path d="M151.478 192.126C151.478 193.178 154.766 194.181 158.94 194.362C163.115 194.542 166.517 193.819 166.558 192.767C166.599 191.715 163.271 190.713 159.105 190.54C154.938 190.368 151.528 191.074 151.478 192.126Z" fill="#2E5CFF"/>
<path opacity="0.4" d="M151.478 192.126C151.478 193.178 154.766 194.181 158.94 194.362C163.115 194.542 166.517 193.819 166.558 192.767C166.599 191.715 163.271 190.713 159.105 190.54C154.938 190.368 151.528 191.074 151.478 192.126Z" fill="white"/>
<path d="M152.44 192.094C152.441 192.162 152.464 192.228 152.506 192.283C153.015 191.658 155.793 191.296 159.08 191.461C162.367 191.625 165.104 192.2 165.539 192.858C165.589 192.811 165.619 192.746 165.622 192.677C165.622 191.962 162.729 191.247 159.097 191.091C155.464 190.935 152.473 191.379 152.44 192.094Z" fill="#2E5CFF"/>
<path opacity="0.4" d="M152.44 192.094C152.441 192.162 152.464 192.228 152.506 192.283C153.015 191.658 155.793 191.296 159.08 191.461C162.367 191.625 165.104 192.2 165.539 192.858C165.589 192.811 165.619 192.746 165.622 192.677C165.622 191.962 162.729 191.247 159.097 191.091C155.464 190.935 152.473 191.379 152.44 192.094Z" fill="#2E5CFF"/>
<path opacity="0.4" d="M152.539 192.282C152.991 192.94 155.702 193.54 158.998 193.68C162.293 193.819 165.063 193.458 165.572 192.858C165.137 192.2 162.417 191.6 159.113 191.461C155.809 191.321 153.015 191.625 152.539 192.282Z" fill="#2E5CFF"/>
<path d="M53.3473 25.3694L59.634 33.8997L95.8589 18.8608L131.172 31.4179L163.164 10.7332L165.457 13.7738L173.059 1.3318L156.023 0.000488281L158.636 3.44383L126.619 23.9395L91.8321 11.5961L53.3473 25.3694Z" fill="#2E5CFF"/>
<g opacity="0.5">
<path d="M53.347 25.3689L59.6337 33.8992L95.8586 18.8603L131.171 31.4174L163.164 10.7327L165.457 13.7733L173.058 1.33132L156.023 0L158.636 3.44334L126.619 23.939L91.8318 11.5956L53.347 25.3689Z" fill="white"/>
</g>
</svg>
