<svg width="332" height="331" viewBox="0 0 332 331" fill="none" xmlns="http://www.w3.org/2000/svg">
<path d="M187.057 328.827C174.021 322.464 168.826 307.336 166.989 293.245C166.679 290.905 166.028 288.472 166.769 286.226C167.51 283.98 169.794 282.148 171.987 282.78C173.809 283.302 174.875 285.189 176.093 286.679C177.712 288.688 179.852 290.181 182.263 290.983C183.836 291.506 185.703 291.669 186.996 290.609C188.766 289.151 188.509 286.328 188.146 284.004C187.405 279.694 186.679 275.384 185.968 271.075C185.456 268.775 185.305 266.405 185.522 264.056C185.855 261.717 187.072 259.378 189.114 258.411C191.155 257.444 194.021 258.231 194.845 260.43C195.088 261.376 195.27 262.337 195.39 263.308C195.609 264.267 196.221 265.257 197.151 265.374C198.081 265.491 198.89 264.673 199.458 263.869C201.393 261.117 202.482 257.818 203.465 254.551C204.448 251.283 205.371 247.954 207.064 245.021C208.758 242.089 211.344 239.563 214.543 238.783C217.741 238.003 221.522 239.485 222.86 242.612C224.199 245.739 222.906 249.396 221.348 252.406C218.982 256.863 216.005 260.945 212.509 264.524C211.811 265.097 211.308 265.884 211.072 266.77C210.838 268.408 212.516 269.702 214.097 269.952C215.866 270.233 217.666 269.733 219.458 269.64C221.25 269.546 223.284 270.014 224.236 271.613C225.545 273.827 224.025 276.658 222.399 278.631C219.134 282.562 215.239 285.885 210.883 288.457C209.325 289.369 207.669 290.227 206.528 291.662C205.386 293.096 204.925 295.327 205.998 296.824C207.072 298.321 209.242 298.485 210.921 297.845C212.599 297.206 213.998 295.966 215.548 295.038C218.452 293.291 222.49 292.808 224.932 295.225C225.694 296.07 226.255 297.087 226.571 298.193C226.887 299.3 226.95 300.468 226.754 301.604C226.352 303.867 225.511 306.024 224.282 307.944C220.366 314.886 214.735 320.633 207.964 324.6C201.197 328.421 194.649 330.285 187.064 328.835" fill="#F5F5F5"/>
<path d="M189.122 319.422C190.124 311.397 191.574 303.438 193.462 295.584L194.914 289.4C195.39 287.365 195.866 285.353 196.426 283.419C197.557 279.707 198.884 276.063 200.403 272.502C201.832 269.086 203.307 265.889 204.706 262.918C206.105 259.947 207.473 257.202 208.819 254.761C210.92 250.89 213.317 247.197 215.987 243.719C216.933 242.487 217.696 241.559 218.218 240.935C218.468 240.639 218.672 240.405 218.815 240.226C218.959 240.046 219.027 239.992 219.035 239.999C218.98 240.089 218.919 240.175 218.853 240.257L218.279 240.99C217.78 241.629 217.038 242.549 216.116 243.82C213.504 247.333 211.151 251.042 209.076 254.917C207.753 257.366 206.407 260.111 205.016 263.082C203.624 266.053 202.173 269.25 200.759 272.665C199.253 276.227 197.94 279.871 196.827 283.583C196.244 285.509 195.776 287.482 195.314 289.54L193.863 295.732C191.978 303.57 190.522 311.51 189.5 319.516" fill="#E0E0E0"/>
<path d="M196.554 283.387C196.391 283.084 196.261 282.762 196.169 282.428C195.942 281.812 195.647 280.869 195.299 279.769C194.604 277.508 193.742 274.35 192.804 270.872C191.866 267.394 190.967 264.251 190.233 262.013C189.87 260.89 189.568 259.978 189.356 259.362C189.229 259.041 189.13 258.71 189.061 258.371C189.243 258.662 189.393 258.973 189.507 259.299C189.772 259.9 190.112 260.797 190.513 261.904C191.322 264.134 192.267 267.261 193.212 270.755C194.157 274.248 194.951 277.305 195.587 279.676C195.881 280.752 196.123 281.656 196.343 282.381C196.442 282.71 196.513 283.046 196.554 283.387Z" fill="#E0E0E0"/>
<path d="M224.645 272.735C224.279 272.893 223.899 273.01 223.51 273.086C222.754 273.281 221.718 273.562 220.418 273.952C217.809 274.732 214.248 275.886 210.369 277.367C206.49 278.849 203.034 280.354 200.539 281.508C199.299 282.077 198.308 282.569 197.62 282.904C197.274 283.098 196.912 283.26 196.539 283.387C196.851 283.139 197.188 282.925 197.544 282.748C198.21 282.366 199.185 281.836 200.41 281.188C202.853 279.956 206.301 278.405 210.187 276.915C213.504 275.635 216.884 274.534 220.312 273.617C221.628 273.258 222.701 273.024 223.45 272.876C223.843 272.791 224.243 272.744 224.645 272.735Z" fill="#E0E0E0"/>
<path d="M189.386 318.822C189.289 318.72 189.203 318.607 189.129 318.486L188.456 317.496C187.874 316.623 187.065 315.352 186.09 313.761C184.124 310.579 181.553 306.095 178.778 301.105C176.003 296.114 173.485 291.614 171.572 288.402L169.303 284.588L168.698 283.551C168.618 283.436 168.555 283.31 168.509 283.177C168.509 283.177 168.607 283.278 168.766 283.505C168.925 283.731 169.175 284.097 169.439 284.503C170.021 285.368 170.831 286.639 171.814 288.238C173.772 291.42 176.35 295.896 179.125 300.886C181.901 305.877 184.418 310.377 186.324 313.597L188.592 317.403C188.834 317.816 189.039 318.182 189.197 318.44C189.278 318.557 189.342 318.685 189.386 318.822Z" fill="#E0E0E0"/>
<path d="M225.818 299.288C225.711 299.384 225.592 299.463 225.462 299.522L224.411 300.099L220.51 302.196C217.213 303.974 212.691 306.478 207.701 309.215C202.71 311.952 198.166 314.455 194.846 316.155C193.183 317.005 191.821 317.714 190.884 318.128L189.75 318.642C189.625 318.711 189.493 318.763 189.356 318.798C189.465 318.705 189.584 318.626 189.712 318.564L190.77 317.987L194.672 315.882C197.961 314.112 202.483 311.609 207.474 308.864C212.464 306.119 217.016 303.631 220.328 301.931C221.992 301.081 223.353 300.372 224.29 299.958L225.379 299.444C225.517 299.369 225.665 299.316 225.818 299.288Z" fill="#E0E0E0"/>
<path d="M92.51 161.442C92.51 161.442 83.527 162.729 88.5705 183.019C93.614 203.309 97.8938 213.774 97.8938 213.774C97.8938 213.774 98.5667 218.367 94.975 218.227C91.3833 218.087 84.0563 215.108 81.5686 219.077C78.9977 223.226 81.251 228.216 86.8616 233.449C92.4722 238.681 104.434 250.605 105.508 251.688C106.582 252.772 107.368 255.003 104.903 255.307C102.438 255.611 84.9561 253.498 84.4873 262.114C84.0185 270.731 102.037 282.647 103.981 283.988C105.924 285.329 106.249 286.374 105.795 287.544C105.342 288.714 99.5497 287.427 94.5516 287.029C89.5535 286.631 83.6858 287.092 83.8143 292.082C83.9429 297.073 93.4098 309.706 121.009 319.095L134.083 322.58L143.739 312.77C163.172 290.476 165.297 274.669 163.006 270.271C160.714 265.873 155.444 268.485 151.255 271.386C147.066 274.287 142.68 278.405 141.743 277.625C140.805 276.845 140.563 275.769 141.607 273.609C142.65 271.449 152.548 251.876 147.981 244.639C143.414 237.402 129.259 248.179 126.99 249.17C124.722 250.16 124.314 247.805 124.722 246.339C125.13 244.873 129.743 228.404 132.117 220.956C134.491 213.509 134.038 208.035 129.803 205.758C125.72 203.567 120.813 209.93 117.758 211.895C114.703 213.86 113.085 209.556 113.085 209.556C113.085 209.556 111.754 198.288 106.355 178.091C100.956 157.894 92.3436 161.512 92.3436 161.512" fill="#EBEBEB"/>
<path d="M134.074 325.934C130.165 311.117 123.639 284.604 117.93 261.842C112.221 239.079 107.034 218.555 103.193 203.692C101.272 196.268 99.7148 190.263 98.6562 186.092C98.1269 184.025 97.711 182.411 97.4236 181.304L97.1061 180.056C97.038 179.775 97.0153 179.627 97.0153 179.627C97.0153 179.627 97.0682 179.76 97.1514 180.04C97.2346 180.321 97.348 180.75 97.4993 181.28C97.8093 182.387 98.2554 183.986 98.815 186.045C99.9492 190.185 101.552 196.182 103.503 203.606C107.412 218.422 112.652 239.017 118.361 261.732C124.07 284.448 130.543 310.985 134.384 325.848" fill="#E0E0E0"/>
<path d="M91.6538 223.709C91.9558 223.838 92.2446 223.997 92.5158 224.185C93.0527 224.513 93.8239 225.012 94.7843 225.635C96.6671 226.891 99.2304 228.692 102.021 230.728L109.143 235.968L111.314 237.527C111.587 237.703 111.841 237.91 112.07 238.143C111.765 238.016 111.473 237.857 111.2 237.668C110.663 237.34 109.892 236.841 108.932 236.21C107.064 234.939 104.523 233.09 101.733 231.063L94.5725 225.877L92.3948 224.318C92.1275 224.143 91.8791 223.939 91.6538 223.709Z" fill="#E0E0E0"/>
<path d="M113.166 237.496C113.067 237.434 116.432 231.827 120.674 224.972C124.916 218.118 128.447 212.612 128.546 212.675C128.644 212.737 125.279 218.352 121.03 225.206C116.78 232.061 113.264 237.543 113.166 237.496Z" fill="#E0E0E0"/>
<path d="M120.411 272.806C120.62 272.536 120.862 272.295 121.129 272.088L123.164 270.248C124.88 268.688 127.247 266.536 129.772 264.056C132.298 261.576 134.521 259.26 136.109 257.568C136.865 256.788 137.485 256.094 137.992 255.564C138.22 255.303 138.474 255.065 138.748 254.854C138.58 255.153 138.377 255.428 138.143 255.673C137.734 256.18 137.122 256.898 136.351 257.771C134.838 259.526 132.63 261.888 130.09 264.368C127.549 266.848 125.16 268.985 123.39 270.482C122.498 271.262 121.772 271.823 121.258 272.221C120.997 272.447 120.713 272.643 120.411 272.806Z" fill="#E0E0E0"/>
<path d="M98.2942 264.75C98.5994 264.788 98.899 264.864 99.1864 264.976L101.583 265.756C103.595 266.419 106.37 267.363 109.425 268.423C112.479 269.484 115.239 270.482 117.228 271.223L119.58 272.112C119.873 272.206 120.154 272.334 120.419 272.494C120.114 272.462 119.814 272.388 119.527 272.275L117.13 271.496C115.118 270.833 112.343 269.889 109.289 268.821C106.234 267.753 103.474 266.762 101.485 266.029L99.1335 265.132C98.8384 265.044 98.5561 264.916 98.2942 264.75Z" fill="#E0E0E0"/>
<path d="M100.849 296.761C101.239 296.821 101.621 296.92 101.991 297.058L105.061 298.025C107.647 298.859 111.209 300.036 115.141 301.37C119.073 302.703 122.619 303.92 125.182 304.832L128.207 305.924C128.583 306.048 128.95 306.202 129.303 306.384C128.912 306.325 128.527 306.225 128.154 306.088L125.084 305.121C122.498 304.286 118.937 303.109 115.005 301.775C111.073 300.442 107.526 299.218 104.97 298.313L101.946 297.214C101.568 297.097 101.201 296.946 100.849 296.761Z" fill="#E0E0E0"/>
<path d="M128.682 305.955C128.948 305.618 129.244 305.307 129.566 305.027L132.069 302.602C134.179 300.551 137.082 297.705 140.205 294.468C143.328 291.232 146.088 288.23 148.069 286.047L150.413 283.458C150.689 283.127 150.99 282.819 151.313 282.537C151.093 282.904 150.839 283.249 150.557 283.567C150.043 284.214 149.271 285.126 148.288 286.249C146.36 288.495 143.638 291.536 140.5 294.773C137.362 298.009 134.451 300.832 132.273 302.828C131.184 303.818 130.3 304.621 129.672 305.167C129.364 305.458 129.032 305.721 128.682 305.955Z" fill="#E0E0E0"/>
<path d="M53.4919 40.44L46.1119 38.1006C46.1119 38.1006 44.1762 44.495 37.7036 42.5377C36.4505 42.1818 35.3356 41.4331 34.5133 40.395C33.691 39.357 33.2019 38.0811 33.1138 36.7438C33.0169 35.616 33.1824 34.4807 33.5967 33.4323C34.011 32.3839 34.662 31.4526 35.4956 30.7159C37.3935 28.9847 40.7206 27.932 45.4163 30.4351L50.611 13.2795L43.3142 10.9401L40.2896 20.9917C40.2896 20.9917 29.2196 20.4225 25.7035 32.0493C22.3387 43.1771 31.2309 48.8775 35.3746 50.211C38.5202 51.2247 49.5675 53.9072 53.4919 40.44Z" fill="#F5F5F5"/>
<path d="M44.3016 7.36909L51.7075 9.75232L53.8653 2.62093L46.4594 0.237698L44.3016 7.36909Z" fill="#F5F5F5"/>
<path d="M73.8545 21.0697L76.8111 20.2899C76.7208 19.9436 76.699 19.5822 76.7469 19.227C76.7948 18.8719 76.9114 18.5303 77.0899 18.2226C77.2684 17.9149 77.505 17.6473 77.7857 17.4358C78.0665 17.2243 78.3856 17.0731 78.7241 16.9913C79.2167 16.838 79.7433 16.8464 80.2311 17.0155C80.7188 17.1845 81.1435 17.5058 81.4462 17.9349C81.7033 18.2912 81.8749 18.7051 81.9472 19.1428C82.0195 19.5806 81.9903 20.0297 81.8621 20.4537C81.5824 21.444 80.6825 22.5201 78.5956 22.6995L80.3574 29.5696L83.2761 28.7898L82.2478 24.766C83.3546 24.0775 84.2111 23.0327 84.6853 21.7926C85.1595 20.5525 85.2249 19.186 84.8716 17.9037C83.7374 13.4432 79.5786 13.4666 77.9377 13.9111C76.6674 14.2152 72.4254 15.7047 73.8545 21.0697Z" fill="#EBEBEB"/>
<path d="M84.3054 29.7917L81.3276 30.6149L82.0727 33.4817L85.0505 32.6585L84.3054 29.7917Z" fill="#EBEBEB"/>
<path d="M317.947 99.9936L320.82 101.062C320.94 100.726 321.125 100.419 321.362 100.158C321.6 99.8973 321.885 99.688 322.203 99.5427C322.52 99.3974 322.862 99.3189 323.209 99.312C323.556 99.305 323.9 99.3698 324.223 99.5023C324.707 99.6629 325.131 99.9739 325.437 100.393C325.742 100.812 325.915 101.318 325.931 101.842C325.949 102.289 325.864 102.734 325.683 103.141C325.501 103.548 325.229 103.904 324.888 104.181C324.132 104.828 322.778 105.179 320.964 104.103L318.612 110.786L321.455 111.847L322.831 107.948C324.122 108.03 325.403 107.673 326.478 106.932C327.553 106.191 328.362 105.107 328.782 103.846C330.294 99.5101 326.884 97.1005 325.274 96.5001C324.041 96.001 319.731 94.7455 317.947 99.9936Z" fill="#EBEBEB"/>
<path d="M321.03 113.201L318.144 112.123L317.168 114.902L320.055 115.98L321.03 113.201Z" fill="#EBEBEB"/>
<path d="M13.0073 133.931L19.0565 131.513C19.0565 131.513 17.0905 126.25 22.3608 124.043C23.3695 123.603 24.4857 123.496 25.5556 123.738C26.6255 123.979 27.5964 124.557 28.3344 125.392C28.9622 126.086 29.4224 126.923 29.6773 127.835C29.9322 128.747 29.9747 129.708 29.8013 130.64C29.4232 132.808 27.7597 135.319 23.3816 136.184L28.6746 150.322L34.7238 147.936L31.6236 139.654C31.6236 139.654 39.1851 134.055 35.6388 124.464C32.1983 115.293 23.3967 116.338 20.0168 117.687C17.4081 118.724 8.75775 122.912 13.0073 133.931Z" fill="#F5F5F5"/>
<path d="M35.8708 150.814L29.7674 153.239L31.9639 159.118L38.0672 156.693L35.8708 150.814Z" fill="#F5F5F5"/>
<path d="M320.312 157.722L316.002 159.43C316.002 159.43 317.393 163.165 313.658 164.725C312.942 165.033 312.152 165.107 311.395 164.937C310.638 164.767 309.949 164.36 309.423 163.773C308.978 163.281 308.653 162.688 308.473 162.042C308.293 161.395 308.263 160.714 308.387 160.054C308.659 158.494 309.839 156.747 312.924 156.155L309.219 146.103L304.954 147.795L307.147 153.667C305.595 154.892 304.476 156.608 303.962 158.552C303.449 160.497 303.569 162.561 304.304 164.428C306.731 170.924 312.947 170.191 315.366 169.232C317.196 168.491 323.321 165.528 320.312 157.722Z" fill="#F5F5F5"/>
<path d="M304.111 145.759L308.437 144.04L306.882 139.878L302.556 141.596L304.111 145.759Z" fill="#F5F5F5"/>
<path d="M283.921 29.4416H286.946C286.944 29.0878 287.01 28.7372 287.142 28.4105C287.274 28.0838 287.468 27.7877 287.712 27.5398C287.957 27.2918 288.247 27.097 288.566 26.9669C288.885 26.8368 289.226 26.7741 289.569 26.7825C290.076 26.7637 290.575 26.9084 290.998 27.1964C291.421 27.4843 291.746 27.9012 291.929 28.3889C292.088 28.7949 292.152 29.2341 292.115 29.6705C292.078 30.107 291.942 30.5282 291.717 30.8998C291.203 31.7732 290.084 32.5608 288.057 32.1943V39.2125H291.029V35.1108C292.248 34.7405 293.316 33.9679 294.069 32.9114C294.821 31.855 295.217 30.573 295.195 29.2622C295.195 24.7238 291.248 23.671 289.554 23.671C288.261 23.6399 283.861 23.9596 283.921 29.4416Z" fill="#2E5CFF"/>
<path d="M291.051 40.6317H288.034V43.5404H291.051V40.6317Z" fill="#2E5CFF"/>
<path d="M267.429 33.5903C267.419 33.7226 267.419 33.8556 267.429 33.9879C267.429 34.2687 267.429 34.6508 267.429 35.1421C267.429 35.3916 267.429 35.6801 267.467 35.992C267.505 36.304 267.55 36.6471 267.603 37.0058C267.656 37.3645 267.709 37.7856 267.77 38.1989L268.087 39.5246C268.649 41.8075 269.568 43.9806 270.809 45.9579C272.611 48.8863 275.04 51.3495 277.91 53.1582C280.779 54.967 284.012 56.0732 287.361 56.3917C288.367 56.4833 289.377 56.5041 290.386 56.4541C290.892 56.4541 291.414 56.4541 291.898 56.3527L293.456 56.111C295.593 55.7013 297.661 54.9737 299.596 53.9509C301.615 52.8488 303.471 51.4545 305.108 49.8102C306.784 48.0589 308.184 46.0488 309.259 43.8525C310.416 41.5881 311.174 39.13 311.497 36.5925C311.592 35.9496 311.645 35.3009 311.656 34.6508C311.707 33.9997 311.719 33.3461 311.694 32.6935C311.53 28.5103 310.262 24.4526 308.027 20.9574V21.1992C309.078 18.4933 310.114 15.8341 311.127 13.2452L311.308 12.7695L310.832 12.9099L302.59 15.2493L302.787 15.2961C300.011 13.1289 296.777 11.6699 293.35 11.0383C291.76 10.7327 290.14 10.6306 288.526 10.7342C287.747 10.7462 286.971 10.8218 286.204 10.9604L285.078 11.1397C284.707 11.2099 284.322 11.3269 283.989 11.4126C278.91 12.74 274.455 15.8886 271.422 20.2946C270.29 21.9178 269.382 23.6943 268.722 25.5739C268.579 25.9872 268.442 26.3537 268.314 26.7592C268.185 27.1647 268.117 27.539 268.034 27.8899C267.951 28.2408 267.86 28.5995 267.785 28.927C267.709 29.2545 267.686 29.5743 267.641 29.8784C267.573 30.4788 267.467 31.0091 267.444 31.438C267.422 31.8669 267.444 32.2802 267.444 32.6077C267.444 32.9352 267.444 33.138 267.444 33.3173C267.444 33.4967 267.444 33.5591 267.444 33.5591C267.456 33.4789 267.456 33.3975 267.444 33.3173C267.444 33.138 267.444 32.904 267.497 32.6077C267.55 32.3114 267.543 31.8981 267.573 31.4458C267.603 30.9935 267.717 30.4632 267.807 29.8862C268.529 25.5703 270.449 21.5632 273.337 18.3517C276.224 15.1401 279.953 12.8622 284.072 11.7947C284.427 11.709 284.783 11.5998 285.146 11.5296L286.257 11.3581C287.007 11.229 287.765 11.1586 288.526 11.1475C290.11 11.0614 291.699 11.1687 293.259 11.4672C296.606 12.1025 299.763 13.5365 302.477 15.6548L302.567 15.7328H302.681L310.93 13.3933L310.643 13.058L307.535 21.0042L307.49 21.129L307.558 21.246C309.047 23.5692 310.103 26.1581 310.673 28.8802C310.934 30.1432 311.091 31.4266 311.142 32.7169C311.167 33.3539 311.155 33.9919 311.104 34.6274C311.1 35.262 311.049 35.8954 310.953 36.5223C310.663 39.0003 309.948 41.4056 308.843 43.6263C307.792 45.7728 306.428 47.74 304.798 49.4592C303.197 51.0735 301.378 52.4418 299.399 53.522C297.508 54.5365 295.483 55.259 293.388 55.6665L291.875 55.9082C291.369 55.9862 290.862 55.9784 290.363 56.0174C289.378 56.0657 288.39 56.0475 287.407 55.9628C284.113 55.6654 280.928 54.598 278.094 52.8414C275.26 51.0849 272.851 48.6854 271.051 45.8254C269.803 43.8825 268.869 41.7442 268.284 39.4934L267.943 38.1833C267.875 37.77 267.815 37.4035 267.754 37.0136C267.694 36.6237 267.649 36.3118 267.596 35.9998C267.543 35.6879 267.558 35.4072 267.535 35.1577C267.535 34.6742 267.475 34.2921 267.452 34.0113C267.466 33.8706 267.459 33.7285 267.429 33.5903Z" fill="#263238"/>
<path d="M86.2097 125.548H129.877C129.877 125.548 129.877 87.7349 167.979 87.0643C187.768 86.7056 198.029 100.079 202.203 110.318C207.042 122.21 205.575 135.763 199.087 146.797C191.685 159.391 175.73 172.047 146.301 166.698L146.021 267.035H189.204V207.552C189.204 207.552 249.764 191.41 249.764 122.553C249.764 56.6988 198.127 42.4752 170.369 41.555C154.928 41.0481 149.333 40.3619 130.233 43.1614C105.892 46.7485 85.6956 75.8975 86.2097 125.548Z" fill="#2E5CFF"/>
<path d="M189.725 287.949H145.898V330.16H189.725V287.949Z" fill="#2E5CFF"/>
<path opacity="0.1" d="M189.725 287.949H145.898V330.16H189.725V287.949Z" fill="black"/>
<path opacity="0.1" d="M86.2097 125.548H129.877C129.877 125.548 129.877 87.7349 167.979 87.0643C187.768 86.7056 198.029 100.079 202.203 110.318C207.042 122.21 205.575 135.763 199.087 146.797C191.685 159.391 175.73 172.047 146.301 166.698L146.021 267.035H189.204V207.552C189.204 207.552 249.764 191.41 249.764 122.553C249.764 56.6988 198.127 42.4752 170.369 41.555C154.928 41.0481 149.333 40.3619 130.233 43.1614C105.892 46.7485 85.6956 75.8975 86.2097 125.548Z" fill="black"/>
<path d="M68.1137 125.548H111.789C111.789 125.548 111.789 87.7349 149.891 87.0642C169.679 86.7055 179.94 100.079 184.107 110.318C188.953 122.21 187.487 135.763 180.999 146.797C173.596 159.391 157.362 170.838 127.932 165.512V267.035H171.116V207.552C171.116 207.552 231.676 191.41 231.676 122.553C231.676 56.6987 174.405 41.4067 149.898 41.4067C131.154 41.4301 67.2895 46.1012 68.1137 125.548Z" fill="#2E5CFF"/>
<path opacity="0.3" d="M68.1137 125.548H111.789C111.789 125.548 111.789 87.7349 149.891 87.0642C169.679 86.7055 179.94 100.079 184.107 110.318C188.953 122.21 187.487 135.763 180.999 146.797C173.596 159.391 157.362 170.838 127.932 165.512V267.035H171.116V207.552C171.116 207.552 231.676 191.41 231.676 122.553C231.676 56.6987 174.405 41.4067 149.898 41.4067C131.154 41.4301 67.2895 46.1012 68.1137 125.548Z" fill="black"/>
<path d="M171.637 287.949H127.811V330.16H171.637V287.949Z" fill="#2E5CFF"/>
<path opacity="0.3" d="M171.637 287.949H127.811V330.16H171.637V287.949Z" fill="black"/>
<path d="M154.821 87.2671C154.605 87.2863 154.387 87.2863 154.171 87.2671C153.74 87.2671 153.12 87.1189 152.311 87.1111C150.023 86.9952 147.73 87.0944 145.46 87.4075C142.094 87.8469 138.782 88.6493 135.577 89.8014C133.689 90.4823 131.849 91.3005 130.073 92.25C128.153 93.2396 126.344 94.4452 124.681 95.8449C123.03 97.2572 121.55 98.8701 120.273 100.649C119.063 102.293 117.959 104.017 116.969 105.811C115.315 108.866 114.004 112.104 113.059 115.465C112.419 117.733 111.979 120.056 111.744 122.405C111.653 123.232 111.63 123.887 111.608 124.323C111.608 124.548 111.588 124.773 111.547 124.994C111.528 124.771 111.528 124.546 111.547 124.323C111.547 123.879 111.547 123.224 111.615 122.389C111.789 120.015 112.192 117.664 112.817 115.371C113.727 111.972 115.021 108.695 116.674 105.608C117.666 103.795 118.775 102.052 119.993 100.391C121.281 98.5837 122.779 96.9468 124.455 95.5174C126.138 94.0985 127.969 92.877 129.914 91.8757C131.701 90.9088 133.554 90.0748 135.456 89.3804C138.69 88.2326 142.034 87.4483 145.43 87.0409C147.715 86.7514 150.023 86.6965 152.319 86.8772C152.942 86.9183 153.563 86.9964 154.179 87.1111C154.396 87.1475 154.611 87.1996 154.821 87.2671Z" fill="#263238"/>
<path d="M220.621 79.2429C220.621 79.2429 220.568 79.1883 220.477 79.0714C220.386 78.9544 220.25 78.7516 220.099 78.5255L218.655 76.42C218.345 75.9677 218.012 75.4453 217.619 74.9072L216.258 73.1994L214.7 71.2265C214.133 70.5403 213.468 69.8775 212.802 69.1523C212.137 68.427 211.456 67.655 210.685 66.9142C209.914 66.1734 209.089 65.417 208.243 64.6372C207.819 64.2473 207.403 63.8574 206.95 63.4441L205.543 62.2978C204.583 61.518 203.63 60.7382 202.594 59.9584C198.079 56.6268 193.289 53.7096 188.28 51.2402L184.295 49.3842L180.341 47.8246C179.048 47.271 177.732 46.8811 176.462 46.4444C175.191 46.0077 173.951 45.5632 172.681 45.2591L169.067 44.2843C167.895 43.9646 166.73 43.7697 165.619 43.5045C164.507 43.2394 163.433 43.0055 162.382 42.8729L159.358 42.4206C157.445 42.0853 155.69 42.0151 154.163 41.8591C153.407 41.7968 152.651 41.711 152.023 41.6798L150.223 41.633L147.728 41.5472H147.078H146.859C146.931 41.5355 147.005 41.5355 147.078 41.5472H147.728H150.223H152.031C152.689 41.5472 153.407 41.6408 154.178 41.6954C155.69 41.828 157.475 41.8825 159.388 42.2023L162.413 42.6234C163.464 42.7481 164.537 43.0289 165.656 43.2394C166.776 43.4499 167.925 43.6683 169.127 44.0192L172.757 44.9862C174.012 45.2825 175.252 45.766 176.537 46.1637C177.823 46.5614 179.131 46.9435 180.424 47.5361L184.401 49.0957L188.409 50.9595C193.444 53.4344 198.253 56.3732 202.776 59.74C203.819 60.5198 204.772 61.3542 205.732 62.1262L207.139 63.179C207.592 63.5689 208.008 63.9588 208.432 64.3799L210.866 66.7193C211.623 67.4991 212.303 68.2789 212.976 68.9885C213.649 69.6981 214.292 70.3921 214.859 71.0862L216.371 73.0747L217.717 74.8058C218.103 75.3517 218.428 75.882 218.73 76.3654C219.32 77.2778 219.781 77.9952 220.107 78.5099L220.462 79.0791C220.521 79.1264 220.575 79.1815 220.621 79.2429Z" fill="#263238"/>
<path d="M216.069 175.939C215.979 176.107 215.87 176.264 215.744 176.406L214.7 177.678C214.269 178.247 213.725 178.925 213.052 179.682C212.379 180.438 211.661 181.327 210.784 182.247C209.906 183.167 208.969 184.197 207.903 185.234C206.836 186.271 205.68 187.363 204.447 188.501C199.041 193.367 193.115 197.582 186.783 201.064C185.317 201.844 183.933 202.623 182.594 203.224C181.256 203.824 180.008 204.44 178.859 204.939C177.71 205.439 176.651 205.852 175.729 206.218C174.806 206.585 173.997 206.881 173.332 207.1L171.819 207.606C171.644 207.678 171.461 207.731 171.275 207.762C171.438 207.666 171.61 207.588 171.789 207.528L173.301 206.951C173.959 206.71 174.753 206.398 175.668 206.008C176.583 205.618 177.642 205.228 178.776 204.674C179.91 204.121 181.165 203.598 182.473 202.92C183.782 202.241 185.18 201.524 186.64 200.736C189.521 199.099 192.628 197.18 195.766 194.966C198.904 192.751 201.725 190.42 204.235 188.22C205.468 187.098 206.647 186.045 207.698 184.984C208.749 183.924 209.732 182.965 210.602 182.044C211.472 181.124 212.235 180.274 212.916 179.526C213.596 178.777 214.156 178.122 214.61 177.576L215.668 176.336C215.791 176.193 215.925 176.06 216.069 175.939Z" fill="#263238"/>
<path d="M170.352 263.495C170.238 263.495 170.147 250.971 170.147 235.523C170.147 220.075 170.238 207.544 170.352 207.544C170.465 207.544 170.548 220.067 170.548 235.523C170.548 250.979 170.457 263.495 170.352 263.495Z" fill="#263238"/>
<path d="M172.016 327.298C171.902 327.298 171.819 318.51 171.819 307.67C171.819 296.831 171.902 288.035 172.016 288.035C172.129 288.035 172.212 296.823 172.212 307.67C172.212 318.518 172.122 327.298 172.016 327.298Z" fill="#263238"/>
<path d="M215.003 119.567C214.247 121.126 217.067 122.405 218.693 122.912C220.352 123.332 222.068 123.453 223.767 123.271C226.035 123.146 228.357 122.928 230.315 121.773C232.03 120.678 233.401 119.093 234.262 117.212C235.111 115.336 235.782 113.38 236.266 111.371C236.266 111.371 218.398 112.572 215.003 119.567Z" fill="#2E5CFF"/>
<g opacity="0.4">
<path d="M215.003 119.567C214.247 121.126 217.067 122.405 218.693 122.912C220.351 123.332 222.068 123.453 223.767 123.271C226.035 123.146 228.356 122.928 230.315 121.773C232.03 120.678 233.401 119.093 234.262 117.212C235.111 115.336 235.782 113.38 236.266 111.371C236.266 111.371 218.398 112.572 215.003 119.567Z" fill="black"/>
</g>
<path d="M265.469 114.576C268.415 116.731 271.945 117.871 275.556 117.835C277.287 117.935 278.994 117.38 280.358 116.276C280.94 115.722 281.378 115.02 281.976 114.49C282.384 114.131 282.86 113.858 283.246 113.476C283.45 113.296 283.607 113.066 283.703 112.807C283.799 112.549 283.832 112.269 283.798 111.995C283.649 111.317 283.281 110.713 282.755 110.279C280.705 109.078 278.256 109.125 275.896 109.18C273.535 109.285 271.203 109.756 268.978 110.575C267.148 111.215 265.235 112.135 264.305 113.851" fill="#2E5CFF"/>
<g opacity="0.4">
<path d="M283.799 111.995C283.532 111.337 283.061 110.789 282.46 110.435C280.411 109.234 278.256 109.125 275.897 109.179C273.536 109.285 271.204 109.755 268.978 110.575C267.148 111.215 265.235 112.135 264.305 113.85L265.47 114.576C268.415 116.73 271.946 117.871 275.557 117.835C277.288 117.935 278.995 117.38 280.358 116.276C280.941 115.722 281.379 115.02 281.976 114.49C282.385 114.131 282.861 113.858 283.247 113.476C283.45 113.295 283.607 113.066 283.704 112.807C283.8 112.548 283.833 112.269 283.799 111.995Z" fill="black"/>
</g>
<path d="M230.58 142.563L268.274 143.077C268.35 143.077 268.426 143.059 268.494 143.023C268.563 142.987 268.622 142.935 268.668 142.872C268.713 142.808 268.744 142.734 268.757 142.656C268.77 142.578 268.765 142.498 268.742 142.422L264.319 128.199C264.319 128.199 264.969 121.087 265.869 112.54C267.238 99.5567 269.06 83.2354 269.083 83.2822C266.504 75.8272 251.291 74.564 251.291 74.564L233.952 75.6245L233.347 74.5718L228.357 76.9658C227.268 77.488 226.221 78.0981 225.226 78.7905C221.929 81.0597 213.99 86.2766 212.538 92.0861C209.188 105.538 214.859 120.549 214.859 120.549L218.504 117.609C219.422 116.88 220.387 116.215 221.393 115.621L228.697 135.81C228.262 136.092 227.894 136.471 227.619 136.919C227.345 137.367 227.17 137.873 227.109 138.399C227.049 140.036 227.865 142.001 230.58 142.563Z" fill="#2E5CFF"/>
<g opacity="0.3">
<path d="M246.755 118.763C247.949 112.135 247.322 105.319 246.679 98.6128C244.592 104.071 244.668 110.31 242.452 115.722C242.181 116.293 241.982 116.899 241.862 117.523C241.805 117.837 241.82 118.16 241.907 118.466C241.993 118.772 242.149 119.053 242.361 119.285C242.966 119.855 243.874 119.543 244.675 119.449C245.393 119.308 246.091 119.078 246.755 118.763Z" fill="black"/>
</g>
<g opacity="0.4">
<path d="M232.848 134.11C235.873 135.194 239.094 133.174 242.292 132.815C244.41 132.582 246.527 133.081 248.629 133.431C252.88 134.141 257.204 134.251 261.483 133.759C262.14 133.722 262.783 133.549 263.374 133.252C263.679 133.037 263.929 132.749 264.102 132.412C264.274 132.075 264.364 131.699 264.364 131.318C257.241 130.538 250.126 130.117 243.003 129.361C241.23 129.049 239.414 129.11 237.665 129.54C235.517 130.227 233.884 131.965 232.372 133.689" fill="black"/>
</g>
<path d="M282.709 109.437C279.631 102.286 268.781 82.51 268.781 82.51L260.38 93.3727L262.338 114.7C262.338 114.7 266.777 109.593 279.185 109.491C280.087 109.528 280.969 109.773 281.767 110.208C282.565 110.642 283.259 111.255 283.798 112.002L282.709 109.437Z" fill="#2E5CFF"/>
<path d="M232.266 105.655C231.666 104.139 231.191 102.574 230.844 100.976C230.374 99.4198 230.03 97.8262 229.816 96.2114C230.406 97.73 230.879 99.2945 231.23 100.89C231.699 102.447 232.046 104.04 232.266 105.655Z" fill="#263238"/>
<path d="M259.743 91.9303C260.016 92.1297 260.27 92.3569 260.499 92.6087C261.167 93.2741 261.793 93.9825 262.374 94.7298C264.329 97.1946 265.704 100.093 266.389 103.198C266.745 104.915 266.824 106.68 266.624 108.423C266.435 110.022 266.14 111.425 265.943 112.611C265.747 113.796 265.626 114.763 265.565 115.434C265.563 115.782 265.528 116.13 265.459 116.471C265.406 116.123 265.39 115.77 265.414 115.418C265.447 114.462 265.533 113.509 265.671 112.564C265.83 111.371 266.094 109.952 266.268 108.384C266.443 106.68 266.354 104.959 266.004 103.284C265.326 100.237 264.013 97.3791 262.155 94.9091C260.771 92.9908 259.682 91.9927 259.743 91.9303Z" fill="#263238"/>
<path d="M252.047 140.847C251.785 140.968 251.507 141.052 251.223 141.097C250.9 141.185 250.572 141.25 250.24 141.292C249.855 141.346 249.416 141.432 248.924 141.455C247.773 141.564 246.613 141.564 245.461 141.455C244.052 141.306 242.659 141.019 241.303 140.598C239.953 140.15 238.646 139.573 237.401 138.874C236.391 138.293 235.432 137.623 234.535 136.87C234.142 136.558 233.824 136.231 233.537 135.958C233.289 135.728 233.054 135.483 232.834 135.225C232.623 135.024 232.443 134.793 232.297 134.539C232.35 134.484 233.159 135.42 234.709 136.644C235.614 137.355 236.573 137.991 237.575 138.547C238.806 139.214 240.091 139.77 241.416 140.208C242.749 140.622 244.116 140.914 245.499 141.081C246.629 141.207 247.767 141.243 248.902 141.19C250.845 141.081 252.032 140.785 252.047 140.847Z" fill="#263238"/>
<path d="M263.684 136.418C263.862 136.771 263.962 137.159 263.979 137.556C264.099 138.507 264.03 139.473 263.775 140.395C263.515 141.338 262.988 142.18 262.262 142.812C261.71 143.288 261.287 143.436 261.264 143.397C261.241 143.358 261.597 143.101 262.073 142.617C262.685 141.96 263.129 141.156 263.366 140.278C263.971 138.219 263.54 136.426 263.684 136.418Z" fill="#263238"/>
<path d="M261.635 139.163C261.799 139.965 261.733 140.799 261.446 141.563C261.159 142.327 260.662 142.989 260.017 143.467C259.934 143.382 260.637 142.61 261.075 141.417C261.514 140.223 261.522 139.171 261.635 139.163Z" fill="#263238"/>
<path d="M254.89 113.507C254.489 114.206 254.04 114.873 253.544 115.504C253.153 116.208 252.711 116.881 252.221 117.516C252.366 116.693 252.709 115.92 253.219 115.27C253.622 114.546 254.197 113.939 254.89 113.507Z" fill="#263238"/>
<path d="M229.015 94.6205C228.439 94.2716 227.881 93.8916 227.344 93.482C224.655 91.66 221.603 90.4847 218.414 90.0431C217.746 89.9929 217.082 89.9018 216.425 89.7701C217.095 89.6748 217.774 89.6748 218.444 89.7701C221.72 90.0585 224.857 91.2637 227.518 93.2559C228.076 93.6369 228.58 94.0962 229.015 94.6205Z" fill="#263238"/>
<path d="M268.779 82.2526C267.426 83.3765 266.162 84.6099 264.999 85.941C263.928 87.3617 262.969 88.869 262.133 90.4483C262.222 89.9172 262.399 89.4056 262.655 88.9355C263.202 87.7662 263.888 86.6714 264.696 85.6759C265.507 84.6825 266.437 83.7994 267.464 83.048C267.855 82.7067 268.3 82.4376 268.779 82.2526Z" fill="#263238"/>
<path d="M253.219 75.8273C253.287 75.9398 253.343 76.0601 253.385 76.186C253.532 76.5391 253.651 76.9043 253.74 77.2777C254.059 78.6674 254.059 80.1146 253.74 81.5042C253.27 83.5787 252.193 85.4542 250.655 86.8771C248.714 88.5726 246.242 89.4818 243.699 89.4348C241.153 89.4439 238.673 88.6041 236.629 87.0408C234.999 85.758 233.678 84.1066 232.765 82.2139C232.15 80.9465 231.717 79.5937 231.479 78.1979C231.41 77.8218 231.365 77.4415 231.343 77.0594C231.322 76.9251 231.322 76.7881 231.343 76.6539C231.343 76.6539 231.426 77.1997 231.638 78.1667C231.932 79.5231 232.397 80.834 233.022 82.0657C233.944 83.9014 235.254 85.5003 236.856 86.7445C238.826 88.2492 241.209 89.0685 243.661 89.0839C246.112 89.1304 248.498 88.2669 250.383 86.6509C251.868 85.2802 252.922 83.4823 253.408 81.4886C253.744 80.1429 253.79 78.7375 253.544 77.3713C253.4 76.3419 253.173 75.8429 253.219 75.8273Z" fill="#263238"/>
<g opacity="0.3">
<path d="M255.864 114.888C255.864 114.498 255.804 114.038 255.471 113.843C255.366 113.788 255.249 113.759 255.131 113.759C255.013 113.759 254.896 113.788 254.791 113.843C254.579 113.961 254.392 114.119 254.239 114.311C253.35 115.265 252.662 116.398 252.22 117.64L255.925 117.305C255.902 116.517 255.887 115.691 255.864 114.888Z" fill="black"/>
</g>
<g opacity="0.3">
<path d="M268.169 106.848C267.797 104.661 266.868 102.616 265.477 100.921C267.08 106.318 266.544 109.367 265.644 113.063L265.84 112.548C266.876 110.388 268.449 109.031 268.169 106.848Z" fill="black"/>
</g>
<path d="M260.764 288.121L258.503 323.095L243.758 322.916L241.437 286.554L260.764 288.121Z" fill="#FFBE9D"/>
<path d="M258.92 318.494V319.508C258.92 319.508 275.556 326.402 275.714 329.646L242.678 329.458L243.193 318.128C248.115 320.506 253.264 320.803 258.92 318.494Z" fill="#2E5CFF"/>
<path d="M246.541 321.762C246.228 321.859 245.96 322.072 245.787 322.359C245.614 322.646 245.549 322.988 245.604 323.321C245.685 323.654 245.887 323.941 246.169 324.123C246.451 324.305 246.791 324.367 247.116 324.296C247.453 324.192 247.74 323.963 247.921 323.653C248.103 323.343 248.166 322.975 248.099 322.619C247.979 322.283 247.737 322.007 247.424 321.851C247.11 321.696 246.751 321.672 246.42 321.785" fill="white"/>
<path d="M242.678 329.458L242.799 326.737L274.437 327.922C274.437 327.922 275.903 328.592 275.73 329.653L242.678 329.458Z" fill="#263238"/>
<path d="M259.042 319.601C259.042 319.765 258.225 319.835 257.432 320.381C256.638 320.927 256.207 321.606 256.063 321.543C255.919 321.481 256.161 320.514 257.137 319.89C258.112 319.266 259.08 319.422 259.042 319.601Z" fill="#263238"/>
<path d="M262.497 321.099C262.535 321.263 261.831 321.536 261.279 322.237C260.727 322.939 260.569 323.68 260.402 323.672C260.236 323.664 260.145 322.721 260.848 321.871C261.552 321.021 262.489 320.982 262.497 321.099Z" fill="#263238"/>
<path d="M264.44 325.388C264.288 325.388 264.069 324.608 264.492 323.68C264.916 322.752 265.664 322.417 265.733 322.549C265.801 322.682 265.332 323.173 264.976 323.93C264.621 324.686 264.606 325.372 264.44 325.388Z" fill="#263238"/>
<path d="M258.073 32.3378C258.928 30.1544 257.892 27.5108 256.054 26.0994C254.118 24.7848 251.757 24.3112 249.483 24.7815C247.241 25.2664 245.07 26.053 243.026 27.1209C242.076 26.1324 240.877 25.4358 239.565 25.1089C238.253 24.7819 236.879 24.8375 235.596 25.2695C234.312 25.7014 233.171 26.4927 232.299 27.555C231.426 28.6173 230.857 29.9087 230.655 31.2851C229.838 31.0729 228.98 31.0942 228.173 31.3469C227.366 31.5995 226.642 32.0739 226.077 32.7192C225.512 33.3644 225.127 34.1561 224.966 35.0094C224.804 35.8627 224.87 36.7453 225.158 37.5625L235.381 41.2666L246.542 61.5415C248.191 62.9927 250.297 63.7755 252.465 63.7438C254.632 63.7122 256.715 62.8682 258.324 61.3693C259.933 59.8704 260.958 57.8191 261.208 55.598C261.459 53.377 260.917 51.1379 259.684 49.2985C260.309 48.725 260.84 48.0509 261.257 47.3022C262.149 46.7583 262.927 46.037 263.546 45.1803C264.165 44.3235 264.613 43.3484 264.863 42.3115C265.854 37.7964 262.466 32.8681 258.073 32.3378Z" fill="#263238"/>
<path d="M251.307 74.564C250.672 71.2655 250.233 69.004 250.241 69.0274C250.248 69.0508 256.29 66.6101 255.851 57.9308C255.64 53.6107 254.044 46.8031 252.562 41.282C251.231 36.3069 246.732 30.8249 241.976 32.4079L227.556 39.6601C226.112 40.1435 225.862 41.5472 226.203 43.0678V43.8476L231.806 67.7564L234.173 78.4397C234.677 80.6333 235.96 82.5527 237.768 83.8199C239.576 85.0871 241.778 85.6103 243.942 85.2863C245.123 85.115 246.259 84.6964 247.278 84.0563C248.297 83.4162 249.178 82.568 249.868 81.5639C250.557 80.5599 251.041 79.421 251.288 78.2173C251.536 77.0136 251.542 75.7704 251.307 74.564Z" fill="#FFBE9D"/>
<path d="M252.509 47.0525C252.57 47.3292 252.525 47.6194 252.385 47.8631C252.244 48.1069 252.018 48.2857 251.753 48.3626C251.62 48.4011 251.48 48.4113 251.342 48.3926C251.205 48.3739 251.072 48.3267 250.953 48.2539C250.834 48.181 250.73 48.084 250.648 47.9687C250.566 47.8533 250.507 47.7221 250.475 47.5828C250.415 47.3071 250.46 47.018 250.6 46.7755C250.741 46.533 250.967 46.3558 251.231 46.2805C251.365 46.2408 251.504 46.2294 251.642 46.2471C251.779 46.2648 251.912 46.3112 252.031 46.3834C252.151 46.4556 252.255 46.5522 252.337 46.6672C252.419 46.7823 252.478 46.9134 252.509 47.0525Z" fill="#263238"/>
<path d="M251.851 45.3918C251.745 45.5633 250.83 45.1344 249.711 45.3918C248.592 45.6491 247.881 46.3977 247.73 46.2808C247.578 46.1638 247.73 45.9454 248.04 45.6023C248.456 45.149 248.997 44.8386 249.59 44.7134C250.175 44.5833 250.785 44.6517 251.329 44.9083C251.752 45.0877 251.896 45.3216 251.851 45.3918Z" fill="#263238"/>
<path d="M241.528 49.6105C241.588 49.8862 241.543 50.1753 241.403 50.4178C241.262 50.6603 241.036 50.8375 240.772 50.9128C240.641 50.952 240.504 50.9641 240.369 50.9484C240.234 50.9327 240.103 50.8895 239.984 50.8213C239.866 50.7532 239.761 50.6613 239.677 50.5512C239.593 50.4411 239.53 50.3148 239.494 50.1798C239.433 49.9031 239.478 49.6129 239.618 49.3692C239.759 49.1254 239.985 48.9466 240.25 48.8697C240.381 48.8306 240.518 48.8189 240.654 48.8351C240.789 48.8513 240.92 48.8951 241.039 48.9641C241.158 49.033 241.263 49.1257 241.347 49.2366C241.43 49.3476 241.492 49.4747 241.528 49.6105Z" fill="#263238"/>
<path d="M240.976 48.1443C240.878 48.3159 239.955 47.8792 238.836 48.1443C237.717 48.4095 237.006 49.1425 236.855 49.0333C236.704 48.9241 236.855 48.698 237.165 48.3471C237.583 47.8978 238.124 47.5904 238.715 47.4659C239.3 47.3378 239.908 47.4033 240.454 47.653C240.855 47.8402 241.029 48.0508 240.976 48.1443Z" fill="#263238"/>
<path d="M246.669 55.4742C247.224 55.1588 247.813 54.9128 248.424 54.7412C248.703 54.6477 248.968 54.5307 248.976 54.3201C248.936 54.01 248.807 53.7193 248.605 53.4858L247.297 51.4115C245.467 48.456 244.076 46.0074 244.189 45.9528C244.303 45.8983 245.883 48.2143 247.713 51.1697L248.991 53.2596C249.242 53.5794 249.378 53.9789 249.376 54.3903C249.354 54.5025 249.308 54.6082 249.241 54.6998C249.174 54.7915 249.089 54.8668 248.991 54.9206C248.843 55.0013 248.685 55.0617 248.522 55.0999C247.924 55.3111 247.301 55.4371 246.669 55.4742Z" fill="#263238"/>
<path d="M250.24 69.0275C246.415 69.9189 242.426 69.6976 238.716 68.3881C238.716 68.3881 242.678 73.7219 250.671 71.172L250.24 69.0275Z" fill="#EB996E"/>
<path d="M241.166 46.4913C241.09 46.8266 239.933 46.8188 238.618 47.1541C237.302 47.4894 236.258 47.9963 236.047 47.7311C235.956 47.6064 236.107 47.2789 236.508 46.9513C237.041 46.4887 237.673 46.1651 238.353 46.0078C239.027 45.8429 239.728 45.8429 240.402 46.0078C240.939 46.1092 241.219 46.3353 241.166 46.4913Z" fill="#263238"/>
<path d="M251.419 41.7107C251.237 42.0227 250.269 41.9447 249.15 42.1708C248.031 42.397 247.146 42.7869 246.882 42.5607C246.761 42.4437 246.882 42.1474 247.207 41.7809C247.706 41.3479 248.31 41.0622 248.954 40.9543C249.587 40.8227 250.243 40.8712 250.852 41.0947C251.313 41.313 251.494 41.5548 251.419 41.7107Z" fill="#263238"/>
<path d="M231.116 34.0767C231.284 34.9215 231.629 35.7179 232.129 36.4093C232.628 37.1008 233.269 37.6703 234.006 38.0775C234.743 38.4846 235.558 38.7194 236.393 38.7652C237.228 38.811 238.062 38.6666 238.837 38.3423C240.031 37.8432 241.271 36.9074 242.481 37.3597C243.691 37.812 244.19 39.59 245.347 40.2528C247.048 41.2353 249.128 39.5354 251.026 39.7069C252.538 39.8395 253.68 41.0326 254.852 42.0463C256.024 43.0601 257.642 43.8243 258.965 43.0913C258.662 41.789 258.213 40.5276 257.627 39.3326C257.035 38.1296 256.057 37.1758 254.859 36.6345C254.194 36.3616 253.476 36.268 252.84 35.9327C251.472 35.2153 250.859 33.5933 249.869 32.369C249.218 31.5975 248.399 30.997 247.478 30.6172C246.558 30.2375 245.563 30.0895 244.576 30.1855C242.942 30.3571 241.392 31.2071 239.744 31.1369C238.527 31.0823 237.362 30.5208 236.145 30.5442C233.778 30.5442 232.001 32.7277 230.685 34.763" fill="#263238"/>
<path d="M239.086 35.8625C237.997 35.7767 235.774 35.5428 235.04 34.7474C234.295 33.8879 233.344 33.2453 232.283 32.884C231.221 32.5227 230.086 32.4554 228.991 32.6887C227.905 33.0227 226.951 33.7076 226.27 34.6425C225.59 35.5775 225.218 36.7131 225.21 37.8822C223.887 38.2151 222.676 38.9104 221.705 39.8945C220.733 40.8787 220.037 42.1151 219.691 43.4733C219.339 44.8952 219.327 46.3839 219.656 47.8115C219.985 49.2392 220.646 50.5629 221.581 51.6691C222.035 52.2548 222.45 52.8724 222.821 53.5172C222.308 54.1732 221.858 54.8782 221.475 55.6227C219.744 59.5685 224.439 61.0813 224.439 61.0813C224.439 63.7326 226.821 63.717 228.341 63.7092C229.861 63.7014 230.7 67.889 231.887 67.7252L230.685 54.8039C230.861 54.8745 231.048 54.9115 231.237 54.9131C234.103 54.9676 233.354 49.3687 232.432 47.8948C233.285 46.7987 234.007 45.5994 234.579 44.3233C235.098 42.3727 235.135 40.3189 234.685 38.35C235.645 38.2253 239.555 35.8937 239.086 35.8625Z" fill="#263238"/>
<path d="M231.063 55.4903C230.966 55.0797 230.769 54.7013 230.491 54.3904C230.213 54.0795 229.864 53.8462 229.475 53.7123C229.086 53.5784 228.671 53.5482 228.267 53.6246C227.864 53.7009 227.486 53.8813 227.169 54.149C226.413 54.8196 226.012 55.9426 226.466 57.8219C227.691 62.8438 232.326 60.5434 232.296 60.403C232.265 60.2627 231.592 57.5645 231.063 55.4903Z" fill="#FFBE9D"/>
<path d="M230.346 58.8822C230.346 58.8822 230.278 58.968 230.149 59.0693C229.97 59.2107 229.745 59.275 229.522 59.2487C228.962 59.1863 228.319 58.4689 228.077 57.5565C227.962 57.1302 227.939 56.683 228.009 56.2465C228.017 56.0769 228.064 55.9117 228.147 55.7651C228.23 55.6184 228.346 55.4946 228.486 55.4043C228.577 55.3532 228.684 55.337 228.786 55.3584C228.888 55.3797 228.98 55.4374 229.045 55.5212C229.143 55.6382 229.136 55.7474 229.166 55.7552C229.196 55.763 229.249 55.6382 229.166 55.4433C229.108 55.3276 229.015 55.2346 228.901 55.1781C228.741 55.1114 228.562 55.1114 228.402 55.1781C228.213 55.2711 228.048 55.4121 227.926 55.588C227.803 55.7638 227.725 55.9689 227.699 56.1841C227.601 56.6752 227.619 57.1834 227.752 57.6657C227.837 58.1185 228.049 58.5355 228.362 58.8644C228.676 59.1932 229.076 59.4191 229.514 59.5138C229.656 59.5198 229.798 59.4928 229.929 59.4347C230.06 59.3767 230.176 59.2891 230.27 59.1785C230.368 59.007 230.368 58.89 230.346 58.8822Z" fill="#EB996E"/>
<path d="M257.174 48.4796C257.174 48.4796 257.62 48.1287 258.24 47.3489C259.095 46.2253 259.62 44.872 259.752 43.4498C259.852 42.479 259.76 41.4973 259.48 40.5646C259.157 39.4947 258.558 38.5352 257.748 37.7885C256.813 36.946 255.68 36.3704 254.463 36.1187C253.245 35.867 251.985 35.948 250.807 36.3536C250.58 36.4316 250.368 36.5486 250.157 36.6422C249.945 36.7357 249.756 36.8761 249.559 36.9931L249.257 37.1646V36.8215C249.25 36.2174 249.033 35.636 248.644 35.1839C248.246 34.7451 247.758 34.4041 247.215 34.1858C246.188 33.7444 245.05 33.6569 243.971 33.9362C241.884 34.4275 240.115 35.4101 238.444 35.6128C237.133 35.8477 235.785 35.5696 234.663 34.833C234.367 34.6229 234.111 34.3586 233.907 34.0532C233.786 33.8427 233.725 33.7257 233.741 33.7179C234.015 34.103 234.349 34.4378 234.731 34.7082C235.835 35.3654 237.132 35.5897 238.383 35.3399C239.254 35.1709 240.105 34.9096 240.924 34.5601C241.885 34.1639 242.87 33.8331 243.873 33.5697C244.432 33.4302 245.007 33.3699 245.582 33.3904C246.188 33.4234 246.785 33.5659 247.344 33.8115C247.922 34.0662 248.438 34.4497 248.856 34.9344C249.303 35.4623 249.555 36.1363 249.567 36.8371L249.264 36.6655L249.892 36.2912C250.126 36.1977 250.346 36.0729 250.587 35.9871C251.829 35.5487 253.161 35.4569 254.448 35.7213C255.735 35.9856 256.931 36.5966 257.915 37.4921C258.765 38.2861 259.387 39.3058 259.714 40.4398C260.054 41.6417 260.099 42.9115 259.847 44.1361C259.595 45.3606 259.053 46.5018 258.27 47.458C258.021 47.7511 257.739 48.0129 257.431 48.2378C257.355 48.3288 257.268 48.41 257.174 48.4796Z" fill="#455A64"/>
<path d="M256.192 30.8485C255.695 30.5887 255.166 30.4023 254.619 30.2949C253.994 30.2067 253.357 30.2681 252.759 30.4742C251.984 30.7188 251.31 31.2239 250.846 31.9091L250.657 32.182L250.543 31.8701C250.148 30.9115 249.513 30.0788 248.702 29.4579C247.891 28.837 246.935 28.4502 245.931 28.3376C244.354 28.2764 242.8 28.7413 241.5 29.6632C240.392 30.4079 239.214 31.035 237.984 31.5348C237.136 31.8656 236.222 31.9781 235.322 31.8623C235.082 31.8166 234.847 31.7488 234.619 31.6595C234.468 31.5894 234.384 31.5504 234.392 31.5348C234.4 31.5192 234.732 31.6361 235.345 31.6985C236.215 31.7546 237.086 31.608 237.893 31.2696C239.089 30.732 240.235 30.0847 241.318 29.3357C241.987 28.9072 242.697 28.5493 243.436 28.2674C244.248 27.962 245.116 27.8474 245.976 27.9321C247.049 28.0528 248.069 28.4712 248.929 29.1427C249.79 29.8142 250.457 30.7136 250.861 31.7453H250.566C251.086 31.0125 251.828 30.48 252.676 30.2325C253.319 30.04 253.998 30.0053 254.657 30.1311C255.074 30.2128 255.474 30.3713 255.836 30.599C255.966 30.6643 256.085 30.7483 256.192 30.8485Z" fill="#455A64"/>
<path d="M246.233 57.7827C246.056 57.6305 245.851 57.5184 245.629 57.4539C245.407 57.3894 245.175 57.3739 244.947 57.4084C244.681 57.4671 244.43 57.5828 244.21 57.748C243.99 57.9132 243.806 58.1243 243.67 58.3676C243.67 58.3676 243.632 58.4066 243.624 58.43C243.52 58.6081 243.473 58.8153 243.488 59.0226C243.521 59.2485 243.607 59.4626 243.739 59.6462C243.871 59.8297 244.044 59.9771 244.244 60.0754C244.564 60.2425 244.926 60.3037 245.28 60.2506C245.635 60.1976 245.965 60.0329 246.225 59.779C246.473 59.5097 246.611 59.1533 246.612 58.7824C246.614 58.4116 246.478 58.0541 246.233 57.7827Z" fill="#2E5CFF"/>
<path d="M246.611 60.2078C246.551 60.2078 246.483 59.9738 246.279 59.6541C246.033 59.2255 245.665 58.885 245.226 58.6786C244.786 58.4722 244.296 58.4099 243.821 58.5C243.451 58.5546 243.224 58.6638 243.201 58.6092C243.178 58.5546 243.352 58.3674 243.761 58.2193C244.295 58.0419 244.874 58.0752 245.386 58.3128C245.903 58.5501 246.312 58.9827 246.528 59.5215C246.687 59.927 246.664 60.2 246.611 60.2078Z" fill="#263238"/>
<path d="M231.175 61.1748C231.175 61.1748 231.395 61.5647 231.107 62.1573C230.945 62.5119 230.659 62.7904 230.306 62.9371C230.086 63.0184 229.85 63.0459 229.618 63.0175C229.386 62.9891 229.163 62.9055 228.968 62.7734C228.769 62.6486 228.6 62.4781 228.476 62.2752C228.351 62.0723 228.274 61.8425 228.249 61.6036C228.226 61.2185 228.336 60.8374 228.559 60.5275C228.952 60.0129 229.391 59.9973 229.391 60.044C229.391 60.0908 229.058 60.2234 228.794 60.6913C228.64 60.9534 228.576 61.2608 228.612 61.5647C228.64 61.7426 228.706 61.9122 228.804 62.0616C228.901 62.211 229.03 62.3368 229.179 62.4302C229.327 62.5276 229.493 62.5918 229.666 62.6187C229.839 62.6456 230.016 62.6345 230.185 62.5862C230.464 62.4832 230.705 62.2922 230.873 62.0403C231.168 61.5569 231.115 61.1748 231.175 61.1748Z" fill="#2E5CFF"/>
<path d="M228.628 60.8707C228.666 60.8707 228.628 61.1359 228.273 61.3074C228.098 61.3823 227.907 61.404 227.72 61.37C227.534 61.3361 227.361 61.2479 227.222 61.1159C227.083 60.9838 226.983 60.8135 226.935 60.625C226.887 60.4365 226.892 60.2376 226.95 60.052C227.024 59.8411 227.165 59.6624 227.35 59.5451C227.66 59.3501 227.895 59.4281 227.887 59.4749C227.88 59.5217 227.706 59.5763 227.517 59.7712C227.424 59.8911 227.367 60.0366 227.354 60.1895C227.341 60.3424 227.372 60.4959 227.443 60.6308C227.514 60.7657 227.622 60.8759 227.753 60.9478C227.885 61.0196 228.034 61.0498 228.182 61.0345C228.439 60.9799 228.575 60.8396 228.628 60.8707Z" fill="#2E5CFF"/>
<path d="M236.939 130.125C236.939 130.125 255.662 131.248 266.732 131.349C275.299 131.435 279.125 129.088 280.834 123.403C282.27 118.638 279.185 109.491 279.185 109.491C273.386 109.491 269.809 110.349 266.081 112.15L267.072 116.33L236.886 119.013L236.939 130.125Z" fill="#FFBE9D"/>
<path d="M273.362 120.791C272.55 119.702 271.602 118.729 270.542 117.898C269.405 117.18 268.179 116.624 266.897 116.245C267.301 116.185 267.712 116.222 268.099 116.354C269.051 116.586 269.953 116.995 270.761 117.562C271.571 118.131 272.271 118.851 272.825 119.683C273.249 120.323 273.408 120.767 273.362 120.791Z" fill="#EB996E"/>
<path d="M230.088 112.119C230.088 112.119 224.296 113.554 220.038 116.486L224.575 129.166C226.088 133.33 230.708 135.404 234.405 133.221C240.099 129.86 242.11 120.065 242.11 120.065L248.364 92.0861L237.997 85.3876L230.125 112.119" fill="#FFBE9D"/>
<path d="M237.96 85.3876L238.383 76.1859L236.062 66.8282C235.933 66.3136 235.873 65.6663 236.281 65.3544C236.484 65.1943 236.734 65.1115 236.989 65.12C237.244 65.1285 237.488 65.2279 237.68 65.4012C238.308 66.0718 241.332 74.252 241.332 74.252C241.332 74.252 245.922 71.4135 246.739 71.2731C247.555 71.1328 248.576 73.6827 248.644 73.8777C248.674 74.4491 248.674 75.0218 248.644 75.5932C248.644 75.5932 251.48 75.679 251.737 76.0767C251.943 76.8892 252.052 77.7245 252.062 78.5643C252.062 78.5643 253.264 78.962 253.453 79.8977C253.642 80.8335 254.035 82.3775 253.453 82.7206C252.871 83.0638 251.691 83.7344 251.691 83.7344C251.691 83.7344 251.215 88.5068 251.086 88.9435C250.958 89.3802 248.304 92.0627 248.304 92.0627L237.96 85.3876Z" fill="#FFBE9D"/>
<path d="M228.311 133.408C228.311 133.408 228.591 133.579 229.181 133.774C230.043 134.054 230.956 134.128 231.85 133.993C233.287 133.781 234.632 133.142 235.722 132.152C237.161 130.806 238.377 129.225 239.321 127.474C239.877 126.444 240.345 125.366 240.72 124.253C241.113 123.028 241.439 121.781 241.695 120.518C242.285 117.89 242.928 115.059 243.608 112.049C244.969 106.037 246.497 99.3149 248.145 92.0706V92.016H248.183C248.705 91.4857 249.226 90.9476 249.748 90.3862C250.005 90.1054 250.262 89.8247 250.504 89.5362C250.625 89.388 250.754 89.2399 250.852 89.0917C250.929 88.945 250.972 88.7825 250.981 88.616C251.185 87.0564 251.343 85.4422 251.51 83.8124V83.7111L251.601 83.6643L253.045 82.8299C253.151 82.7597 253.317 82.6817 253.385 82.6193C253.457 82.5519 253.505 82.4612 253.521 82.362C253.556 82.1033 253.556 81.8409 253.521 81.5822C253.448 81.0103 253.334 80.4448 253.181 79.89C252.924 79.4049 252.492 79.0436 251.979 78.8841L251.85 78.8373V78.7047C251.85 78.2524 251.805 77.7846 251.752 77.3245C251.731 77.094 251.698 76.865 251.654 76.6383C251.636 76.5383 251.605 76.4413 251.563 76.3497C251.563 76.2951 251.563 76.3497 251.517 76.3029C251.476 76.2807 251.433 76.2624 251.389 76.2484C250.479 76.044 249.552 75.9368 248.621 75.9286H248.425V75.7259C248.425 75.2424 248.425 74.7043 248.425 74.1663C248.394 73.9827 248.332 73.8061 248.243 73.6438C248.168 73.4567 248.077 73.2773 247.986 73.0901C247.809 72.729 247.602 72.3845 247.366 72.0608C247.259 71.9099 247.129 71.7782 246.981 71.6709C246.926 71.6231 246.858 71.5932 246.787 71.5848C246.716 71.5765 246.644 71.5902 246.58 71.6241C246.214 71.7686 245.858 71.938 245.514 72.131C244.107 72.9108 242.731 73.6906 241.385 74.5328L241.188 74.6575L241.105 74.4392C240.395 72.5911 239.684 70.7663 238.988 68.9806C238.64 68.0838 238.3 67.187 237.952 66.3059C237.898 66.1085 237.792 65.9306 237.645 65.7927C237.498 65.6548 237.316 65.5624 237.12 65.5261C236.94 65.4642 236.744 65.4676 236.565 65.5356C236.387 65.6036 236.236 65.7322 236.137 65.9004C236.043 66.0677 236.003 66.2617 236.024 66.454C236.024 66.6256 236.13 66.8907 236.175 67.1013C236.296 67.5535 236.41 67.998 236.523 68.4425C236.75 69.3393 236.969 70.2205 237.196 71.0939C237.64 72.851 238.076 74.5666 238.504 76.2405V76.2951C238.353 79.4975 238.209 82.5648 238.073 85.4968V85.4812L231.185 108.595L229.241 115.028C229.015 115.753 228.841 116.322 228.72 116.72C228.599 117.118 228.523 117.289 228.523 117.289C228.523 117.289 228.561 117.087 228.667 116.705L229.143 114.997C229.582 113.492 230.209 111.316 231.003 108.54C232.636 102.957 234.958 94.987 237.763 85.3798V85.4188C237.894 82.4972 238.028 79.4299 238.164 76.2172V76.2717C237.733 74.5952 237.287 72.8796 236.841 71.1328L236.16 68.4815C236.047 68.037 235.933 67.5847 235.812 67.1403C235.747 66.9068 235.694 66.6699 235.653 66.4306C235.626 66.1599 235.681 65.8871 235.812 65.6508C235.952 65.4076 236.168 65.2206 236.425 65.1206C236.679 65.044 236.947 65.0353 237.205 65.0953C237.463 65.1553 237.702 65.2821 237.899 65.4637C238.089 65.6473 238.23 65.8783 238.308 66.1343L239.343 68.809C240.047 70.6026 240.75 72.4273 241.468 74.2676L241.188 74.1663C242.542 73.3397 243.903 72.5131 245.34 71.7411C245.703 71.5453 246.077 71.3709 246.459 71.2186C246.578 71.1674 246.708 71.1486 246.837 71.164C246.966 71.1833 247.09 71.2312 247.2 71.3044C247.382 71.4391 247.543 71.6022 247.676 71.7879C247.929 72.1291 248.149 72.4947 248.334 72.8796C248.432 73.0745 248.523 73.2617 248.606 73.4567C248.714 73.6631 248.786 73.8875 248.818 74.1195C248.818 74.6731 248.818 75.1878 248.818 75.6791L248.629 75.4686C249.601 75.4753 250.569 75.5903 251.517 75.8117C251.582 75.8351 251.646 75.8638 251.706 75.8974C251.79 75.9441 251.858 76.0145 251.903 76.1002C251.962 76.2267 252.005 76.3603 252.032 76.4979C252.077 76.7474 252.107 76.9814 252.137 77.2231C252.183 77.6988 252.213 78.1667 252.236 78.6346L252.1 78.4474C252.409 78.5409 252.696 78.6984 252.945 78.9102C253.193 79.1221 253.397 79.3838 253.544 79.6795C253.71 80.2721 253.831 80.8769 253.907 81.4886C253.959 81.8008 253.959 82.12 253.907 82.4322C253.874 82.6213 253.778 82.7924 253.635 82.9157C253.511 83.0013 253.382 83.0794 253.249 83.1496L251.812 83.9216L251.911 83.7735C251.737 85.4032 251.578 87.0018 251.366 88.5848L251.321 88.889C251.303 89.0121 251.254 89.128 251.177 89.2243C251.066 89.395 250.942 89.5566 250.807 89.7078C250.55 90.0041 250.292 90.2926 250.05 90.5733C249.529 91.1348 249.007 91.6729 248.478 92.2031L248.531 92.1095C246.867 99.3461 245.325 106.068 243.941 112.08C243.253 115.083 242.595 117.913 241.99 120.533C241.731 121.806 241.398 123.061 240.992 124.292C240.603 125.416 240.122 126.504 239.555 127.544C238.589 129.318 237.345 130.915 235.873 132.269C234.751 133.265 233.371 133.9 231.903 134.094C230.989 134.221 230.06 134.125 229.188 133.813C228.967 133.729 228.752 133.628 228.546 133.509L228.311 133.408Z" fill="#EB996E"/>
<path d="M248.653 75.6164C248.653 75.671 248.396 75.7022 247.995 75.7178C247.486 75.7278 246.98 75.7905 246.483 75.9049C246.004 76.0265 245.562 76.2705 245.198 76.6146C244.925 76.8797 244.804 77.1058 244.744 77.0824C244.683 77.0591 244.744 76.7783 244.993 76.4196C245.346 75.9655 245.836 75.6469 246.385 75.515C246.914 75.3805 247.464 75.354 248.003 75.4371C248.411 75.4916 248.653 75.5618 248.653 75.6164Z" fill="#EB996E"/>
<path d="M246.459 75.7028C246.361 75.6638 246.353 75.4221 246.459 75.1648C246.565 74.9074 246.716 74.7281 246.814 74.767C246.913 74.806 246.928 75.0478 246.814 75.3051C246.701 75.5624 246.535 75.7418 246.459 75.7028Z" fill="#EB996E"/>
<path d="M252.19 78.5332C251.456 78.7674 250.689 78.8755 249.921 78.853C249.679 78.8446 249.439 78.8962 249.221 79.0034C249.002 79.1106 248.812 79.2703 248.666 79.469C248.469 79.7887 248.537 80.0538 248.477 80.0694C248.416 80.085 248.235 79.8121 248.424 79.3442C248.528 79.0808 248.718 78.863 248.961 78.7282C249.241 78.5698 249.55 78.4741 249.868 78.4475C250.64 78.3255 251.428 78.3546 252.19 78.5332Z" fill="#EB996E"/>
<path d="M251.692 81.3405C251.798 81.3405 251.858 81.9176 251.828 82.6272C251.798 83.3368 251.684 83.8983 251.579 83.8983C251.473 83.8983 251.405 83.3134 251.435 82.6038C251.465 81.8942 251.579 81.3327 251.692 81.3405Z" fill="#EB996E"/>
<path d="M254.829 102.341L255.502 99.9544C255.533 99.8451 255.591 99.746 255.67 99.6669C255.749 99.5877 255.847 99.5312 255.954 99.5028C256.061 99.4745 256.173 99.4754 256.279 99.5053C256.386 99.5353 256.483 99.5933 256.561 99.6736L257.446 100.602L257.99 98.348C258.022 98.2178 258.092 98.1009 258.191 98.0131C258.289 97.9254 258.412 97.871 258.541 97.8574C258.671 97.8438 258.801 97.8715 258.915 97.937C259.029 98.0024 259.12 98.1023 259.177 98.2232L260.41 100.89L254.829 102.341Z" fill="white"/>
<path d="M260.424 101.911C259.579 102.333 258.68 102.632 257.755 102.8C256.86 103.102 255.929 103.27 254.988 103.3C256.729 102.578 258.558 102.111 260.424 101.911Z" fill="white"/>
<path d="M215.457 88.6003C215.457 88.6003 215.177 88.8967 214.784 89.5283C214.256 90.4278 213.909 91.4276 213.763 92.4682C213.547 94.0176 213.502 95.5871 213.627 97.147C213.71 98.9171 213.846 100.851 214.058 102.879C214.416 106.341 214.948 109.782 215.653 113.188C215.918 114.498 216.16 115.527 216.326 116.307C216.402 116.634 216.47 116.907 216.523 117.141C216.576 117.375 216.583 117.437 216.583 117.437C216.583 117.437 216.545 117.344 216.492 117.157C216.44 116.97 216.356 116.642 216.273 116.322C216.084 115.597 215.827 114.552 215.517 113.242C214.782 109.838 214.234 106.393 213.876 102.925C213.664 100.898 213.536 98.9561 213.46 97.186C213.346 95.6249 213.402 94.0554 213.627 92.5072C213.789 91.453 214.16 90.4444 214.716 89.5439C214.92 89.1965 215.17 88.8791 215.457 88.6003Z" fill="white"/>
<path d="M231.372 77.9796L231.199 78.0732L230.699 78.3227C230.268 78.5333 229.641 78.8452 228.892 79.2741C226.941 80.3965 225.046 81.6197 223.214 82.9392C221.051 84.4988 219.138 85.918 217.739 86.9473L216.083 88.156L215.622 88.4758C215.57 88.5182 215.515 88.5548 215.456 88.5849C215.499 88.5326 215.55 88.4878 215.607 88.4524L216.045 88.1092L217.671 86.8538C219.055 85.801 220.96 84.335 223.123 82.8066C224.958 81.4815 226.867 80.2681 228.839 79.1727C229.596 78.7594 230.231 78.4631 230.677 78.2681L231.183 78.0498C231.335 77.9952 231.335 77.9718 231.372 77.9796Z" fill="white"/>
<path d="M267.435 83.0562C267.388 83.0291 267.345 82.995 267.307 82.9549L266.967 82.6507C266.545 82.2839 266.103 81.9428 265.643 81.6292C264.108 80.6199 262.48 79.7709 260.781 79.0948C259.088 78.4032 257.359 77.8096 255.602 77.3169C254.921 77.1219 254.377 76.9816 253.991 76.888L253.56 76.771C253.508 76.7598 253.457 76.7415 253.409 76.7164H253.568L254.006 76.8022C254.392 76.8802 254.944 77.005 255.624 77.1843C257.398 77.6462 259.141 78.2271 260.842 78.9233C262.55 79.5991 264.181 80.4674 265.704 81.5122C266.338 81.9549 266.919 82.4732 267.435 83.0562Z" fill="white"/>
<path d="M231.585 142.578C231.482 142.56 231.383 142.525 231.29 142.477C231.027 142.358 230.774 142.217 230.534 142.056C230.127 141.804 229.771 141.472 229.488 141.079C229.206 140.685 229.001 140.238 228.885 139.763C228.678 138.804 228.781 137.802 229.18 136.909C229.296 136.632 229.443 136.37 229.619 136.129C229.74 135.966 229.823 135.888 229.831 135.895C229.624 136.228 229.44 136.575 229.279 136.933C228.927 137.809 228.845 138.775 229.044 139.701C229.261 140.615 229.8 141.413 230.557 141.939C231.184 142.407 231.6 142.547 231.585 142.578Z" fill="white"/>
<path d="M229.181 134.133C229.342 134.443 229.461 134.773 229.536 135.116C229.655 135.444 229.726 135.788 229.748 136.137C229.576 135.835 229.454 135.506 229.385 135.162C229.261 134.834 229.192 134.486 229.181 134.133Z" fill="white"/>
<path d="M239.404 308.973L262.466 308.856L262.05 226.626L261.831 142.976L230.579 142.563L224.961 153.48C222.662 157.869 221.197 162.67 220.644 167.626C220.265 171.415 223.018 183.736 223.971 186.856L232.568 214.975L239.404 308.973Z" fill="#263238"/>
<path d="M268.598 143.077L293.944 214.328C295.446 218.919 295.945 223.795 295.405 228.608C294.865 233.421 293.3 238.051 290.821 242.167L261.392 301.432L244.848 280.081L269.468 227.054L247.767 190.754L251.419 143.186L261.642 143.015L268.598 143.077Z" fill="#263238"/>
<path d="M259.729 166.947C259.729 166.947 259.729 167.072 259.729 167.314C259.729 167.555 259.767 167.93 259.797 168.39C259.85 169.349 259.918 170.729 260.008 172.515C260.182 176.125 260.424 181.311 260.765 187.713C261.105 194.115 261.392 201.75 261.77 210.249C261.952 214.492 262.148 218.944 262.345 223.561C262.489 225.9 262.428 228.24 262.451 230.579C262.474 232.918 262.451 235.383 262.451 237.831C262.451 257.428 262.511 275.168 262.534 288.027C262.534 294.437 262.534 299.631 262.534 303.241C262.534 305.027 262.534 306.415 262.534 307.382C262.534 307.834 262.534 308.162 262.534 308.458C262.534 308.754 262.534 308.824 262.534 308.824C262.534 308.824 262.534 308.7 262.534 308.458V307.382C262.534 306.415 262.534 305.042 262.489 303.241C262.489 299.631 262.428 294.445 262.383 288.035C262.33 275.176 262.262 257.435 262.186 237.839C262.186 235.39 262.186 232.973 262.186 230.587C262.186 228.201 262.232 225.846 262.088 223.569C261.899 218.96 261.71 214.507 261.536 210.265C261.188 201.781 260.87 194.147 260.613 187.721C260.356 181.295 260.167 176.133 260.024 172.523C259.963 170.745 259.918 169.357 259.888 168.39C259.888 167.93 259.888 167.61 259.888 167.314C259.888 167.017 259.729 166.947 259.729 166.947Z" fill="#455A64"/>
<path d="M259.147 144.481C259.236 144.732 259.289 144.995 259.306 145.261C259.389 145.76 259.48 146.485 259.586 147.39C259.783 149.191 259.994 151.694 260.115 154.463C260.236 157.231 260.244 159.742 260.206 161.559C260.206 162.463 260.153 163.204 260.115 163.711C260.123 163.974 260.092 164.237 260.025 164.491C259.929 163.517 259.897 162.537 259.926 161.559C259.926 159.742 259.843 157.247 259.722 154.478C259.601 151.71 259.435 149.222 259.306 147.46C259.199 146.471 259.146 145.476 259.147 144.481Z" fill="#455A64"/>
<path d="M254.065 146.087C254.103 146.142 253.672 146.345 253.551 146.976C253.517 147.148 253.526 147.325 253.578 147.492C253.63 147.658 253.722 147.809 253.846 147.928C253.996 148.071 254.182 148.167 254.383 148.205C254.584 148.242 254.791 148.219 254.98 148.138C255.161 148.042 255.313 147.895 255.417 147.715C255.521 147.534 255.574 147.327 255.57 147.117C255.563 146.942 255.513 146.772 255.424 146.624C255.335 146.475 255.211 146.352 255.063 146.267C254.756 146.113 254.413 146.051 254.073 146.087C254.073 146.087 254.148 145.986 254.345 145.924C254.629 145.852 254.927 145.883 255.192 146.009C255.403 146.1 255.586 146.249 255.719 146.441C255.853 146.632 255.932 146.858 255.948 147.093C255.978 147.384 255.919 147.676 255.779 147.93C255.639 148.184 255.426 148.387 255.169 148.509C254.912 148.631 254.624 148.667 254.346 148.612C254.068 148.557 253.814 148.413 253.619 148.201C253.458 148.036 253.344 147.829 253.29 147.602C253.235 147.375 253.242 147.137 253.309 146.914C253.385 146.622 253.556 146.366 253.793 146.189C253.944 146.08 254.058 146.064 254.065 146.087Z" fill="#455A64"/>
<path d="M241.968 144.676C242.079 144.922 242.149 145.186 242.172 145.456C242.294 146.156 242.317 146.87 242.24 147.577C242.132 148.629 241.837 149.652 241.371 150.595C240.808 151.768 239.974 152.78 238.943 153.543C237.912 154.305 236.715 154.795 235.458 154.97C234.451 155.125 233.425 155.085 232.433 154.853C231.762 154.702 231.115 154.453 230.512 154.112C230.285 154.001 230.076 153.853 229.892 153.675C230.728 154.063 231.6 154.363 232.494 154.572C233.569 154.803 234.679 154.801 235.754 154.567C236.829 154.332 237.845 153.871 238.738 153.212C239.631 152.552 240.382 151.709 240.943 150.735C241.504 149.761 241.863 148.678 241.998 147.554C242.087 146.596 242.077 145.632 241.968 144.676Z" fill="#455A64"/>
<path d="M271.638 151.507C271.144 151.566 270.644 151.504 270.178 151.328C269.036 150.957 268.01 150.278 267.207 149.363C266.396 148.451 265.839 147.33 265.596 146.119C265.477 145.624 265.477 145.108 265.596 144.614C265.664 144.614 265.672 145.183 265.899 146.056C266.205 147.185 266.762 148.224 267.526 149.092C268.29 149.959 269.24 150.632 270.299 151.055C271.086 151.374 271.645 151.429 271.638 151.507Z" fill="#455A64"/>
<path d="M280.645 228.318C280.266 228.764 279.812 229.136 279.306 229.417C278.775 229.765 278.197 230.027 277.59 230.197C276.826 230.406 276.021 230.384 275.268 230.135C273.948 229.621 272.816 228.694 272.032 227.483C271.672 227.028 271.374 226.525 271.147 225.986C271.556 226.388 271.925 226.829 272.251 227.304C273.054 228.402 274.139 229.247 275.382 229.745C276.017 229.919 276.679 229.959 277.329 229.861C277.979 229.763 278.603 229.53 279.163 229.175C279.64 228.861 280.135 228.574 280.645 228.318Z" fill="#455A64"/>
<path d="M274.866 232.864C273.973 231.91 273.175 230.865 272.485 229.745C271.69 228.702 270.996 227.582 270.413 226.4C271.312 227.351 272.113 228.396 272.802 229.519C273.604 230.555 274.296 231.677 274.866 232.864Z" fill="#455A64"/>
<path d="M236.122 169.7C236.016 169.739 235.752 169.294 235.517 168.694C235.283 168.093 235.184 167.587 235.283 167.54C235.381 167.493 235.653 167.945 235.88 168.546C236.107 169.146 236.22 169.7 236.122 169.7Z" fill="#FBFBFB"/>
<path d="M250.762 171.868C250.648 171.868 250.565 171.486 250.565 171.01C250.565 170.534 250.648 170.145 250.762 170.145C250.875 170.145 250.958 170.534 250.958 171.01C250.958 171.486 250.868 171.868 250.762 171.868Z" fill="#FBFBFB"/>
<path d="M244.743 180.071C244.637 180.071 244.516 179.603 244.478 179.003C244.44 178.402 244.478 177.919 244.599 177.911C244.72 177.903 244.834 178.379 244.871 178.98C244.909 179.58 244.849 180.063 244.743 180.071Z" fill="#FBFBFB"/>
<path d="M233.748 186.076C233.657 186.146 233.347 185.857 232.939 185.561C232.531 185.265 232.183 185.039 232.183 184.929C232.183 184.82 232.682 184.883 233.143 185.226C233.604 185.569 233.839 186.076 233.748 186.076Z" fill="#FBFBFB"/>
<path d="M253.129 193.726C253.039 193.663 253.129 193.328 253.386 192.946C253.644 192.564 253.878 192.345 253.969 192.408C254.059 192.47 253.969 192.813 253.712 193.188C253.454 193.562 253.22 193.788 253.129 193.726Z" fill="#FBFBFB"/>
<path d="M241.166 195.886C241.06 195.886 240.969 195.239 240.969 194.451C240.969 193.663 241.06 193.008 241.166 193.008C241.272 193.008 241.363 193.656 241.363 194.451C241.363 195.246 241.249 195.886 241.166 195.886Z" fill="#FBFBFB"/>
<path d="M237.249 204.635C237.188 204.721 236.795 204.542 236.371 204.222C235.948 203.902 235.615 203.575 235.714 203.481C235.812 203.387 236.175 203.575 236.598 203.894C237.022 204.214 237.317 204.542 237.249 204.635Z" fill="#FBFBFB"/>
<path d="M249.361 207.676C249.407 207.778 249.165 207.989 248.817 208.153C248.469 208.317 248.151 208.356 248.106 208.254C248.061 208.153 248.31 207.942 248.658 207.778C249.006 207.614 249.323 207.575 249.361 207.676Z" fill="#FBFBFB"/>
<path d="M241.167 221.947C241.076 221.994 240.683 221.393 240.298 220.598C239.912 219.803 239.677 219.116 239.776 219.038C239.874 218.96 240.267 219.592 240.645 220.387C241.023 221.183 241.235 221.861 241.167 221.947Z" fill="#FBFBFB"/>
<path d="M254.527 220.621C254.429 220.567 254.603 220.044 254.905 219.444C255.208 218.843 255.548 218.407 255.661 218.461C255.775 218.516 255.586 219.038 255.276 219.639C254.966 220.239 254.618 220.676 254.527 220.621Z" fill="#FBFBFB"/>
<path d="M248.667 232.7C248.554 232.7 248.569 232.069 248.448 231.336C248.327 230.603 248.145 230.018 248.251 229.963C248.357 229.909 248.72 230.462 248.841 231.273C248.962 232.084 248.773 232.724 248.667 232.7Z" fill="#FBFBFB"/>
<path d="M242.391 239.602C242.315 239.68 241.937 239.383 241.551 238.947C241.166 238.51 240.916 238.097 240.999 238.019C241.083 237.941 241.453 238.237 241.839 238.674C242.224 239.11 242.474 239.524 242.391 239.602Z" fill="#FBFBFB"/>
<path d="M257.62 242.222C257.545 242.144 257.825 241.723 258.248 241.278C258.672 240.834 259.065 240.545 259.148 240.623C259.231 240.701 258.944 241.13 258.528 241.567C258.112 242.004 257.704 242.3 257.62 242.222Z" fill="#FBFBFB"/>
<path d="M248.864 252.554C248.758 252.554 248.758 251.938 248.864 251.221C248.969 250.503 249.136 249.942 249.249 249.957C249.363 249.973 249.355 250.566 249.249 251.283C249.143 252 248.969 252.57 248.864 252.554Z" fill="#FBFBFB"/>
<path d="M242.974 257.568C242.876 257.623 242.543 257.217 242.218 256.664C241.893 256.11 241.726 255.619 241.817 255.564C241.908 255.51 242.241 255.907 242.573 256.461C242.906 257.015 243.065 257.506 242.974 257.568Z" fill="#FBFBFB"/>
<path d="M257.167 263.893C257.235 263.986 256.85 264.384 256.305 264.781C255.761 265.179 255.284 265.429 255.216 265.335C255.148 265.242 255.541 264.844 256.078 264.446C256.615 264.048 257.107 263.807 257.167 263.893Z" fill="#FBFBFB"/>
<path d="M245.341 272.104C245.235 272.065 245.341 271.441 245.439 270.661C245.537 269.882 245.477 269.242 245.59 269.226C245.704 269.211 245.9 269.866 245.824 270.7C245.749 271.535 245.439 272.151 245.341 272.104Z" fill="#FBFBFB"/>
<path d="M250.066 283.894C249.975 283.965 249.658 283.699 249.348 283.302C249.038 282.904 248.864 282.522 248.947 282.452C249.03 282.382 249.348 282.647 249.658 283.044C249.968 283.442 250.149 283.824 250.066 283.894Z" fill="#FBFBFB"/>
<path d="M244.901 291.802C244.81 291.864 244.394 291.404 243.971 290.764C243.547 290.125 243.282 289.564 243.366 289.501C243.449 289.439 243.872 289.899 244.296 290.538C244.719 291.178 244.991 291.739 244.901 291.802Z" fill="#FBFBFB"/>
<path d="M259.125 281.875C259.027 281.836 259.035 281.547 259.125 281.235C259.216 280.924 259.42 280.69 259.526 280.729C259.632 280.768 259.617 281.056 259.526 281.376C259.435 281.696 259.231 281.922 259.125 281.875Z" fill="#FBFBFB"/>
<path d="M252.848 300.707C252.75 300.653 252.939 300.099 253.09 299.405C253.241 298.711 253.294 298.126 253.407 298.118C253.521 298.11 253.634 298.742 253.475 299.491C253.317 300.239 252.939 300.77 252.848 300.707Z" fill="#FBFBFB"/>
<path d="M256.931 180.196C256.833 180.243 256.591 179.931 256.394 179.494C256.198 179.058 256.114 178.668 256.213 178.621C256.311 178.574 256.553 178.886 256.75 179.323C256.946 179.759 257.044 180.149 256.931 180.196Z" fill="#FBFBFB"/>
<path d="M246.46 155.913C246.52 156.007 245.991 156.443 245.424 157.067C244.857 157.691 244.471 158.268 244.373 158.214C244.275 158.159 244.532 157.434 245.129 156.794C245.726 156.155 246.384 155.812 246.46 155.913Z" fill="#FBFBFB"/>
<path d="M255.782 155.663C255.669 155.663 255.495 155.219 255.23 154.688C254.966 154.158 254.724 153.722 254.807 153.644C254.89 153.566 255.298 153.909 255.563 154.501C255.828 155.094 255.88 155.601 255.782 155.663Z" fill="#FBFBFB"/>
<path d="M226.67 163.547C226.572 163.5 226.67 162.986 226.905 162.393C227.139 161.8 227.396 161.34 227.502 161.387C227.608 161.434 227.502 161.941 227.268 162.541C227.033 163.142 226.799 163.586 226.67 163.547Z" fill="#FBFBFB"/>
<path d="M227.616 175.323C227.54 175.408 227.109 175.159 226.648 174.761C226.187 174.363 225.892 173.981 225.937 173.888C225.983 173.794 226.444 174.052 226.905 174.449C227.366 174.847 227.684 175.237 227.616 175.323Z" fill="#FBFBFB"/>
<path d="M246.717 146.563C246.619 146.563 246.407 146.314 246.256 145.916C246.105 145.518 246.059 145.136 246.158 145.136C246.256 145.136 246.468 145.386 246.619 145.783C246.77 146.181 246.816 146.524 246.717 146.563Z" fill="#FBFBFB"/>
<path d="M265.007 152.318C264.901 152.318 264.908 151.827 265.007 151.273C265.105 150.72 265.302 150.283 265.407 150.306C265.513 150.33 265.506 150.806 265.407 151.359C265.309 151.913 265.113 152.342 265.007 152.318Z" fill="#FBFBFB"/>
<path d="M269.303 161.231C269.205 161.185 269.341 160.608 269.613 159.929C269.885 159.251 270.18 158.744 270.278 158.783C270.377 158.822 270.278 159.407 269.976 160.085C269.674 160.764 269.409 161.27 269.303 161.231Z" fill="#FBFBFB"/>
<path d="M266.238 168.421C266.14 168.468 265.777 167.93 265.429 167.22C265.082 166.511 264.885 165.879 264.983 165.832C265.082 165.785 265.437 166.323 265.785 167.033C266.133 167.743 266.337 168.367 266.238 168.421Z" fill="#FBFBFB"/>
<path d="M272.789 175.611C272.69 175.572 272.789 175.12 272.955 174.605C273.121 174.09 273.386 173.7 273.492 173.739C273.598 173.778 273.492 174.231 273.326 174.745C273.159 175.26 272.925 175.65 272.789 175.611Z" fill="#FBFBFB"/>
<path d="M266.935 182.653C266.845 182.715 266.61 182.505 266.421 182.193C266.232 181.881 266.142 181.569 266.24 181.506C266.338 181.444 266.557 181.655 266.754 181.974C266.951 182.294 267.026 182.598 266.935 182.653Z" fill="#FBFBFB"/>
<path d="M268.182 197.188C268.106 197.258 267.63 196.876 267.131 196.315C266.632 195.753 266.292 195.246 266.375 195.168C266.458 195.091 266.927 195.48 267.426 196.042C267.925 196.603 268.265 197.11 268.182 197.188Z" fill="#FBFBFB"/>
<path d="M275.857 188.837C275.774 188.907 275.358 188.517 274.935 187.955C274.511 187.394 274.239 186.895 274.322 186.825C274.406 186.755 274.821 187.152 275.245 187.706C275.668 188.26 275.948 188.774 275.857 188.837Z" fill="#FBFBFB"/>
<path d="M280.069 200.354C279.97 200.307 280.144 199.723 280.454 199.052C280.764 198.381 281.09 197.867 281.211 197.913C281.331 197.96 281.142 198.553 280.832 199.223C280.522 199.894 280.167 200.409 280.069 200.354Z" fill="#FBFBFB"/>
<path d="M271.117 209.837C271.019 209.891 270.671 209.462 270.187 209.002C269.703 208.542 269.257 208.222 269.302 208.105C269.348 207.988 269.922 208.199 270.452 208.706C270.981 209.213 271.208 209.782 271.117 209.837Z" fill="#FBFBFB"/>
<path d="M271.677 219.608C271.677 219.717 271.299 219.811 270.838 219.811C270.376 219.811 270.006 219.717 270.006 219.608C270.006 219.498 270.376 219.405 270.838 219.405C271.299 219.405 271.677 219.498 271.677 219.608Z" fill="#FBFBFB"/>
<path d="M280.879 216.878C280.781 216.824 280.977 216.332 281.121 215.724C281.265 215.116 281.325 214.586 281.439 214.578C281.552 214.57 281.673 215.139 281.507 215.818C281.34 216.496 280.962 216.941 280.879 216.878Z" fill="#FBFBFB"/>
<path d="M290.022 220.161C289.923 220.2 289.644 219.646 289.402 218.937C289.16 218.227 289.046 217.619 289.145 217.588C289.243 217.557 289.53 218.095 289.772 218.804C290.014 219.514 290.128 220.122 290.022 220.161Z" fill="#FBFBFB"/>
<path d="M288.561 233.574C288.471 233.519 288.705 232.864 289.083 232.108C289.461 231.351 289.839 230.782 289.953 230.837C290.066 230.891 289.817 231.546 289.431 232.295C289.045 233.044 288.66 233.644 288.561 233.574Z" fill="#FBFBFB"/>
<path d="M280.22 241.442C280.122 241.481 279.812 240.943 279.525 240.233C279.237 239.524 279.094 238.915 279.199 238.869C279.305 238.822 279.608 239.368 279.888 240.077C280.167 240.787 280.319 241.442 280.22 241.442Z" fill="#FBFBFB"/>
<path d="M270.981 244.491C270.981 244.601 270.664 244.694 270.278 244.694C269.892 244.694 269.582 244.601 269.582 244.491C269.582 244.382 269.9 244.288 270.278 244.288C270.656 244.288 270.981 244.382 270.981 244.491Z" fill="#FBFBFB"/>
<path d="M276.275 257.038C276.177 257.038 275.965 256.609 275.806 256.016C275.647 255.424 275.617 254.909 275.723 254.886C275.829 254.862 276.033 255.315 276.192 255.907C276.35 256.5 276.381 256.976 276.275 257.038Z" fill="#FBFBFB"/>
<path d="M269.582 252.827C269.492 252.772 269.582 252.406 269.832 252.008C270.081 251.61 270.331 251.337 270.422 251.392C270.512 251.447 270.422 251.821 270.172 252.219C269.923 252.616 269.681 252.889 269.582 252.827Z" fill="#FBFBFB"/>
<path d="M269.446 266.637C269.34 266.637 269.189 266.115 269.113 265.436C269.038 264.758 269.06 264.204 269.166 264.189C269.272 264.173 269.423 264.711 269.499 265.39C269.575 266.068 269.552 266.622 269.446 266.637Z" fill="#FBFBFB"/>
</svg>
